<?xml version="1.0" encoding="UTF-8" standalone="no"?>
<svg
   xmlns:dc="http://purl.org/dc/elements/1.1/"
   xmlns:cc="http://creativecommons.org/ns#"
   xmlns:rdf="http://www.w3.org/1999/02/22-rdf-syntax-ns#"
   xmlns:svg="http://www.w3.org/2000/svg"
   xmlns="http://www.w3.org/2000/svg"
   xmlns:sodipodi="http://sodipodi.sourceforge.net/DTD/sodipodi-0.dtd"
   xmlns:inkscape="http://www.inkscape.org/namespaces/inkscape"
   width="253.1245"
   height="419.22815"
   viewBox="0 0 253.1245 419.22815"
   version="1.1"
   id="svg14"
   sodipodi:docname="icon2.svg"
   style="fill:none"
   inkscape:version="0.92.1 r15371">
  <metadata
     id="metadata20">
    <rdf:RDF>
      <cc:Work
         rdf:about="">
        <dc:format>image/svg+xml</dc:format>
        <dc:type
           rdf:resource="http://purl.org/dc/dcmitype/StillImage" />
        <dc:title></dc:title>
      </cc:Work>
    </rdf:RDF>
  </metadata>
  <defs
     id="defs18" />
  <sodipodi:namedview
     pagecolor="#ffffff"
     bordercolor="#666666"
     borderopacity="1"
     objecttolerance="10"
     gridtolerance="10"
     guidetolerance="10"
     inkscape:pageopacity="0"
     inkscape:pageshadow="2"
     inkscape:window-width="1366"
     inkscape:window-height="685"
     id="namedview16"
     showgrid="false"
     inkscape:zoom="0.87569573"
     inkscape:cx="147.12652"
     inkscape:cy="254.06756"
     inkscape:window-x="0"
     inkscape:window-y="0"
     inkscape:window-maximized="1"
     inkscape:current-layer="svg14" />
  <ellipse
     cx="131.45668"
     cy="98.5"
     rx="102"
     ry="98.5"
     id="ellipse2"
     style="fill:#ff0101" />
  <path
     d="M 132.45668,75.999994 96.019178,157.59569 78.456678,129.99999 56.25,166.10313 c 38.397146,47.06006 121.20569,39.21148 153.95048,-5.37744 l -25.2438,-47.7257 -19.73633,36.36719 z"
     id="path4"
     style="fill:#ffffff;fill-opacity:1"
     inkscape:connector-curvature="0"
     sodipodi:nodetypes="cccccccc" />
  <path
     d="m 136.24968,68.337094 33.26432,-20.13483 33.26431,-20.13483 c 1.95978,1.83219 3.83319,3.68466 5.47126,5.63839 l -35.99994,17.31564 z"
     id="path10"
     inkscape:connector-curvature="0"
     style="fill:#ffffff"
     sodipodi:nodetypes="cccccc" />
  <path
     d="m 23.4375,231.72813 4.6875,65.625 4.6875,-65.625 4.6875,-65.625 h 18.75 l -18.75,164.063 v 89.062 H 18.75 v -89.062 L 0,166.10313 h 18.75 z m 98.437,187.5 h -18.75 l -2.343,-60.938 H 86.8652 l -2.4902,60.938 h -18.75 l 14.0625,-253.125 h 28.125 z m -23.437,-131.25 -4.6875,-112.5 -4.6875,112.5 -2.1973,56.25 h 13.9163 z m 93.75,131.25 h -18.75 l -23.437,-187.5 v 187.5 h -14.063 v -253.125 h 18.75 l 23.437,187.5 v -187.5 h 14.063 z m 60.937,-239.062 h -23.437 v 98.437 h 18.75 v 14.063 h -18.75 v 112.5 h 23.437 v 14.062 h -42.187 v -253.125 h 42.187 z"
     id="path12"
     inkscape:connector-curvature="0"
     style="fill:#b11228" />
</svg>
