<svg width="57" height="54" viewBox="0 0 57 54" fill="none" xmlns="http://www.w3.org/2000/svg">
<path d="M57 27C57 41.9115 44.2399 54 28.5 54C12.7617 54 0 41.9115 0 27C0 12.09 12.7617 0 28.5 0C44.2399 0 57 12.09 57 27Z" fill="#FFCC4D"/>
<path d="M18.2083 30C20.3945 30 22.1667 27.6495 22.1667 24.75C22.1667 21.8505 20.3945 19.5 18.2083 19.5C16.0222 19.5 14.25 21.8505 14.25 24.75C14.25 27.6495 16.0222 30 18.2083 30Z" fill="#664500"/>
<path d="M45.0567 26.696C44.9617 26.4935 42.6833 21.7505 37.9998 21.7505C33.3178 21.7505 31.0378 26.4935 30.9428 26.696C30.7972 27.0065 30.8922 27.3695 31.1724 27.5825C31.4495 27.7955 31.8469 27.803 32.1383 27.6035C32.1573 27.59 34.1364 26.2505 37.9998 26.2505C41.8409 26.2505 43.8169 27.572 43.8613 27.602C44.0006 27.701 44.1684 27.7505 44.3331 27.7505C44.5073 27.7505 44.683 27.695 44.8271 27.587C45.1073 27.374 45.2039 27.008 45.0567 26.696ZM9.49818 18.6875C9.16884 18.6875 8.83476 18.59 8.54976 18.3875C7.84993 17.891 7.70901 16.9505 8.23309 16.2875C13.3979 9.7625 20.2918 9.6875 20.5831 9.6875C21.4571 9.6875 22.1664 10.3595 22.1664 11.1875C22.1664 12.014 21.4618 12.6845 20.5894 12.6875C20.3424 12.6905 14.9385 12.8165 10.7648 18.0875C10.4561 18.4805 9.97951 18.6875 9.49818 18.6875ZM45.918 21.875C45.4351 21.875 44.9617 21.668 44.6498 21.275C40.5458 16.0895 33.6282 17.3345 33.5601 17.345C32.694 17.507 31.8691 16.9805 31.6965 16.169C31.5255 15.356 32.0813 14.567 32.9378 14.4035C33.3036 14.333 41.8948 12.7955 47.1815 19.4735C47.7072 20.1365 47.5647 21.077 46.8648 21.5735C46.5814 21.779 46.2489 21.875 45.918 21.875ZM36.8186 35.366C36.5209 35.201 36.1346 35.2355 35.8733 35.456C35.8575 35.468 34.2694 36.7505 28.4998 36.7505C22.7348 36.7505 21.1436 35.4695 21.1436 35.4695C20.8918 35.2295 20.5039 35.1845 20.1936 35.3465C19.8848 35.513 19.7297 35.855 19.8168 36.182C19.8326 36.248 21.6281 42.7505 28.4998 42.7505C35.3714 42.7505 37.1669 36.248 37.1843 36.182C37.2683 35.8625 37.1147 35.5355 36.8186 35.366Z" fill="#664500"/>
</svg>
