<?xml version="1.0" encoding="UTF-8" standalone="no"?>
<svg
   xmlns:dc="http://purl.org/dc/elements/1.1/"
   xmlns:cc="http://creativecommons.org/ns#"
   xmlns:rdf="http://www.w3.org/1999/02/22-rdf-syntax-ns#"
   xmlns:svg="http://www.w3.org/2000/svg"
   xmlns="http://www.w3.org/2000/svg"
   xmlns:sodipodi="http://sodipodi.sourceforge.net/DTD/sodipodi-0.dtd"
   xmlns:inkscape="http://www.inkscape.org/namespaces/inkscape"
   width="253.1245"
   height="520"
   viewBox="0 0 253.1245 520"
   version="1.1"
   id="svg14"
   sodipodi:docname="icon.svg"
   style="fill:none"
   inkscape:version="0.92.1 r15371">
  <metadata
     id="metadata20">
    <rdf:RDF>
      <cc:Work
         rdf:about="">
        <dc:format>image/svg+xml</dc:format>
        <dc:type
           rdf:resource="http://purl.org/dc/dcmitype/StillImage" />
      </cc:Work>
    </rdf:RDF>
  </metadata>
  <defs
     id="defs18" />
  <sodipodi:namedview
     pagecolor="#ffffff"
     bordercolor="#666666"
     borderopacity="1"
     objecttolerance="10"
     gridtolerance="10"
     guidetolerance="10"
     inkscape:pageopacity="0"
     inkscape:pageshadow="2"
     inkscape:window-width="1366"
     inkscape:window-height="685"
     id="namedview16"
     showgrid="false"
     inkscape:zoom="0.87569573"
     inkscape:cx="-92.682802"
     inkscape:cy="288.32603"
     inkscape:window-x="0"
     inkscape:window-y="0"
     inkscape:window-maximized="1"
     inkscape:current-layer="svg14" />
  <ellipse
     cx="126.3125"
     cy="98.5"
     rx="102"
     ry="98.5"
     id="ellipse2"
     style="fill:#ff0101" />
  <path
     d="M 127.3125,76 90.875,157.5957 73.3125,130 51.105822,166.10314 C 89.502968,213.1632 172.31151,205.31462 205.0563,160.7257 L 179.8125,113 160.07617,149.36719 Z"
     id="path4"
     style="fill:#ffffff;fill-opacity:1"
     inkscape:connector-curvature="0"
     sodipodi:nodetypes="cccccccc" />
  <path
     d="m 131.1055,68.3371 33.26432,-20.134829 33.26431,-20.13483 c 1.95978,1.832192 3.83319,3.684655 5.47126,5.638393 l -35.99994,17.315633 z"
     id="path10"
     inkscape:connector-curvature="0"
     style="fill:#ffffff"
     sodipodi:nodetypes="cccccc" />
  <path
     d="M 23.4375,332.5 28.125,398.125 32.8125,332.5 37.5,266.875 H 56.25 L 37.5,430.938 V 520 H 18.75 V 430.938 L 0,266.875 h 18.75 z m 98.437,187.5 h -18.75 l -2.343,-60.938 H 86.8652 L 84.375,520 H 65.625 L 79.6875,266.875 h 28.125 z M 98.4375,388.75 93.75,276.25 89.0625,388.75 86.8652,445 h 13.9163 z m 93.75,131.25 h -18.75 L 150.0005,332.5 V 520 h -14.063 V 266.875 h 18.75 l 23.437,187.5 v -187.5 h 14.063 z m 60.937,-239.062 h -23.437 v 98.437 h 18.75 v 14.063 h -18.75 v 112.5 h 23.437 V 520 h -42.187 V 266.875 h 42.187 z"
     id="path12"
     inkscape:connector-curvature="0"
     style="fill:#b11228" />
</svg>
