<svg width="352" height="289" viewBox="0 0 352 289" fill="none" xmlns="http://www.w3.org/2000/svg">
<rect width="352" height="289" fill="white"/>
<path d="M241.5 145C241.5 181.196 212.601 210.5 177 210.5C141.399 210.5 112.5 181.196 112.5 145C112.5 108.804 141.399 79.5 177 79.5C212.601 79.5 241.5 108.804 241.5 145Z" fill="white" stroke="#DBC81F" stroke-width="3"/>
<rect y="162" width="344" height="127" fill="white"/>
<path d="M122.592 177.56C123.317 177.56 123.893 177.795 124.32 178.264C124.747 178.691 124.96 179.309 124.96 180.12V188.12C124.96 191.747 124.277 195.032 122.912 197.976C121.589 200.877 119.691 203.224 117.216 205.016C114.741 206.808 111.904 207.896 108.704 208.28V221.08C108.704 221.891 108.491 222.531 108.064 223C107.637 223.427 107.04 223.64 106.272 223.64C105.547 223.64 104.971 223.427 104.544 223C104.117 222.531 103.904 221.891 103.904 221.08V208.28C100.576 207.939 97.6747 206.893 95.2 205.144C92.768 203.395 90.8907 201.069 89.568 198.168C88.2453 195.267 87.584 191.917 87.584 188.12V180.12C87.584 179.309 87.7973 178.691 88.224 178.264C88.6507 177.795 89.2267 177.56 89.952 177.56C90.72 177.56 91.3173 177.795 91.744 178.264C92.1707 178.691 92.384 179.309 92.384 180.12V188.312C92.384 193.347 93.6 197.272 96.032 200.088C98.5067 202.904 101.92 204.312 106.272 204.312C110.581 204.312 113.973 202.904 116.448 200.088C118.923 197.229 120.16 193.304 120.16 188.312V180.12C120.16 179.309 120.373 178.691 120.8 178.264C121.269 177.795 121.867 177.56 122.592 177.56Z" fill="black"/>
<path d="M136.168 223.64C135.443 223.64 134.867 223.427 134.44 223C134.013 222.531 133.8 221.891 133.8 221.08V196.056C133.8 190.253 135.421 185.731 138.664 182.488C141.949 179.203 146.493 177.56 152.296 177.56C158.056 177.56 162.579 179.203 165.864 182.488C169.149 185.773 170.792 190.296 170.792 196.056V221.08C170.792 221.891 170.579 222.531 170.152 223C169.725 223.427 169.128 223.64 168.36 223.64C167.635 223.64 167.037 223.427 166.568 223C166.141 222.531 165.928 221.891 165.928 221.08V206.68H138.6V221.08C138.6 221.891 138.387 222.531 137.96 223C137.533 223.427 136.936 223.64 136.168 223.64ZM165.928 202.712V195.864C165.928 191.299 164.755 187.8 162.408 185.368C160.061 182.893 156.691 181.656 152.296 181.656C147.859 181.656 144.467 182.872 142.12 185.304C139.773 187.736 138.6 191.256 138.6 195.864V202.712H165.928Z" fill="#DBC81F"/>
<path d="M182.104 223.64C181.379 223.64 180.803 223.427 180.376 223C179.949 222.531 179.736 221.891 179.736 221.08V194.968C179.736 191.427 180.483 188.355 181.976 185.752C183.512 183.107 185.688 181.08 188.504 179.672C191.32 178.264 194.627 177.56 198.424 177.56C202.221 177.56 205.507 178.264 208.28 179.672C211.096 181.08 213.251 183.107 214.744 185.752C216.28 188.355 217.048 191.427 217.048 194.968V221.08C217.048 221.891 216.835 222.531 216.408 223C216.024 223.427 215.448 223.64 214.68 223.64C213.955 223.64 213.357 223.427 212.888 223C212.461 222.531 212.248 221.891 212.248 221.08V194.776C212.248 190.637 211.032 187.416 208.6 185.112C206.168 182.808 202.776 181.656 198.424 181.656C194.157 181.656 190.765 182.829 188.248 185.176C185.773 187.523 184.536 190.723 184.536 194.776V221.08C184.536 221.891 184.323 222.531 183.896 223C183.469 223.427 182.872 223.64 182.104 223.64ZM237.108 223C234.506 223 232.479 222.317 231.028 220.952C229.578 219.587 228.852 217.667 228.852 215.192V185.88C228.852 183.491 229.556 181.613 230.964 180.248C232.415 178.883 234.42 178.2 236.98 178.2H256.82C258.485 178.2 259.317 178.883 259.317 180.248C259.317 180.845 259.103 181.315 258.676 181.656C258.25 181.997 257.631 182.168 256.82 182.168H237.044C236.02 182.168 235.188 182.509 234.548 183.192C233.951 183.875 233.652 184.771 233.652 185.88V198.104H251.956C253.62 198.104 254.452 198.787 254.452 200.152C254.452 200.792 254.218 201.283 253.748 201.624C253.322 201.965 252.724 202.136 251.956 202.136H233.652V215.32C233.652 216.429 233.951 217.325 234.548 218.008C235.188 218.691 236.02 219.032 237.044 219.032H258.229C259.892 219.032 260.724 219.693 260.724 221.016C260.724 221.656 260.49 222.147 260.021 222.488C259.594 222.829 258.997 223 258.229 223H237.108Z" fill="black"/>
<path d="M216.962 255.14C216.309 255.14 215.693 255.019 215.114 254.776C214.535 254.524 214.078 254.179 213.742 253.74C213.677 253.647 213.644 253.553 213.644 253.46C213.644 253.367 213.667 253.287 213.714 253.222C213.77 253.147 213.84 253.091 213.924 253.054C213.999 253.026 214.059 253.012 214.106 253.012C214.19 253.012 214.26 253.035 214.316 253.082C214.381 253.119 214.456 253.185 214.54 253.278C215.147 253.922 215.954 254.244 216.962 254.244C217.447 254.244 217.839 254.16 218.138 253.992C218.437 253.824 218.586 253.591 218.586 253.292C218.586 253.077 218.525 252.905 218.404 252.774C218.292 252.634 218.096 252.508 217.816 252.396C217.545 252.275 217.097 252.107 216.472 251.892C215.865 251.687 215.389 251.491 215.044 251.304C214.699 251.117 214.442 250.907 214.274 250.674C214.106 250.431 214.022 250.137 214.022 249.792C214.022 249.251 214.255 248.817 214.722 248.49C215.198 248.163 215.828 248 216.612 248C217.191 248 217.727 248.103 218.222 248.308C218.717 248.504 219.09 248.77 219.342 249.106C219.417 249.209 219.454 249.307 219.454 249.4C219.454 249.54 219.379 249.652 219.23 249.736C219.137 249.792 219.043 249.82 218.95 249.82C218.791 249.82 218.642 249.75 218.502 249.61C218.259 249.367 217.993 249.19 217.704 249.078C217.415 248.957 217.046 248.896 216.598 248.896C216.103 248.896 215.725 248.975 215.464 249.134C215.203 249.293 215.072 249.517 215.072 249.806C215.072 250.021 215.123 250.193 215.226 250.324C215.338 250.445 215.511 250.557 215.744 250.66C215.987 250.753 216.407 250.898 217.004 251.094C217.676 251.318 218.194 251.533 218.558 251.738C218.931 251.934 219.197 252.153 219.356 252.396C219.524 252.639 219.608 252.937 219.608 253.292C219.608 253.852 219.361 254.3 218.866 254.636C218.381 254.972 217.746 255.14 216.962 255.14ZM225.888 253.614C225.991 253.698 226.042 253.796 226.042 253.908C226.042 254.001 226 254.113 225.916 254.244C225.72 254.515 225.45 254.734 225.104 254.902C224.759 255.061 224.404 255.14 224.04 255.14C223.424 255.14 222.939 254.958 222.584 254.594C222.23 254.23 222.052 253.731 222.052 253.096V248.994H221.296C220.923 248.994 220.736 248.849 220.736 248.56C220.736 248.429 220.783 248.327 220.876 248.252C220.979 248.177 221.119 248.14 221.296 248.14H222.052V245.746C222.052 245.569 222.094 245.433 222.178 245.34C222.272 245.237 222.402 245.186 222.57 245.186C222.729 245.186 222.85 245.237 222.934 245.34C223.028 245.433 223.074 245.569 223.074 245.746V248.14H224.978C225.146 248.14 225.277 248.177 225.37 248.252C225.473 248.317 225.524 248.42 225.524 248.56C225.524 248.849 225.342 248.994 224.978 248.994H223.074V253.18C223.074 253.899 223.41 254.258 224.082 254.258C224.297 254.258 224.493 254.216 224.67 254.132C224.848 254.048 225.025 253.913 225.202 253.726C225.342 253.577 225.478 253.502 225.608 253.502C225.692 253.502 225.786 253.539 225.888 253.614ZM230.413 255.14C229.498 255.14 228.779 254.879 228.257 254.356C227.743 253.833 227.486 253.105 227.486 252.172V248.56C227.486 248.383 227.533 248.247 227.627 248.154C227.72 248.051 227.846 248 228.005 248C228.163 248 228.285 248.051 228.369 248.154C228.462 248.247 228.509 248.383 228.509 248.56V252.172C228.509 252.835 228.686 253.348 229.041 253.712C229.395 254.076 229.89 254.258 230.525 254.258C231.029 254.258 231.477 254.146 231.869 253.922C232.261 253.698 232.564 253.385 232.779 252.984C233.003 252.583 233.115 252.121 233.115 251.598V248.56C233.115 248.383 233.157 248.247 233.241 248.154C233.334 248.051 233.465 248 233.632 248C233.791 248 233.913 248.051 233.997 248.154C234.09 248.247 234.137 248.383 234.137 248.56V254.58C234.137 254.757 234.09 254.897 233.997 255C233.913 255.093 233.791 255.14 233.632 255.14C233.465 255.14 233.334 255.089 233.241 254.986C233.157 254.883 233.115 254.748 233.115 254.58V253.754C232.769 254.202 232.368 254.547 231.911 254.79C231.453 255.023 230.954 255.14 230.413 255.14ZM239.461 255.14C238.304 255.14 237.389 254.827 236.717 254.202C236.054 253.567 235.723 252.704 235.723 251.612C235.723 250.921 235.868 250.305 236.157 249.764C236.456 249.213 236.885 248.784 237.445 248.476C238.014 248.159 238.696 248 239.489 248C240.161 248 240.73 248.126 241.197 248.378C241.673 248.63 242.093 248.98 242.457 249.428L242.471 244.934C242.471 244.757 242.513 244.621 242.597 244.528C242.69 244.425 242.821 244.374 242.989 244.374C243.148 244.374 243.269 244.425 243.353 244.528C243.446 244.621 243.493 244.757 243.493 244.934V254.58C243.493 254.757 243.446 254.897 243.353 255C243.269 255.093 243.148 255.14 242.989 255.14C242.83 255.14 242.704 255.093 242.611 255C242.518 254.897 242.471 254.757 242.471 254.58V253.684C242.144 254.16 241.724 254.524 241.211 254.776C240.707 255.019 240.124 255.14 239.461 255.14ZM239.545 254.258C240.45 254.258 241.164 254.02 241.687 253.544C242.21 253.059 242.471 252.401 242.471 251.57C242.471 251.019 242.336 250.543 242.065 250.142C241.804 249.731 241.449 249.419 241.001 249.204C240.562 248.989 240.082 248.882 239.559 248.882C238.682 248.882 237.996 249.134 237.501 249.638C237.006 250.133 236.759 250.791 236.759 251.612C236.759 252.489 237.002 253.152 237.487 253.6C237.972 254.039 238.658 254.258 239.545 254.258ZM246.195 246.516C245.99 246.516 245.812 246.451 245.663 246.32C245.523 246.18 245.453 246.012 245.453 245.816C245.453 245.62 245.523 245.452 245.663 245.312C245.812 245.172 245.99 245.102 246.195 245.102C246.4 245.102 246.578 245.177 246.727 245.326C246.886 245.466 246.965 245.629 246.965 245.816C246.965 246.003 246.886 246.166 246.727 246.306C246.578 246.446 246.4 246.516 246.195 246.516ZM246.195 255.14C246.036 255.14 245.91 255.093 245.817 255C245.733 254.897 245.691 254.757 245.691 254.58V248.56C245.691 248.383 245.733 248.247 245.817 248.154C245.91 248.051 246.036 248 246.195 248C246.363 248 246.489 248.051 246.573 248.154C246.666 248.247 246.713 248.383 246.713 248.56V254.58C246.713 254.757 246.666 254.897 246.573 255C246.489 255.093 246.363 255.14 246.195 255.14ZM252.425 255.14C251.613 255.14 250.918 254.977 250.339 254.65C249.76 254.323 249.322 253.889 249.023 253.348C248.734 252.797 248.589 252.205 248.589 251.57C248.589 250.935 248.734 250.347 249.023 249.806C249.322 249.255 249.76 248.817 250.339 248.49C250.918 248.163 251.613 248 252.425 248C253.237 248 253.928 248.163 254.497 248.49C255.076 248.817 255.51 249.255 255.799 249.806C256.098 250.347 256.247 250.935 256.247 251.57C256.247 252.205 256.098 252.797 255.799 253.348C255.51 253.889 255.076 254.323 254.497 254.65C253.928 254.977 253.237 255.14 252.425 255.14ZM252.425 254.258C253.265 254.258 253.937 254.02 254.441 253.544C254.954 253.068 255.211 252.41 255.211 251.57C255.211 250.73 254.954 250.072 254.441 249.596C253.937 249.12 253.265 248.882 252.425 248.882C251.576 248.882 250.894 249.12 250.381 249.596C249.877 250.072 249.625 250.73 249.625 251.57C249.625 252.41 249.877 253.068 250.381 253.544C250.894 254.02 251.576 254.258 252.425 254.258ZM260.835 255.14C260.182 255.14 259.566 255.019 258.987 254.776C258.408 254.524 257.951 254.179 257.615 253.74C257.55 253.647 257.517 253.553 257.517 253.46C257.517 253.367 257.54 253.287 257.587 253.222C257.643 253.147 257.713 253.091 257.797 253.054C257.872 253.026 257.932 253.012 257.979 253.012C258.063 253.012 258.133 253.035 258.189 253.082C258.254 253.119 258.329 253.185 258.413 253.278C259.02 253.922 259.827 254.244 260.835 254.244C261.32 254.244 261.712 254.16 262.011 253.992C262.31 253.824 262.459 253.591 262.459 253.292C262.459 253.077 262.398 252.905 262.277 252.774C262.165 252.634 261.969 252.508 261.689 252.396C261.418 252.275 260.97 252.107 260.345 251.892C259.738 251.687 259.262 251.491 258.917 251.304C258.572 251.117 258.315 250.907 258.147 250.674C257.979 250.431 257.895 250.137 257.895 249.792C257.895 249.251 258.128 248.817 258.595 248.49C259.071 248.163 259.701 248 260.485 248C261.064 248 261.6 248.103 262.095 248.308C262.59 248.504 262.963 248.77 263.215 249.106C263.29 249.209 263.327 249.307 263.327 249.4C263.327 249.54 263.252 249.652 263.103 249.736C263.01 249.792 262.916 249.82 262.823 249.82C262.664 249.82 262.515 249.75 262.375 249.61C262.132 249.367 261.866 249.19 261.577 249.078C261.288 248.957 260.919 248.896 260.471 248.896C259.976 248.896 259.598 248.975 259.337 249.134C259.076 249.293 258.945 249.517 258.945 249.806C258.945 250.021 258.996 250.193 259.099 250.324C259.211 250.445 259.384 250.557 259.617 250.66C259.86 250.753 260.28 250.898 260.877 251.094C261.549 251.318 262.067 251.533 262.431 251.738C262.804 251.934 263.07 252.153 263.229 252.396C263.397 252.639 263.481 252.937 263.481 253.292C263.481 253.852 263.234 254.3 262.739 254.636C262.254 254.972 261.619 255.14 260.835 255.14Z" fill="black"/>
</svg>
