<svg width="161" height="121" viewBox="0 0 161 121" fill="none" xmlns="http://www.w3.org/2000/svg">
<path d="M17.128 83.832C17.704 83.832 18.216 83.64 18.728 83.32C28.008 77.368 38.184 67.384 38.184 35.32L38.12 30.264C38.12 27.512 35.752 27.192 33.192 25.272C31.976 24.376 31.016 23.928 30.184 23.928C27.176 23.928 28.712 27.96 19.752 44.216C18.856 45.944 15.464 51.64 12.456 55.032C12.072 52.984 11.432 50.488 11.432 45.176C11.432 36.024 13.352 28.152 13.352 26.552C13.352 24.248 11.624 23.48 9.384 23.48C6.056 23.48 2.664 25.784 2.088 29.112C1.192 33.72 0.808 39.736 0.808 43.96C0.808 60.856 5.096 62.2 13.096 65.08C13.864 65.4 14.632 65.528 15.336 65.528C18.152 65.528 20.008 64.056 25.96 53.432L26.536 53.688C24.424 63.544 21.352 75.128 15.528 83.448C16.104 83.704 16.68 83.832 17.128 83.832ZM34.531 85.176C35.107 85.176 36.323 84.92 37.027 84.28C48.611 73.848 45.219 66.68 49.571 65.464C49.571 65.464 55.907 63.544 68.259 60.088C70.883 70.52 74.595 81.4 88.931 81.4C89.571 81.4 90.211 81.208 90.851 81.08C90.403 79.16 90.403 79.16 88.867 78.264C82.211 74.168 79.779 67.64 78.179 56.44L83.427 54.584C82.467 51.256 79.587 52.088 77.347 51.384C72.547 13.112 77.795 17.72 66.339 13.432L66.019 13.368C62.307 13.944 59.427 15.288 57.699 18.488C41.763 47.672 45.539 59 36.835 59H36.451C35.235 59 33.827 59.896 33.827 61.496C33.827 63.48 35.747 65.464 37.667 67.96C35.043 74.36 33.187 77.304 33.187 83.256C33.187 84.536 33.507 85.176 34.531 85.176ZM52.515 54.264C55.971 45.176 59.363 36.28 63.843 27.832L66.723 51.448L52.515 54.264ZM119.9 82.872C120.347 82.872 120.796 82.68 121.308 82.168C118.364 77.176 114.716 60.28 114.716 46.136C114.716 37.56 115.612 26.616 115.612 24.632C115.612 23.48 115.42 22.392 114.396 21.688C113.244 20.984 108.188 17.72 106.844 17.72C103.9 17.72 101.468 30.2 94.7475 47.16L94.1715 46.968C96.6035 26.68 95.6435 33.784 97.8835 23.864L98.0755 22.52C98.0755 20.536 95.8995 19.896 94.1715 19.896C91.0995 19.896 87.5795 22.008 86.7475 24.824C85.0195 30.776 84.5075 40.056 84.5075 46.264C84.5075 53.816 85.1475 61.304 85.9155 68.792C86.2355 71.672 87.8995 72.568 93.2755 74.68C93.6595 74.808 94.0435 74.872 94.4275 74.872C96.7955 74.872 96.6035 71.736 96.9235 70.52C104.604 42.168 103.58 46.2 104.348 44.152L104.732 44.216C106.012 56.312 105.948 75.384 118.492 82.424C118.94 82.68 119.388 82.872 119.9 82.872ZM136.859 83.96C142.939 83.96 146.075 74.936 150.555 64.44C150.683 64.12 150.747 63.8 150.747 63.48C150.747 61.944 149.339 60.792 148.443 60.792C147.163 60.792 136.987 71.672 133.211 74.424C131.291 69.24 130.395 64.184 130.075 59C130.331 58.744 130.459 58.616 130.587 58.552C136.347 55.8 141.211 51.64 146.395 47.928C147.227 47.352 147.611 46.712 147.611 46.2C147.611 44.984 145.755 44.088 143.835 44.088C142.171 44.088 133.851 45.88 130.075 46.392C130.331 39.864 130.715 33.528 131.803 27.256C132.251 24.696 132.187 24.888 151.451 18.872C155.163 17.72 157.211 17.72 160.731 16.44C160.475 14.776 159.451 14.136 158.171 13.816C155.675 13.304 155.355 13.304 146.907 13.304H146.331C139.035 13.304 133.659 13.368 123.291 17.848C121.883 18.488 121.051 19.32 121.051 20.408C121.051 21.368 121.691 21.944 121.691 23.608C121.691 23.608 119.195 31.544 119.195 49.144C119.195 64.952 120.539 83.96 136.859 83.96Z" fill="black"/>
<path d="M84.0234 111.637C84.0234 111.051 83.8008 110.598 83.3555 110.277C82.918 109.949 82.1484 109.668 81.0469 109.434C79.9531 109.199 79.082 108.918 78.4336 108.59C77.793 108.262 77.3164 107.871 77.0039 107.418C76.6992 106.965 76.5469 106.426 76.5469 105.801C76.5469 104.762 76.9844 103.883 77.8594 103.164C78.7422 102.445 79.8672 102.086 81.2344 102.086C82.6719 102.086 83.8359 102.457 84.7266 103.199C85.625 103.941 86.0742 104.891 86.0742 106.047H83.8945C83.8945 105.453 83.6406 104.941 83.1328 104.512C82.6328 104.082 82 103.867 81.2344 103.867C80.4453 103.867 79.8281 104.039 79.3828 104.383C78.9375 104.727 78.7148 105.176 78.7148 105.73C78.7148 106.254 78.9219 106.648 79.3359 106.914C79.75 107.18 80.4961 107.434 81.5742 107.676C82.6602 107.918 83.5391 108.207 84.2109 108.543C84.8828 108.879 85.3789 109.285 85.6992 109.762C86.0273 110.23 86.1914 110.805 86.1914 111.484C86.1914 112.617 85.7383 113.527 84.832 114.215C83.9258 114.895 82.75 115.234 81.3047 115.234C80.2891 115.234 79.3906 115.055 78.6094 114.695C77.8281 114.336 77.2148 113.836 76.7695 113.195C76.332 112.547 76.1133 111.848 76.1133 111.098H78.2812C78.3203 111.824 78.6094 112.402 79.1484 112.832C79.6953 113.254 80.4141 113.465 81.3047 113.465C82.125 113.465 82.7812 113.301 83.2734 112.973C83.7734 112.637 84.0234 112.191 84.0234 111.637ZM91.957 99.25V102.32H94.3242V103.996H91.957V111.859C91.957 112.367 92.0625 112.75 92.2734 113.008C92.4844 113.258 92.8438 113.383 93.3516 113.383C93.6016 113.383 93.9453 113.336 94.3828 113.242V115C93.8125 115.156 93.2578 115.234 92.7188 115.234C91.75 115.234 91.0195 114.941 90.5273 114.355C90.0352 113.77 89.7891 112.938 89.7891 111.859V103.996H87.4805V102.32H89.7891V99.25H91.957ZM104.695 113.746C103.852 114.738 102.613 115.234 100.98 115.234C99.6289 115.234 98.5977 114.844 97.8867 114.062C97.1836 113.273 96.8281 112.109 96.8203 110.57V102.32H98.9883V110.512C98.9883 112.434 99.7695 113.395 101.332 113.395C102.988 113.395 104.09 112.777 104.637 111.543V102.32H106.805V115H104.742L104.695 113.746ZM109.582 108.555C109.582 106.609 110.043 105.047 110.965 103.867C111.887 102.68 113.094 102.086 114.586 102.086C116.07 102.086 117.246 102.594 118.113 103.609V97H120.281V115H118.289L118.184 113.641C117.316 114.703 116.109 115.234 114.562 115.234C113.094 115.234 111.895 114.633 110.965 113.43C110.043 112.227 109.582 110.656 109.582 108.719V108.555ZM111.75 108.801C111.75 110.238 112.047 111.363 112.641 112.176C113.234 112.988 114.055 113.395 115.102 113.395C116.477 113.395 117.48 112.777 118.113 111.543V105.719C117.465 104.523 116.469 103.926 115.125 103.926C114.062 103.926 113.234 104.336 112.641 105.156C112.047 105.977 111.75 107.191 111.75 108.801ZM126.012 115H123.844V102.32H126.012V115ZM123.668 98.957C123.668 98.6055 123.773 98.3086 123.984 98.0664C124.203 97.8242 124.523 97.7031 124.945 97.7031C125.367 97.7031 125.688 97.8242 125.906 98.0664C126.125 98.3086 126.234 98.6055 126.234 98.957C126.234 99.3086 126.125 99.6016 125.906 99.8359C125.688 100.07 125.367 100.188 124.945 100.188C124.523 100.188 124.203 100.07 123.984 99.8359C123.773 99.6016 123.668 99.3086 123.668 98.957ZM128.918 108.543C128.918 107.301 129.16 106.184 129.645 105.191C130.137 104.199 130.816 103.434 131.684 102.895C132.559 102.355 133.555 102.086 134.672 102.086C136.398 102.086 137.793 102.684 138.855 103.879C139.926 105.074 140.461 106.664 140.461 108.648V108.801C140.461 110.035 140.223 111.145 139.746 112.129C139.277 113.105 138.602 113.867 137.719 114.414C136.844 114.961 135.836 115.234 134.695 115.234C132.977 115.234 131.582 114.637 130.512 113.441C129.449 112.246 128.918 110.664 128.918 108.695V108.543ZM131.098 108.801C131.098 110.207 131.422 111.336 132.07 112.188C132.727 113.039 133.602 113.465 134.695 113.465C135.797 113.465 136.672 113.035 137.32 112.176C137.969 111.309 138.293 110.098 138.293 108.543C138.293 107.152 137.961 106.027 137.297 105.168C136.641 104.301 135.766 103.867 134.672 103.867C133.602 103.867 132.738 104.293 132.082 105.145C131.426 105.996 131.098 107.215 131.098 108.801ZM150.562 111.637C150.562 111.051 150.34 110.598 149.895 110.277C149.457 109.949 148.688 109.668 147.586 109.434C146.492 109.199 145.621 108.918 144.973 108.59C144.332 108.262 143.855 107.871 143.543 107.418C143.238 106.965 143.086 106.426 143.086 105.801C143.086 104.762 143.523 103.883 144.398 103.164C145.281 102.445 146.406 102.086 147.773 102.086C149.211 102.086 150.375 102.457 151.266 103.199C152.164 103.941 152.613 104.891 152.613 106.047H150.434C150.434 105.453 150.18 104.941 149.672 104.512C149.172 104.082 148.539 103.867 147.773 103.867C146.984 103.867 146.367 104.039 145.922 104.383C145.477 104.727 145.254 105.176 145.254 105.73C145.254 106.254 145.461 106.648 145.875 106.914C146.289 107.18 147.035 107.434 148.113 107.676C149.199 107.918 150.078 108.207 150.75 108.543C151.422 108.879 151.918 109.285 152.238 109.762C152.566 110.23 152.73 110.805 152.73 111.484C152.73 112.617 152.277 113.527 151.371 114.215C150.465 114.895 149.289 115.234 147.844 115.234C146.828 115.234 145.93 115.055 145.148 114.695C144.367 114.336 143.754 113.836 143.309 113.195C142.871 112.547 142.652 111.848 142.652 111.098H144.82C144.859 111.824 145.148 112.402 145.688 112.832C146.234 113.254 146.953 113.465 147.844 113.465C148.664 113.465 149.32 113.301 149.812 112.973C150.312 112.637 150.562 112.191 150.562 111.637Z" fill="black"/>
</svg>
