<?xml version="1.0" encoding="UTF-8" standalone="no"?>
<svg
   xmlns:dc="http://purl.org/dc/elements/1.1/"
   xmlns:cc="http://creativecommons.org/ns#"
   xmlns:rdf="http://www.w3.org/1999/02/22-rdf-syntax-ns#"
   xmlns:svg="http://www.w3.org/2000/svg"
   xmlns="http://www.w3.org/2000/svg"
   xmlns:sodipodi="http://sodipodi.sourceforge.net/DTD/sodipodi-0.dtd"
   xmlns:inkscape="http://www.inkscape.org/namespaces/inkscape"
   width="209"
   height="313.28696"
   viewBox="0 0 209 313.28696"
   version="1.1"
   id="svg18"
   sodipodi:docname="logo vertiical.svg"
   style="fill:none"
   inkscape:version="0.92.1 r15371">
  <metadata
     id="metadata24">
    <rdf:RDF>
      <cc:Work
         rdf:about="">
        <dc:format>image/svg+xml</dc:format>
        <dc:type
           rdf:resource="http://purl.org/dc/dcmitype/StillImage" />
        <dc:title></dc:title>
      </cc:Work>
    </rdf:RDF>
  </metadata>
  <defs
     id="defs22" />
  <sodipodi:namedview
     pagecolor="#ffffff"
     bordercolor="#666666"
     borderopacity="1"
     objecttolerance="10"
     gridtolerance="10"
     guidetolerance="10"
     inkscape:pageopacity="0"
     inkscape:pageshadow="2"
     inkscape:window-width="1366"
     inkscape:window-height="685"
     id="namedview20"
     showgrid="false"
     inkscape:zoom="1.1712159"
     inkscape:cx="-25.07395"
     inkscape:cy="104.33656"
     inkscape:window-x="0"
     inkscape:window-y="0"
     inkscape:window-maximized="1"
     inkscape:current-layer="svg18" />
  <path
     style="fill:#ff0707"
     d="M 104.5,0 A 104.5,102 0 0 0 0,102 104.5,102 0 0 0 104.5,204 104.5,102 0 0 0 209,102 104.5,102 0 0 0 180.55273,32.144531 L 109.62305,64.7832 174.16797,26.121094 A 104.5,102 0 0 0 104.5,0 Z"
     id="ellipse4"
     inkscape:connector-curvature="0" />
  <path
     style="fill:#ffffff"
     d="M 105,77.26906 64.89844,163.855 52,144.26906 31.41797,175.52297 a 104.5,102 0 0 0 73.17578,29.31054 104.5,102 0 0 0 87.02539,-45.64843 l -26.39844,-47.91602 -24.16211,43.85547 z"
     id="path6"
     inkscape:connector-curvature="0" />
  <path
     d="m 46.42037,277.88497 c 0.576,0 1.088,-0.192 1.6,-0.512 9.28,-5.952 19.456,-15.936 19.456,-48 l -0.064,-5.056 c 0,-2.752 -2.368,-3.072 -4.928,-4.992 -1.216,-0.896 -2.176,-1.344 -3.008,-1.344 -3.008,0 -1.472,4.032 -10.432,20.288 -0.896,1.728 -4.288,7.424 -7.296,10.816 -0.384,-2.048 -1.024,-4.544 -1.024,-9.856 0,-9.152 1.92,-17.024 1.92,-18.624 0,-2.304 -1.728,-3.072 -3.968,-3.072 -3.328,0 -6.72,2.304 -7.296,5.632 -0.896,4.608 -1.28,10.624 -1.28,14.848 0,16.896 4.288,18.24 12.288,21.12 0.768,0.32 1.536,0.448 2.24,0.448 2.816,0 4.672,-1.472 10.624,-12.096 l 0.576,0.256 c -2.112,9.856 -5.184,21.44 -11.008,29.76 0.576,0.256 1.152,0.384 1.6,0.384 z m 17.403,1.344 c 0.576,0 1.792,-0.256 2.496,-0.896 11.584,-10.432 8.192,-17.6 12.544,-18.816 0,0 6.336,-1.92 18.688,-5.376 2.624,10.432 6.336,21.312 20.672,21.312 0.64,0 1.28,-0.192 1.92,-0.32 -0.448,-1.92 -0.448,-1.92 -1.984,-2.816 -6.656,-4.096 -9.088,-10.624 -10.688,-21.824 l 5.248,-1.856 c -0.96,-3.328 -3.84,-2.496 -6.08,-3.2 -4.8,-38.272 0.448,-33.664 -11.008,-37.952 l -0.32,-0.064 c -3.712,0.576 -6.592,1.92 -8.32,5.12 -15.936,29.184 -12.16,40.512 -20.864,40.512 h -0.384 c -1.216,0 -2.624,0.896 -2.624,2.496 0,1.984 1.92,3.968 3.84,6.464 -2.624,6.4 -4.48,9.344 -4.48,15.296 0,1.28 0.32,1.92 1.344,1.92 z m 17.984,-30.912 c 3.456,-9.088 6.848,-17.984 11.328,-26.432 l 2.88,23.616 z m 67.385,28.608 c 0.447,0 0.896,-0.192 1.408,-0.704 -2.944,-4.992 -6.592,-21.888 -6.592,-36.032 0,-8.576 0.896,-19.52 0.896,-21.504 0,-1.152 -0.192,-2.24 -1.216,-2.944 -1.152,-0.704 -6.208,-3.968 -7.552,-3.968 -2.944,0 -5.376,12.48 -12.096,29.44 l -0.576,-0.192 c 2.432,-20.288 1.472,-13.184 3.712,-23.104 l 0.192,-1.344 c 0,-1.984 -2.176,-2.624 -3.904,-2.624 -3.072,0 -6.592,2.112 -7.424,4.928 -1.728,5.952 -2.24,15.232 -2.24,21.44 0,7.552 0.64,15.04 1.408,22.528 0.32,2.88 1.984,3.776 7.36,5.888 0.384,0.128 0.768,0.192 1.152,0.192 2.368,0 2.176,-3.136 2.496,-4.352 7.68,-28.352 6.656,-24.32 7.424,-26.368 l 0.384,0.064 c 1.28,12.096 1.216,31.168 13.76,38.208 0.448,0.256 0.896,0.448 1.408,0.448 z m 16.959,1.088 c 6.08,0 9.216,-9.024 13.696,-19.52 0.128,-0.32 0.192,-0.64 0.192,-0.96 0,-1.536 -1.408,-2.688 -2.304,-2.688 -1.28,0 -11.456,10.88 -15.232,13.632 -1.92,-5.184 -2.816,-10.24 -3.136,-15.424 0.256,-0.256 0.384,-0.384 0.512,-0.448 5.76,-2.752 10.624,-6.912 15.808,-10.624 0.832,-0.576 1.216,-1.216 1.216,-1.728 0,-1.216 -1.856,-2.112 -3.776,-2.112 -1.664,0 -9.984,1.792 -13.76,2.304 0.256,-6.528 0.64,-12.864 1.728,-19.136 0.448,-2.56 0.384,-2.368 19.648,-8.384 3.712,-1.152 5.76,-1.152 9.28,-2.432 -0.256,-1.664 -1.28,-2.304 -2.56,-2.624 -2.496,-0.512 -2.816,-0.512 -11.264,-0.512 h -0.576 c -7.296,0 -12.672,0.064 -23.04,4.544 -1.408,0.64 -2.24,1.472 -2.24,2.56 0,0.96 0.64,1.536 0.64,3.2 0,0 -2.496,7.936 -2.496,25.536 0,15.808 1.344,34.816 17.664,34.816 z"
     id="path12"
     inkscape:connector-curvature="0"
     style="fill:#062948;fill-opacity:1" />
  <path
     d="m 79.31537,309.68997 c 0,-0.586 -0.222,-1.039 -0.668,-1.36 -0.437,-0.328 -1.207,-0.609 -2.308,-0.843 -1.094,-0.235 -1.965,-0.516 -2.613,-0.844 -0.641,-0.328 -1.118,-0.719 -1.43,-1.172 -0.305,-0.453 -0.457,-0.992 -0.457,-1.617 0,-1.039 0.437,-1.918 1.312,-2.637 0.883,-0.719 2.008,-1.078 3.375,-1.078 1.438,0 2.602,0.371 3.493,1.113 0.898,0.742 1.347,1.692 1.347,2.848 h -2.179 c 0,-0.594 -0.254,-1.106 -0.762,-1.535 -0.5,-0.43 -1.133,-0.645 -1.899,-0.645 -0.789,0 -1.406,0.172 -1.851,0.516 -0.445,0.344 -0.668,0.793 -0.668,1.347 0,0.524 0.207,0.918 0.621,1.184 0.414,0.266 1.16,0.52 2.238,0.762 1.086,0.242 1.965,0.531 2.637,0.867 0.672,0.336 1.168,0.742 1.488,1.219 0.328,0.468 0.492,1.043 0.492,1.722 0,1.133 -0.453,2.043 -1.359,2.731 -0.906,0.68 -2.082,1.019 -3.527,1.019 -1.016,0 -1.914,-0.179 -2.696,-0.539 -0.781,-0.359 -1.394,-0.859 -1.839,-1.5 -0.438,-0.648 -0.657,-1.347 -0.657,-2.097 h 2.168 c 0.039,0.726 0.328,1.304 0.867,1.734 0.547,0.422 1.266,0.633 2.157,0.633 0.82,0 1.476,-0.164 1.968,-0.492 0.5,-0.336 0.75,-0.782 0.75,-1.336 z m 7.934,-12.387 v 3.07 h 2.367 v 1.676 h -2.367 v 7.863 c 0,0.508 0.105,0.891 0.316,1.149 0.211,0.25 0.571,0.375 1.079,0.375 0.25,0 0.593,-0.047 1.031,-0.141 v 1.758 c -0.571,0.156 -1.125,0.234 -1.664,0.234 -0.969,0 -1.699,-0.293 -2.192,-0.879 -0.492,-0.585 -0.738,-1.417 -0.738,-2.496 v -7.863 h -2.309 v -1.676 h 2.309 v -3.07 z m 12.738,14.496 c -0.843,0.992 -2.082,1.488 -3.715,1.488 -1.351,0 -2.382,-0.39 -3.093,-1.172 -0.703,-0.789 -1.059,-1.953 -1.067,-3.492 v -8.25 h 2.168 v 8.192 c 0,1.922 0.782,2.883 2.344,2.883 1.656,0 2.758,-0.618 3.305,-1.852 v -9.223 h 2.168 v 12.68 h -2.063 z m 4.887,-5.191 c 0,-1.946 0.461,-3.508 1.383,-4.688 0.922,-1.187 2.129,-1.781 3.621,-1.781 1.484,0 2.66,0.508 3.527,1.523 v -6.609 h 2.168 v 18 h -1.992 l -0.105,-1.359 c -0.868,1.062 -2.075,1.593 -3.622,1.593 -1.468,0 -2.667,-0.601 -3.597,-1.804 -0.922,-1.203 -1.383,-2.774 -1.383,-4.711 z m 2.168,0.246 c 0,1.437 0.297,2.562 0.891,3.375 0.593,0.812 1.414,1.219 2.461,1.219 1.375,0 2.378,-0.618 3.011,-1.852 v -5.824 c -0.648,-1.196 -1.644,-1.793 -2.988,-1.793 -1.063,0 -1.891,0.41 -2.484,1.23 -0.594,0.821 -0.891,2.035 -0.891,3.645 z m 14.262,6.199 h -2.168 v -12.68 h 2.168 z m -2.344,-16.043 c 0,-0.352 0.105,-0.648 0.316,-0.891 0.219,-0.242 0.539,-0.363 0.961,-0.363 0.422,0 0.743,0.121 0.961,0.363 0.219,0.243 0.328,0.539 0.328,0.891 0,0.352 -0.109,0.645 -0.328,0.879 -0.218,0.234 -0.539,0.352 -0.961,0.352 -0.422,0 -0.742,-0.118 -0.961,-0.352 -0.211,-0.234 -0.316,-0.527 -0.316,-0.879 z m 5.25,9.586 c 0,-1.242 0.242,-2.359 0.727,-3.352 0.492,-0.992 1.171,-1.757 2.039,-2.296 0.875,-0.54 1.871,-0.809 2.988,-0.809 1.726,0 3.121,0.598 4.183,1.793 1.071,1.195 1.606,2.785 1.606,4.769 v 0.153 c 0,1.234 -0.238,2.344 -0.715,3.328 -0.469,0.976 -1.144,1.738 -2.027,2.285 -0.875,0.547 -1.883,0.82 -3.024,0.82 -1.718,0 -3.113,-0.597 -4.183,-1.793 -1.063,-1.195 -1.594,-2.777 -1.594,-4.746 z m 2.18,0.258 c 0,1.406 0.324,2.535 0.972,3.387 0.657,0.851 1.532,1.277 2.625,1.277 1.102,0 1.977,-0.43 2.625,-1.289 0.649,-0.867 0.973,-2.078 0.973,-3.633 0,-1.391 -0.332,-2.516 -0.996,-3.375 -0.656,-0.867 -1.531,-1.301 -2.625,-1.301 -1.07,0 -1.934,0.426 -2.59,1.278 -0.656,0.851 -0.984,2.07 -0.984,3.656 z m 19.464,2.836 c 0,-0.586 -0.222,-1.039 -0.667,-1.36 -0.438,-0.328 -1.207,-0.609 -2.309,-0.843 -1.094,-0.235 -1.965,-0.516 -2.613,-0.844 -0.641,-0.328 -1.118,-0.719 -1.43,-1.172 -0.305,-0.453 -0.457,-0.992 -0.457,-1.617 0,-1.039 0.437,-1.918 1.312,-2.637 0.883,-0.719 2.008,-1.078 3.375,-1.078 1.438,0 2.602,0.371 3.493,1.113 0.898,0.742 1.347,1.692 1.347,2.848 h -2.179 c 0,-0.594 -0.254,-1.106 -0.762,-1.535 -0.5,-0.43 -1.133,-0.645 -1.899,-0.645 -0.789,0 -1.406,0.172 -1.851,0.516 -0.445,0.344 -0.668,0.793 -0.668,1.347 0,0.524 0.207,0.918 0.621,1.184 0.414,0.266 1.16,0.52 2.238,0.762 1.086,0.242 1.965,0.531 2.637,0.867 0.672,0.336 1.168,0.742 1.488,1.219 0.328,0.468 0.492,1.043 0.492,1.722 0,1.133 -0.453,2.043 -1.359,2.731 -0.906,0.68 -2.082,1.019 -3.527,1.019 -1.016,0 -1.914,-0.179 -2.696,-0.539 -0.781,-0.359 -1.394,-0.859 -1.839,-1.5 -0.438,-0.648 -0.657,-1.347 -0.657,-2.097 h 2.168 c 0.039,0.726 0.328,1.304 0.868,1.734 0.546,0.422 1.265,0.633 2.156,0.633 0.82,0 1.476,-0.164 1.968,-0.492 0.5,-0.336 0.75,-0.782 0.75,-1.336 z"
     id="path14"
     inkscape:connector-curvature="0"
     style="fill:#062948;fill-opacity:1" />
</svg>
