<svg width="161" height="127" viewBox="0 0 161 127" fill="none" xmlns="http://www.w3.org/2000/svg">
<path d="M17.128 83.832C17.704 83.832 18.216 83.64 18.728 83.32C28.008 77.368 38.184 67.384 38.184 35.32L38.12 30.264C38.12 27.512 35.752 27.192 33.192 25.272C31.976 24.376 31.016 23.928 30.184 23.928C27.176 23.928 28.712 27.96 19.752 44.216C18.856 45.944 15.464 51.64 12.456 55.032C12.072 52.984 11.432 50.488 11.432 45.176C11.432 36.024 13.352 28.152 13.352 26.552C13.352 24.248 11.624 23.48 9.384 23.48C6.056 23.48 2.664 25.784 2.088 29.112C1.192 33.72 0.808 39.736 0.808 43.96C0.808 60.856 5.096 62.2 13.096 65.08C13.864 65.4 14.632 65.528 15.336 65.528C18.152 65.528 20.008 64.056 25.96 53.432L26.536 53.688C24.424 63.544 21.352 75.128 15.528 83.448C16.104 83.704 16.68 83.832 17.128 83.832ZM34.531 85.176C35.107 85.176 36.323 84.92 37.027 84.28C48.611 73.848 45.219 66.68 49.571 65.464C49.571 65.464 55.907 63.544 68.259 60.088C70.883 70.52 74.595 81.4 88.931 81.4C89.571 81.4 90.211 81.208 90.851 81.08C90.403 79.16 90.403 79.16 88.867 78.264C82.211 74.168 79.779 67.64 78.179 56.44L83.427 54.584C82.467 51.256 79.587 52.088 77.347 51.384C72.547 13.112 77.795 17.72 66.339 13.432L66.019 13.368C62.307 13.944 59.427 15.288 57.699 18.488C41.763 47.672 45.539 59 36.835 59H36.451C35.235 59 33.827 59.896 33.827 61.496C33.827 63.48 35.747 65.464 37.667 67.96C35.043 74.36 33.187 77.304 33.187 83.256C33.187 84.536 33.507 85.176 34.531 85.176ZM52.515 54.264C55.971 45.176 59.363 36.28 63.843 27.832L66.723 51.448L52.515 54.264ZM119.9 82.872C120.347 82.872 120.796 82.68 121.308 82.168C118.364 77.176 114.716 60.28 114.716 46.136C114.716 37.56 115.612 26.616 115.612 24.632C115.612 23.48 115.42 22.392 114.396 21.688C113.244 20.984 108.188 17.72 106.844 17.72C103.9 17.72 101.468 30.2 94.7475 47.16L94.1715 46.968C96.6035 26.68 95.6435 33.784 97.8835 23.864L98.0755 22.52C98.0755 20.536 95.8995 19.896 94.1715 19.896C91.0995 19.896 87.5795 22.008 86.7475 24.824C85.0195 30.776 84.5075 40.056 84.5075 46.264C84.5075 53.816 85.1475 61.304 85.9155 68.792C86.2355 71.672 87.8995 72.568 93.2755 74.68C93.6595 74.808 94.0435 74.872 94.4275 74.872C96.7955 74.872 96.6035 71.736 96.9235 70.52C104.604 42.168 103.58 46.2 104.348 44.152L104.732 44.216C106.012 56.312 105.948 75.384 118.492 82.424C118.94 82.68 119.388 82.872 119.9 82.872ZM136.859 83.96C142.939 83.96 146.075 74.936 150.555 64.44C150.683 64.12 150.747 63.8 150.747 63.48C150.747 61.944 149.339 60.792 148.443 60.792C147.163 60.792 136.987 71.672 133.211 74.424C131.291 69.24 130.395 64.184 130.075 59C130.331 58.744 130.459 58.616 130.587 58.552C136.347 55.8 141.211 51.64 146.395 47.928C147.227 47.352 147.611 46.712 147.611 46.2C147.611 44.984 145.755 44.088 143.835 44.088C142.171 44.088 133.851 45.88 130.075 46.392C130.331 39.864 130.715 33.528 131.803 27.256C132.251 24.696 132.187 24.888 151.451 18.872C155.163 17.72 157.211 17.72 160.731 16.44C160.475 14.776 159.451 14.136 158.171 13.816C155.675 13.304 155.355 13.304 146.907 13.304H146.331C139.035 13.304 133.659 13.368 123.291 17.848C121.883 18.488 121.051 19.32 121.051 20.408C121.051 21.368 121.691 21.944 121.691 23.608C121.691 23.608 119.195 31.544 119.195 49.144C119.195 64.952 120.539 83.96 136.859 83.96Z" fill="#FF0707"/>
<path d="M77.0234 117.637C77.0234 117.051 76.8008 116.598 76.3555 116.277C75.918 115.949 75.1484 115.668 74.0469 115.434C72.9531 115.199 72.082 114.918 71.4336 114.59C70.793 114.262 70.3164 113.871 70.0039 113.418C69.6992 112.965 69.5469 112.426 69.5469 111.801C69.5469 110.762 69.9844 109.883 70.8594 109.164C71.7422 108.445 72.8672 108.086 74.2344 108.086C75.6719 108.086 76.8359 108.457 77.7266 109.199C78.625 109.941 79.0742 110.891 79.0742 112.047H76.8945C76.8945 111.453 76.6406 110.941 76.1328 110.512C75.6328 110.082 75 109.867 74.2344 109.867C73.4453 109.867 72.8281 110.039 72.3828 110.383C71.9375 110.727 71.7148 111.176 71.7148 111.73C71.7148 112.254 71.9219 112.648 72.3359 112.914C72.75 113.18 73.4961 113.434 74.5742 113.676C75.6602 113.918 76.5391 114.207 77.2109 114.543C77.8828 114.879 78.3789 115.285 78.6992 115.762C79.0273 116.23 79.1914 116.805 79.1914 117.484C79.1914 118.617 78.7383 119.527 77.832 120.215C76.9258 120.895 75.75 121.234 74.3047 121.234C73.2891 121.234 72.3906 121.055 71.6094 120.695C70.8281 120.336 70.2148 119.836 69.7695 119.195C69.332 118.547 69.1133 117.848 69.1133 117.098H71.2812C71.3203 117.824 71.6094 118.402 72.1484 118.832C72.6953 119.254 73.4141 119.465 74.3047 119.465C75.125 119.465 75.7812 119.301 76.2734 118.973C76.7734 118.637 77.0234 118.191 77.0234 117.637ZM84.957 105.25V108.32H87.3242V109.996H84.957V117.859C84.957 118.367 85.0625 118.75 85.2734 119.008C85.4844 119.258 85.8438 119.383 86.3516 119.383C86.6016 119.383 86.9453 119.336 87.3828 119.242V121C86.8125 121.156 86.2578 121.234 85.7188 121.234C84.75 121.234 84.0195 120.941 83.5273 120.355C83.0352 119.77 82.7891 118.938 82.7891 117.859V109.996H80.4805V108.32H82.7891V105.25H84.957ZM97.6953 119.746C96.8516 120.738 95.6133 121.234 93.9805 121.234C92.6289 121.234 91.5977 120.844 90.8867 120.062C90.1836 119.273 89.8281 118.109 89.8203 116.57V108.32H91.9883V116.512C91.9883 118.434 92.7695 119.395 94.332 119.395C95.9883 119.395 97.0898 118.777 97.6367 117.543V108.32H99.8047V121H97.7422L97.6953 119.746ZM102.582 114.555C102.582 112.609 103.043 111.047 103.965 109.867C104.887 108.68 106.094 108.086 107.586 108.086C109.07 108.086 110.246 108.594 111.113 109.609V103H113.281V121H111.289L111.184 119.641C110.316 120.703 109.109 121.234 107.562 121.234C106.094 121.234 104.895 120.633 103.965 119.43C103.043 118.227 102.582 116.656 102.582 114.719V114.555ZM104.75 114.801C104.75 116.238 105.047 117.363 105.641 118.176C106.234 118.988 107.055 119.395 108.102 119.395C109.477 119.395 110.48 118.777 111.113 117.543V111.719C110.465 110.523 109.469 109.926 108.125 109.926C107.062 109.926 106.234 110.336 105.641 111.156C105.047 111.977 104.75 113.191 104.75 114.801ZM119.012 121H116.844V108.32H119.012V121ZM116.668 104.957C116.668 104.605 116.773 104.309 116.984 104.066C117.203 103.824 117.523 103.703 117.945 103.703C118.367 103.703 118.688 103.824 118.906 104.066C119.125 104.309 119.234 104.605 119.234 104.957C119.234 105.309 119.125 105.602 118.906 105.836C118.688 106.07 118.367 106.188 117.945 106.188C117.523 106.188 117.203 106.07 116.984 105.836C116.773 105.602 116.668 105.309 116.668 104.957ZM121.918 114.543C121.918 113.301 122.16 112.184 122.645 111.191C123.137 110.199 123.816 109.434 124.684 108.895C125.559 108.355 126.555 108.086 127.672 108.086C129.398 108.086 130.793 108.684 131.855 109.879C132.926 111.074 133.461 112.664 133.461 114.648V114.801C133.461 116.035 133.223 117.145 132.746 118.129C132.277 119.105 131.602 119.867 130.719 120.414C129.844 120.961 128.836 121.234 127.695 121.234C125.977 121.234 124.582 120.637 123.512 119.441C122.449 118.246 121.918 116.664 121.918 114.695V114.543ZM124.098 114.801C124.098 116.207 124.422 117.336 125.07 118.188C125.727 119.039 126.602 119.465 127.695 119.465C128.797 119.465 129.672 119.035 130.32 118.176C130.969 117.309 131.293 116.098 131.293 114.543C131.293 113.152 130.961 112.027 130.297 111.168C129.641 110.301 128.766 109.867 127.672 109.867C126.602 109.867 125.738 110.293 125.082 111.145C124.426 111.996 124.098 113.215 124.098 114.801ZM143.562 117.637C143.562 117.051 143.34 116.598 142.895 116.277C142.457 115.949 141.688 115.668 140.586 115.434C139.492 115.199 138.621 114.918 137.973 114.59C137.332 114.262 136.855 113.871 136.543 113.418C136.238 112.965 136.086 112.426 136.086 111.801C136.086 110.762 136.523 109.883 137.398 109.164C138.281 108.445 139.406 108.086 140.773 108.086C142.211 108.086 143.375 108.457 144.266 109.199C145.164 109.941 145.613 110.891 145.613 112.047H143.434C143.434 111.453 143.18 110.941 142.672 110.512C142.172 110.082 141.539 109.867 140.773 109.867C139.984 109.867 139.367 110.039 138.922 110.383C138.477 110.727 138.254 111.176 138.254 111.73C138.254 112.254 138.461 112.648 138.875 112.914C139.289 113.18 140.035 113.434 141.113 113.676C142.199 113.918 143.078 114.207 143.75 114.543C144.422 114.879 144.918 115.285 145.238 115.762C145.566 116.23 145.73 116.805 145.73 117.484C145.73 118.617 145.277 119.527 144.371 120.215C143.465 120.895 142.289 121.234 140.844 121.234C139.828 121.234 138.93 121.055 138.148 120.695C137.367 120.336 136.754 119.836 136.309 119.195C135.871 118.547 135.652 117.848 135.652 117.098H137.82C137.859 117.824 138.148 118.402 138.688 118.832C139.234 119.254 139.953 119.465 140.844 119.465C141.664 119.465 142.32 119.301 142.812 118.973C143.312 118.637 143.562 118.191 143.562 117.637Z" fill="#FF0707"/>
</svg>
