<svg width="161" height="123" viewBox="0 0 161 123" fill="none" xmlns="http://www.w3.org/2000/svg">
<path d="M17.128 83.832C17.704 83.832 18.216 83.64 18.728 83.32C28.008 77.368 38.184 67.384 38.184 35.32L38.12 30.264C38.12 27.512 35.752 27.192 33.192 25.272C31.976 24.376 31.016 23.928 30.184 23.928C27.176 23.928 28.712 27.96 19.752 44.216C18.856 45.944 15.464 51.64 12.456 55.032C12.072 52.984 11.432 50.488 11.432 45.176C11.432 36.024 13.352 28.152 13.352 26.552C13.352 24.248 11.624 23.48 9.384 23.48C6.056 23.48 2.664 25.784 2.088 29.112C1.192 33.72 0.808 39.736 0.808 43.96C0.808 60.856 5.096 62.2 13.096 65.08C13.864 65.4 14.632 65.528 15.336 65.528C18.152 65.528 20.008 64.056 25.96 53.432L26.536 53.688C24.424 63.544 21.352 75.128 15.528 83.448C16.104 83.704 16.68 83.832 17.128 83.832ZM34.531 85.176C35.107 85.176 36.323 84.92 37.027 84.28C48.611 73.848 45.219 66.68 49.571 65.464C49.571 65.464 55.907 63.544 68.259 60.088C70.883 70.52 74.595 81.4 88.931 81.4C89.571 81.4 90.211 81.208 90.851 81.08C90.403 79.16 90.403 79.16 88.867 78.264C82.211 74.168 79.779 67.64 78.179 56.44L83.427 54.584C82.467 51.256 79.587 52.088 77.347 51.384C72.547 13.112 77.795 17.72 66.339 13.432L66.019 13.368C62.307 13.944 59.427 15.288 57.699 18.488C41.763 47.672 45.539 59 36.835 59H36.451C35.235 59 33.827 59.896 33.827 61.496C33.827 63.48 35.747 65.464 37.667 67.96C35.043 74.36 33.187 77.304 33.187 83.256C33.187 84.536 33.507 85.176 34.531 85.176ZM52.515 54.264C55.971 45.176 59.363 36.28 63.843 27.832L66.723 51.448L52.515 54.264ZM119.9 82.872C120.347 82.872 120.796 82.68 121.308 82.168C118.364 77.176 114.716 60.28 114.716 46.136C114.716 37.56 115.612 26.616 115.612 24.632C115.612 23.48 115.42 22.392 114.396 21.688C113.244 20.984 108.188 17.72 106.844 17.72C103.9 17.72 101.468 30.2 94.7475 47.16L94.1715 46.968C96.6035 26.68 95.6435 33.784 97.8835 23.864L98.0755 22.52C98.0755 20.536 95.8995 19.896 94.1715 19.896C91.0995 19.896 87.5795 22.008 86.7475 24.824C85.0195 30.776 84.5075 40.056 84.5075 46.264C84.5075 53.816 85.1475 61.304 85.9155 68.792C86.2355 71.672 87.8995 72.568 93.2755 74.68C93.6595 74.808 94.0435 74.872 94.4275 74.872C96.7955 74.872 96.6035 71.736 96.9235 70.52C104.604 42.168 103.58 46.2 104.348 44.152L104.732 44.216C106.012 56.312 105.948 75.384 118.492 82.424C118.94 82.68 119.388 82.872 119.9 82.872ZM136.859 83.96C142.939 83.96 146.075 74.936 150.555 64.44C150.683 64.12 150.747 63.8 150.747 63.48C150.747 61.944 149.339 60.792 148.443 60.792C147.163 60.792 136.987 71.672 133.211 74.424C131.291 69.24 130.395 64.184 130.075 59C130.331 58.744 130.459 58.616 130.587 58.552C136.347 55.8 141.211 51.64 146.395 47.928C147.227 47.352 147.611 46.712 147.611 46.2C147.611 44.984 145.755 44.088 143.835 44.088C142.171 44.088 133.851 45.88 130.075 46.392C130.331 39.864 130.715 33.528 131.803 27.256C132.251 24.696 132.187 24.888 151.451 18.872C155.163 17.72 157.211 17.72 160.731 16.44C160.475 14.776 159.451 14.136 158.171 13.816C155.675 13.304 155.355 13.304 146.907 13.304H146.331C139.035 13.304 133.659 13.368 123.291 17.848C121.883 18.488 121.051 19.32 121.051 20.408C121.051 21.368 121.691 21.944 121.691 23.608C121.691 23.608 119.195 31.544 119.195 49.144C119.195 64.952 120.539 83.96 136.859 83.96Z" fill="#062948"/>
<path d="M81.0234 113.637C81.0234 113.051 80.8008 112.598 80.3555 112.277C79.918 111.949 79.1484 111.668 78.0469 111.434C76.9531 111.199 76.082 110.918 75.4336 110.59C74.793 110.262 74.3164 109.871 74.0039 109.418C73.6992 108.965 73.5469 108.426 73.5469 107.801C73.5469 106.762 73.9844 105.883 74.8594 105.164C75.7422 104.445 76.8672 104.086 78.2344 104.086C79.6719 104.086 80.8359 104.457 81.7266 105.199C82.625 105.941 83.0742 106.891 83.0742 108.047H80.8945C80.8945 107.453 80.6406 106.941 80.1328 106.512C79.6328 106.082 79 105.867 78.2344 105.867C77.4453 105.867 76.8281 106.039 76.3828 106.383C75.9375 106.727 75.7148 107.176 75.7148 107.73C75.7148 108.254 75.9219 108.648 76.3359 108.914C76.75 109.18 77.4961 109.434 78.5742 109.676C79.6602 109.918 80.5391 110.207 81.2109 110.543C81.8828 110.879 82.3789 111.285 82.6992 111.762C83.0273 112.23 83.1914 112.805 83.1914 113.484C83.1914 114.617 82.7383 115.527 81.832 116.215C80.9258 116.895 79.75 117.234 78.3047 117.234C77.2891 117.234 76.3906 117.055 75.6094 116.695C74.8281 116.336 74.2148 115.836 73.7695 115.195C73.332 114.547 73.1133 113.848 73.1133 113.098H75.2812C75.3203 113.824 75.6094 114.402 76.1484 114.832C76.6953 115.254 77.4141 115.465 78.3047 115.465C79.125 115.465 79.7812 115.301 80.2734 114.973C80.7734 114.637 81.0234 114.191 81.0234 113.637ZM88.957 101.25V104.32H91.3242V105.996H88.957V113.859C88.957 114.367 89.0625 114.75 89.2734 115.008C89.4844 115.258 89.8438 115.383 90.3516 115.383C90.6016 115.383 90.9453 115.336 91.3828 115.242V117C90.8125 117.156 90.2578 117.234 89.7188 117.234C88.75 117.234 88.0195 116.941 87.5273 116.355C87.0352 115.77 86.7891 114.938 86.7891 113.859V105.996H84.4805V104.32H86.7891V101.25H88.957ZM101.695 115.746C100.852 116.738 99.6133 117.234 97.9805 117.234C96.6289 117.234 95.5977 116.844 94.8867 116.062C94.1836 115.273 93.8281 114.109 93.8203 112.57V104.32H95.9883V112.512C95.9883 114.434 96.7695 115.395 98.332 115.395C99.9883 115.395 101.09 114.777 101.637 113.543V104.32H103.805V117H101.742L101.695 115.746ZM106.582 110.555C106.582 108.609 107.043 107.047 107.965 105.867C108.887 104.68 110.094 104.086 111.586 104.086C113.07 104.086 114.246 104.594 115.113 105.609V99H117.281V117H115.289L115.184 115.641C114.316 116.703 113.109 117.234 111.562 117.234C110.094 117.234 108.895 116.633 107.965 115.43C107.043 114.227 106.582 112.656 106.582 110.719V110.555ZM108.75 110.801C108.75 112.238 109.047 113.363 109.641 114.176C110.234 114.988 111.055 115.395 112.102 115.395C113.477 115.395 114.48 114.777 115.113 113.543V107.719C114.465 106.523 113.469 105.926 112.125 105.926C111.062 105.926 110.234 106.336 109.641 107.156C109.047 107.977 108.75 109.191 108.75 110.801ZM123.012 117H120.844V104.32H123.012V117ZM120.668 100.957C120.668 100.605 120.773 100.309 120.984 100.066C121.203 99.8242 121.523 99.7031 121.945 99.7031C122.367 99.7031 122.688 99.8242 122.906 100.066C123.125 100.309 123.234 100.605 123.234 100.957C123.234 101.309 123.125 101.602 122.906 101.836C122.688 102.07 122.367 102.188 121.945 102.188C121.523 102.188 121.203 102.07 120.984 101.836C120.773 101.602 120.668 101.309 120.668 100.957ZM125.918 110.543C125.918 109.301 126.16 108.184 126.645 107.191C127.137 106.199 127.816 105.434 128.684 104.895C129.559 104.355 130.555 104.086 131.672 104.086C133.398 104.086 134.793 104.684 135.855 105.879C136.926 107.074 137.461 108.664 137.461 110.648V110.801C137.461 112.035 137.223 113.145 136.746 114.129C136.277 115.105 135.602 115.867 134.719 116.414C133.844 116.961 132.836 117.234 131.695 117.234C129.977 117.234 128.582 116.637 127.512 115.441C126.449 114.246 125.918 112.664 125.918 110.695V110.543ZM128.098 110.801C128.098 112.207 128.422 113.336 129.07 114.188C129.727 115.039 130.602 115.465 131.695 115.465C132.797 115.465 133.672 115.035 134.32 114.176C134.969 113.309 135.293 112.098 135.293 110.543C135.293 109.152 134.961 108.027 134.297 107.168C133.641 106.301 132.766 105.867 131.672 105.867C130.602 105.867 129.738 106.293 129.082 107.145C128.426 107.996 128.098 109.215 128.098 110.801ZM147.562 113.637C147.562 113.051 147.34 112.598 146.895 112.277C146.457 111.949 145.688 111.668 144.586 111.434C143.492 111.199 142.621 110.918 141.973 110.59C141.332 110.262 140.855 109.871 140.543 109.418C140.238 108.965 140.086 108.426 140.086 107.801C140.086 106.762 140.523 105.883 141.398 105.164C142.281 104.445 143.406 104.086 144.773 104.086C146.211 104.086 147.375 104.457 148.266 105.199C149.164 105.941 149.613 106.891 149.613 108.047H147.434C147.434 107.453 147.18 106.941 146.672 106.512C146.172 106.082 145.539 105.867 144.773 105.867C143.984 105.867 143.367 106.039 142.922 106.383C142.477 106.727 142.254 107.176 142.254 107.73C142.254 108.254 142.461 108.648 142.875 108.914C143.289 109.18 144.035 109.434 145.113 109.676C146.199 109.918 147.078 110.207 147.75 110.543C148.422 110.879 148.918 111.285 149.238 111.762C149.566 112.23 149.73 112.805 149.73 113.484C149.73 114.617 149.277 115.527 148.371 116.215C147.465 116.895 146.289 117.234 144.844 117.234C143.828 117.234 142.93 117.055 142.148 116.695C141.367 116.336 140.754 115.836 140.309 115.195C139.871 114.547 139.652 113.848 139.652 113.098H141.82C141.859 113.824 142.148 114.402 142.688 114.832C143.234 115.254 143.953 115.465 144.844 115.465C145.664 115.465 146.32 115.301 146.812 114.973C147.312 114.637 147.562 114.191 147.562 113.637Z" fill="#062948"/>
</svg>
