<svg width="326" height="270" viewBox="0 0 326 270" fill="none" xmlns="http://www.w3.org/2000/svg">
<rect width="326" height="270" fill="white"/>
<circle cx="158.5" cy="121.5" r="63.5" fill="#E3D552"/>
<rect x="54" y="130" width="225" height="88" fill="white"/>
<path d="M119.328 137.781C119.328 138.438 119.125 139.641 118.719 141.391C118.312 143.109 117.797 145.125 117.172 147.438C116.547 149.719 115.844 152.156 115.062 154.75C114.281 157.312 113.516 159.781 112.766 162.156C112.016 164.5 111.328 166.594 110.703 168.438C110.078 170.281 109.609 171.625 109.297 172.469C109.641 175.25 109.875 178.016 110 180.766C110.125 183.516 110.266 186.281 110.422 189.062C110.578 191.406 110.719 193.766 110.844 196.141C111 198.516 111.078 200.875 111.078 203.219C111.078 203.938 110.891 204.5 110.516 204.906C110.172 205.281 109.641 205.469 108.922 205.469C108.641 205.469 108.266 205.422 107.797 205.328C107.328 205.266 106.844 205.156 106.344 205C105.875 204.875 105.422 204.719 104.984 204.531C104.578 204.344 104.297 204.156 104.141 203.969C103.766 203.531 103.531 203.125 103.438 202.75C103.344 202.344 103.297 201.875 103.297 201.344C103.297 196.5 103.25 191.688 103.156 186.906C103.062 182.125 103.016 177.312 103.016 172.469L102.641 172.094C102.453 171.812 102.234 171.422 101.984 170.922C101.766 170.391 101.531 169.844 101.281 169.281C101.062 168.719 100.859 168.172 100.672 167.641C100.484 167.109 100.328 166.688 100.203 166.375C99.1719 163.5 98.2031 160.625 97.2969 157.75C96.3906 154.875 95.4219 152 94.3906 149.125C94.2344 148.625 93.9844 147.953 93.6406 147.109C93.2969 146.234 92.9531 145.328 92.6094 144.391C92.2656 143.453 91.9688 142.578 91.7188 141.766C91.4375 140.922 91.2969 140.281 91.2969 139.844C91.2969 139.5 91.3906 139.219 91.5781 139C91.7656 138.781 92 138.625 92.2812 138.531C92.5625 138.406 92.8594 138.328 93.1719 138.297C93.4844 138.266 93.7656 138.25 94.0156 138.25C94.8281 138.25 95.5781 138.297 96.2656 138.391C96.9844 138.453 97.7031 138.719 98.4219 139.188C98.6094 139.312 98.9062 139.891 99.3125 140.922C99.7188 141.953 100.172 143.234 100.672 144.766C101.172 146.297 101.688 147.953 102.219 149.734C102.781 151.516 103.297 153.234 103.766 154.891C104.234 156.547 104.656 158.016 105.031 159.297C105.406 160.578 105.672 161.469 105.828 161.969C106.859 157.969 107.891 154 108.922 150.062C109.984 146.125 110.891 142.125 111.641 138.062C111.703 137.688 111.766 137.281 111.828 136.844C111.922 136.375 112.031 135.953 112.156 135.578C112.312 135.203 112.531 134.891 112.812 134.641C113.094 134.359 113.484 134.219 113.984 134.219C114.391 134.219 114.891 134.312 115.484 134.5C116.109 134.688 116.703 134.953 117.266 135.297C117.828 135.609 118.312 135.984 118.719 136.422C119.125 136.828 119.328 137.281 119.328 137.781ZM154.812 179.219C154.812 179.875 154.578 180.562 154.109 181.281C153.641 182 153.125 182.531 152.562 182.875C152.406 182.969 152.141 183.062 151.766 183.156C151.391 183.25 150.984 183.344 150.547 183.438C150.141 183.5 149.734 183.578 149.328 183.672C148.953 183.734 148.656 183.781 148.438 183.812L149.562 190.75C149.906 192.906 150.156 195.078 150.312 197.266C150.5 199.422 150.906 201.562 151.531 203.688C151.594 203.875 151.656 204.047 151.719 204.203C151.781 204.359 151.812 204.562 151.812 204.812C151.812 205.219 151.688 205.531 151.438 205.75C151.219 205.969 150.938 206.125 150.594 206.219C150.281 206.344 149.938 206.422 149.562 206.453C149.188 206.484 148.844 206.5 148.531 206.5H147.875C146.906 206.5 146.156 206.422 145.625 206.266C145.125 206.109 144.734 205.844 144.453 205.469C144.172 205.094 143.984 204.625 143.891 204.062C143.797 203.469 143.688 202.75 143.562 201.906C142.812 196.188 141.969 190.469 141.031 184.75C139.094 185 137.141 185.234 135.172 185.453C133.234 185.672 131.281 185.875 129.312 186.062L127.812 195.25C127.75 195.812 127.656 196.578 127.531 197.547C127.438 198.516 127.312 199.516 127.156 200.547C127.031 201.547 126.875 202.484 126.688 203.359C126.531 204.234 126.344 204.875 126.125 205.281C125.938 205.656 125.766 205.922 125.609 206.078C125.453 206.234 125.156 206.312 124.719 206.312C124.156 206.312 123.594 206.203 123.031 205.984C122.5 205.797 122.016 205.516 121.578 205.141C121.172 204.797 120.844 204.375 120.594 203.875C120.344 203.375 120.219 202.812 120.219 202.188C120.219 201.562 120.281 200.938 120.406 200.312C120.562 199.688 120.688 199.062 120.781 198.438C121.125 196.375 121.438 194.328 121.719 192.297C122 190.234 122.312 188.188 122.656 186.156C122.438 186.125 122.188 186.078 121.906 186.016C121.625 185.922 121.344 185.812 121.062 185.688C120.812 185.562 120.594 185.406 120.406 185.219C120.219 185.031 120.125 184.812 120.125 184.562C120.125 184.25 120.234 183.969 120.453 183.719C120.703 183.438 120.984 183.188 121.297 182.969C121.641 182.719 121.984 182.516 122.328 182.359C122.672 182.172 122.969 182.031 123.219 181.938C123.875 177.562 124.5 173.203 125.094 168.859C125.688 164.516 126.219 160.125 126.688 155.688C126.812 154.5 126.922 153.297 127.016 152.078C127.109 150.859 127.203 149.641 127.297 148.422C127.422 147.203 127.562 146 127.719 144.812C127.906 143.625 128.156 142.438 128.469 141.25C128.75 140.125 129.219 139.219 129.875 138.531C130.531 137.844 131.5 137.5 132.781 137.5C133.156 137.5 133.516 137.531 133.859 137.594C134.234 137.656 134.562 137.781 134.844 137.969C135.656 138.375 136.5 139.484 137.375 141.297C138.25 143.109 139.125 145.312 140 147.906C140.875 150.469 141.703 153.25 142.484 156.25C143.297 159.25 144.031 162.156 144.688 164.969C145.344 167.781 145.906 170.328 146.375 172.609C146.844 174.859 147.188 176.531 147.406 177.625C148.062 177.531 148.719 177.453 149.375 177.391C150.031 177.297 150.688 177.25 151.344 177.25C151.656 177.25 152.016 177.266 152.422 177.297C152.828 177.328 153.203 177.422 153.547 177.578C153.922 177.703 154.219 177.906 154.438 178.188C154.688 178.438 154.812 178.781 154.812 179.219ZM140.094 178.844C139.281 174.406 138.391 170.016 137.422 165.672C136.484 161.297 135.375 156.938 134.094 152.594C133.531 157.312 132.922 162 132.266 166.656C131.609 171.312 130.906 175.969 130.156 180.625C131.844 180.375 133.5 180.109 135.125 179.828C136.781 179.516 138.438 179.188 140.094 178.844ZM186.125 201.156C186.125 201.719 186.062 202.281 185.938 202.844C185.844 203.375 185.656 203.859 185.375 204.297C185.125 204.703 184.781 205.031 184.344 205.281C183.906 205.531 183.344 205.656 182.656 205.656C181.812 205.656 181.125 205.469 180.594 205.094C180.094 204.75 179.625 204.25 179.188 203.594C178.594 202.75 178.062 201.781 177.594 200.688C177.125 199.562 176.703 198.422 176.328 197.266C175.953 196.078 175.594 194.906 175.25 193.75C174.938 192.562 174.625 191.469 174.312 190.469C172.625 185.219 171.047 179.984 169.578 174.766C168.141 169.547 166.594 164.312 164.938 159.062C164.781 165.844 164.656 172.594 164.562 179.312C164.5 186.031 164.469 192.781 164.469 199.562C164.469 199.906 164.453 200.297 164.422 200.734C164.391 201.172 164.312 201.594 164.188 202C164.062 202.375 163.859 202.703 163.578 202.984C163.328 203.266 162.969 203.406 162.5 203.406C160.906 203.406 159.688 202.984 158.844 202.141C158.031 201.266 157.625 200.031 157.625 198.438C157.625 189.656 157.641 180.953 157.672 172.328C157.703 163.703 157.719 155.031 157.719 146.312V139.656C157.719 138.938 157.844 138.344 158.094 137.875C158.375 137.375 158.969 137.125 159.875 137.125C160.5 137.125 161.141 137.219 161.797 137.406C162.453 137.562 163.031 137.812 163.531 138.156C164.062 138.5 164.484 138.953 164.797 139.516C165.141 140.047 165.312 140.688 165.312 141.438C166.625 143.938 167.719 146.516 168.594 149.172C169.5 151.828 170.375 154.5 171.219 157.188C172.438 161.094 173.641 165 174.828 168.906C176.016 172.812 177.219 176.75 178.438 180.719C178.25 174.812 178.047 168.922 177.828 163.047C177.641 157.141 177.25 151.25 176.656 145.375C176.5 144.094 176.312 142.844 176.094 141.625C175.906 140.406 175.812 139.156 175.812 137.875C175.812 137.219 176.031 136.781 176.469 136.562C176.906 136.312 177.406 136.188 177.969 136.188C178.938 136.188 179.766 136.266 180.453 136.422C181.141 136.578 181.719 136.844 182.188 137.219C182.656 137.594 183.016 138.109 183.266 138.766C183.516 139.391 183.719 140.188 183.875 141.156C184.062 142.844 184.203 144.547 184.297 146.266C184.422 147.953 184.531 149.625 184.625 151.281C184.906 155.469 185.109 159.625 185.234 163.75C185.359 167.875 185.469 172.031 185.562 176.219C185.656 180.375 185.766 184.531 185.891 188.688C186.047 192.812 186.125 196.969 186.125 201.156ZM226.344 194.781C226.344 195.312 226.125 195.828 225.688 196.328C225.281 196.828 224.781 197.312 224.188 197.781C223.594 198.25 222.984 198.688 222.359 199.094C221.734 199.469 221.219 199.781 220.812 200.031C219.75 200.719 218.688 201.359 217.625 201.953C216.594 202.547 215.516 203.062 214.391 203.5C213.297 203.938 212.156 204.281 210.969 204.531C209.812 204.781 208.594 204.906 207.312 204.906L206.562 205C205.531 205 204.5 204.891 203.469 204.672C202.469 204.422 201.531 204.062 200.656 203.594C199.781 203.094 199 202.469 198.312 201.719C197.625 200.969 197.094 200.062 196.719 199C196.438 198.156 196.219 197.156 196.062 196C195.906 194.844 195.781 193.641 195.688 192.391C195.625 191.141 195.562 189.922 195.5 188.734C195.469 187.516 195.438 186.438 195.406 185.5C194.938 175.938 194.562 166.375 194.281 156.812C194.219 155.719 194.172 154.625 194.141 153.531C194.109 152.438 194.094 151.344 194.094 150.25C194.094 148.375 194.203 146.781 194.422 145.469C194.641 144.156 195.078 143.078 195.734 142.234C196.391 141.391 197.328 140.781 198.547 140.406C199.797 140.031 201.438 139.844 203.469 139.844C205.5 139.844 207.531 139.859 209.562 139.891C211.625 139.922 213.688 139.938 215.75 139.938C216.375 139.938 217 139.922 217.625 139.891C218.25 139.828 218.875 139.875 219.5 140.031C219.875 140.094 220.203 140.203 220.484 140.359C220.766 140.484 220.906 140.781 220.906 141.25C220.906 142.375 220.531 143.219 219.781 143.781C219.031 144.312 218.141 144.672 217.109 144.859C216.078 145.047 215 145.141 213.875 145.141C212.781 145.109 211.875 145.094 211.156 145.094H205.062C204.438 145.094 203.812 145.094 203.188 145.094C202.562 145.094 201.938 145.125 201.312 145.188C201.125 145.656 201 146.141 200.938 146.641C200.875 147.141 200.844 147.656 200.844 148.188C200.844 151.594 200.922 154.953 201.078 158.266C201.266 161.578 201.438 164.938 201.594 168.344C203.531 168.188 205.453 168 207.359 167.781C209.266 167.562 211.188 167.312 213.125 167.031C213.406 167.031 213.656 167.016 213.875 166.984C214.125 166.953 214.375 166.938 214.625 166.938C215.281 166.938 215.734 167.109 215.984 167.453C216.266 167.797 216.406 168.281 216.406 168.906C216.406 169.344 216.375 169.75 216.312 170.125C216.281 170.5 216.188 170.875 216.031 171.25C215.812 171.875 215.453 172.328 214.953 172.609C214.453 172.891 213.891 173.094 213.266 173.219C212.641 173.312 211.984 173.359 211.297 173.359C210.641 173.359 210.062 173.375 209.562 173.406C208.25 173.469 206.953 173.516 205.672 173.547C204.422 173.578 203.156 173.625 201.875 173.688C201.906 174.344 201.953 175.328 202.016 176.641C202.078 177.953 202.141 179.438 202.203 181.094C202.297 182.719 202.391 184.406 202.484 186.156C202.609 187.906 202.734 189.562 202.859 191.125C202.984 192.656 203.125 194 203.281 195.156C203.438 196.312 203.594 197.094 203.75 197.5C204.094 198.156 204.484 198.594 204.922 198.812C205.359 199 205.938 199.094 206.656 199.094C207.812 199.094 209.031 198.875 210.312 198.438C211.594 197.969 212.844 197.391 214.062 196.703C215.281 195.984 216.438 195.203 217.531 194.359C218.656 193.516 219.625 192.688 220.438 191.875C220.781 191.594 221.125 191.312 221.469 191.031C221.812 190.719 222.219 190.562 222.688 190.562C223.156 190.562 223.609 190.703 224.047 190.984C224.484 191.266 224.875 191.625 225.219 192.062C225.562 192.469 225.828 192.922 226.016 193.422C226.234 193.922 226.344 194.375 226.344 194.781Z" fill="black"/>
<path d="M137.803 220.115C137.803 220.256 137.75 220.373 137.645 220.467C137.551 220.561 137.434 220.643 137.293 220.713C137.152 220.771 137.006 220.812 136.854 220.836C136.713 220.859 136.596 220.871 136.502 220.871C136.361 220.871 136.227 220.859 136.098 220.836C135.969 220.801 135.84 220.766 135.711 220.73C135.582 220.695 135.459 220.666 135.342 220.643C135.225 220.607 135.102 220.59 134.973 220.59C134.797 220.59 134.621 220.619 134.445 220.678C134.27 220.736 134.111 220.818 133.971 220.924C133.83 221.029 133.713 221.158 133.619 221.311C133.537 221.463 133.496 221.633 133.496 221.82C133.496 222.102 133.555 222.383 133.672 222.664C133.789 222.934 133.941 223.209 134.129 223.49C134.328 223.771 134.551 224.059 134.797 224.352C135.055 224.633 135.324 224.92 135.605 225.213C135.945 225.588 136.285 225.969 136.625 226.355C136.977 226.742 137.287 227.146 137.557 227.568C137.838 227.99 138.066 228.436 138.242 228.904C138.418 229.373 138.506 229.865 138.506 230.381C138.506 230.826 138.43 231.225 138.277 231.576C138.137 231.928 137.932 232.227 137.662 232.473C137.404 232.719 137.088 232.906 136.713 233.035C136.35 233.176 135.951 233.246 135.518 233.246C135.4 233.246 135.219 233.223 134.973 233.176C134.738 233.129 134.469 233.064 134.164 232.982C133.859 232.889 133.543 232.789 133.215 232.684C132.898 232.578 132.605 232.467 132.336 232.35C132.078 232.221 131.861 232.098 131.686 231.98C131.521 231.852 131.439 231.734 131.439 231.629C131.439 231.488 131.504 231.348 131.633 231.207C131.762 231.055 131.914 230.92 132.09 230.803C132.266 230.674 132.447 230.568 132.635 230.486C132.834 230.404 132.998 230.363 133.127 230.363C133.303 230.363 133.484 230.404 133.672 230.486C133.871 230.568 134.07 230.662 134.27 230.768C134.492 230.885 134.715 230.99 134.938 231.084C135.172 231.178 135.412 231.225 135.658 231.225C135.846 231.225 135.951 231.16 135.975 231.031C136.01 230.902 136.027 230.756 136.027 230.592C136.027 230.182 135.957 229.795 135.816 229.432C135.676 229.057 135.494 228.693 135.271 228.342C135.049 227.99 134.791 227.65 134.498 227.322C134.205 226.982 133.912 226.648 133.619 226.32C133.314 225.992 133.016 225.664 132.723 225.336C132.441 225.008 132.189 224.674 131.967 224.334C131.744 223.982 131.562 223.625 131.422 223.262C131.293 222.898 131.229 222.512 131.229 222.102C131.229 221.598 131.34 221.146 131.562 220.748C131.785 220.338 132.072 219.986 132.424 219.693C132.787 219.4 133.191 219.178 133.637 219.025C134.094 218.861 134.551 218.779 135.008 218.779C135.16 218.779 135.395 218.814 135.711 218.885C136.027 218.943 136.338 219.031 136.643 219.148C136.947 219.266 137.217 219.406 137.451 219.57C137.686 219.734 137.803 219.916 137.803 220.115ZM143.27 232.561C143.27 232.689 143.24 232.801 143.182 232.895C143.123 232.977 143.047 233.041 142.953 233.088C142.871 233.135 142.777 233.164 142.672 233.176C142.578 233.199 142.484 233.211 142.391 233.211C142.262 233.211 142.109 233.193 141.934 233.158C141.77 233.135 141.605 233.094 141.441 233.035C141.277 232.977 141.125 232.906 140.984 232.824C140.855 232.73 140.756 232.619 140.686 232.49C140.615 232.373 140.551 232.156 140.492 231.84C140.445 231.512 140.404 231.137 140.369 230.715C140.334 230.281 140.305 229.824 140.281 229.344C140.258 228.852 140.234 228.383 140.211 227.938C140.199 227.492 140.188 227.094 140.176 226.742C140.176 226.379 140.176 226.109 140.176 225.934C140.176 225.113 140.188 224.322 140.211 223.561C140.246 222.787 140.281 221.996 140.316 221.188C140.258 221.188 140.199 221.193 140.141 221.205C140.082 221.217 140.023 221.223 139.965 221.223C139.812 221.246 139.654 221.264 139.49 221.275C139.338 221.287 139.18 221.293 139.016 221.293C138.816 221.293 138.641 221.258 138.488 221.188C138.336 221.117 138.26 220.959 138.26 220.713C138.26 220.42 138.324 220.186 138.453 220.01C138.582 219.834 138.746 219.699 138.945 219.605C139.145 219.5 139.361 219.43 139.596 219.395C139.83 219.348 140.059 219.312 140.281 219.289C140.316 219.289 140.34 219.289 140.352 219.289C140.363 219.277 140.387 219.271 140.422 219.271C140.434 219.131 140.445 218.961 140.457 218.762C140.469 218.551 140.48 218.322 140.492 218.076C140.504 217.689 140.521 217.279 140.545 216.846C140.568 216.4 140.592 215.979 140.615 215.58C140.639 215.17 140.668 214.812 140.703 214.508C140.738 214.191 140.773 213.969 140.809 213.84C140.867 213.688 140.932 213.564 141.002 213.471C141.084 213.377 141.23 213.33 141.441 213.33C141.91 213.33 142.273 213.482 142.531 213.787C142.789 214.092 142.918 214.467 142.918 214.912C142.918 215.428 142.9 215.943 142.865 216.459C142.842 216.975 142.818 217.496 142.795 218.023L142.742 218.92C143.035 218.885 143.328 218.832 143.621 218.762C143.902 218.703 144.184 218.65 144.465 218.604C144.758 218.557 145.039 218.533 145.309 218.533C145.543 218.533 145.725 218.598 145.854 218.727C145.982 218.844 146.047 219.02 146.047 219.254C146.047 219.512 146 219.764 145.906 220.01C145.812 220.256 145.648 220.443 145.414 220.572H145.432C145.385 220.596 145.244 220.631 145.01 220.678C144.775 220.713 144.506 220.748 144.201 220.783C143.908 220.818 143.615 220.854 143.322 220.889C143.041 220.924 142.83 220.947 142.689 220.959H142.672C142.648 221.615 142.631 222.266 142.619 222.91C142.607 223.543 142.602 224.188 142.602 224.844C142.602 225.746 142.625 226.707 142.672 227.727C142.73 228.734 142.824 229.695 142.953 230.609L143.094 231.4C143.141 231.6 143.182 231.799 143.217 231.998C143.252 232.186 143.27 232.373 143.27 232.561ZM153.816 221.398C153.816 221.516 153.805 221.639 153.781 221.768C153.758 221.896 153.734 222.014 153.711 222.119C153.688 222.248 153.664 222.371 153.641 222.488C153.617 222.594 153.605 222.699 153.605 222.805C153.605 223.895 153.623 224.99 153.658 226.092C153.705 227.182 153.822 228.277 154.01 229.379C154.068 229.801 154.139 230.211 154.221 230.609C154.303 231.008 154.396 231.412 154.502 231.822L154.537 231.928V231.893C154.572 231.975 154.602 232.062 154.625 232.156C154.66 232.238 154.678 232.326 154.678 232.42C154.678 232.549 154.643 232.654 154.572 232.736C154.514 232.818 154.438 232.883 154.344 232.93C154.25 232.977 154.145 233.006 154.027 233.018C153.922 233.029 153.822 233.035 153.729 233.035C153.342 233.035 153.031 232.994 152.797 232.912C152.574 232.818 152.393 232.695 152.252 232.543C152.111 232.379 152.006 232.186 151.936 231.963C151.877 231.74 151.824 231.494 151.777 231.225L151.725 230.908C151.678 230.744 151.648 230.568 151.637 230.381C151.625 230.287 151.613 230.246 151.602 230.258C151.602 230.258 151.596 230.211 151.584 230.117C151.42 230.41 151.227 230.727 151.004 231.066C150.793 231.395 150.547 231.705 150.266 231.998C149.996 232.279 149.703 232.52 149.387 232.719C149.07 232.906 148.73 233 148.367 233C147.863 233 147.471 232.848 147.189 232.543C146.92 232.238 146.721 231.869 146.592 231.436C146.463 230.99 146.387 230.533 146.363 230.064C146.34 229.584 146.328 229.168 146.328 228.816C146.328 227.48 146.369 226.156 146.451 224.844C146.545 223.531 146.645 222.213 146.75 220.889C146.75 220.854 146.75 220.807 146.75 220.748C146.762 220.689 146.768 220.643 146.768 220.607C146.779 220.443 146.791 220.291 146.803 220.15C146.814 220.01 146.844 219.875 146.891 219.746V219.764C146.938 219.576 147.002 219.441 147.084 219.359C147.178 219.277 147.318 219.236 147.506 219.236C147.682 219.236 147.857 219.271 148.033 219.342C148.209 219.4 148.367 219.488 148.508 219.605C148.648 219.711 148.76 219.84 148.842 219.992C148.936 220.145 148.982 220.314 148.982 220.502C148.982 220.596 148.982 220.707 148.982 220.836C148.982 220.965 148.977 221.076 148.965 221.17C148.965 221.252 148.959 221.357 148.947 221.486C148.947 221.604 148.947 221.703 148.947 221.785C148.854 222.91 148.783 224.029 148.736 225.143C148.689 226.244 148.666 227.363 148.666 228.5C148.666 228.816 148.666 229.133 148.666 229.449C148.678 229.766 148.713 230.082 148.771 230.398C149.158 229.906 149.492 229.279 149.773 228.518C150.055 227.744 150.289 226.93 150.477 226.074C150.676 225.207 150.834 224.352 150.951 223.508C151.08 222.652 151.174 221.896 151.232 221.24C151.232 221.205 151.232 221.164 151.232 221.117C151.244 221.07 151.25 221.029 151.25 220.994C151.262 220.865 151.273 220.742 151.285 220.625C151.297 220.508 151.338 220.396 151.408 220.291C151.408 220.186 151.414 220.074 151.426 219.957C151.438 219.84 151.467 219.734 151.514 219.641C151.561 219.535 151.625 219.453 151.707 219.395C151.801 219.336 151.93 219.307 152.094 219.307C152.562 219.307 152.932 219.453 153.201 219.746C153.471 220.027 153.617 220.391 153.641 220.836C153.699 220.93 153.74 221.023 153.764 221.117C153.799 221.199 153.816 221.293 153.816 221.398ZM163.695 232.455C163.695 232.584 163.666 232.695 163.607 232.789C163.549 232.871 163.473 232.941 163.379 233C163.297 233.047 163.203 233.082 163.098 233.105C163.004 233.129 162.91 233.141 162.816 233.141C162.676 233.141 162.523 233.123 162.359 233.088C162.195 233.053 162.031 233.006 161.867 232.947C161.703 232.877 161.551 232.795 161.41 232.701C161.281 232.596 161.182 232.479 161.111 232.35C161.041 232.221 160.988 232.062 160.953 231.875C160.93 231.676 160.906 231.477 160.883 231.277C160.766 231.559 160.625 231.834 160.461 232.104C160.309 232.373 160.121 232.613 159.898 232.824C159.676 233.023 159.424 233.182 159.143 233.299C158.873 233.428 158.568 233.492 158.229 233.492C157.631 233.492 157.145 233.352 156.77 233.07C156.406 232.789 156.119 232.438 155.908 232.016C155.709 231.582 155.574 231.113 155.504 230.609C155.445 230.094 155.416 229.602 155.416 229.133C155.416 228.746 155.434 228.307 155.469 227.814C155.504 227.322 155.551 226.818 155.609 226.303C155.668 225.787 155.738 225.289 155.82 224.809C155.902 224.316 155.99 223.883 156.084 223.508C156.201 223.074 156.342 222.6 156.506 222.084C156.682 221.557 156.898 221.07 157.156 220.625C157.426 220.168 157.754 219.781 158.141 219.465C158.527 219.148 158.99 218.973 159.529 218.938C159.494 217.988 159.441 217.115 159.371 216.318C159.312 215.51 159.248 214.684 159.178 213.84L159.002 211.889L158.932 211.186C158.908 210.998 158.891 210.811 158.879 210.623C158.867 210.424 158.861 210.23 158.861 210.043C158.861 209.773 158.932 209.586 159.072 209.48C159.225 209.375 159.418 209.322 159.652 209.322C160.168 209.322 160.561 209.398 160.83 209.551C161.1 209.703 161.287 209.908 161.393 210.166C161.51 210.424 161.574 210.729 161.586 211.08C161.598 211.42 161.604 211.789 161.604 212.188C161.604 212.445 161.633 212.738 161.691 213.066L161.779 213.717L161.92 215.51C161.943 215.791 161.967 216.072 161.99 216.354C162.014 216.635 162.037 216.916 162.061 217.197L162.43 220.977L163.133 228.043L163.186 228.693C163.232 229.174 163.273 229.672 163.309 230.188C163.355 230.703 163.438 231.213 163.555 231.717C163.59 231.846 163.619 231.969 163.643 232.086C163.678 232.203 163.695 232.326 163.695 232.455ZM159.6 222.172C159.6 222.043 159.594 221.902 159.582 221.75C159.582 221.586 159.582 221.434 159.582 221.293V220.818C159.5 220.936 159.395 221.1 159.266 221.311C159.137 221.51 159.037 221.691 158.967 221.855C158.779 222.266 158.609 222.793 158.457 223.438C158.305 224.07 158.17 224.738 158.053 225.441C157.947 226.133 157.865 226.812 157.807 227.48C157.748 228.137 157.719 228.688 157.719 229.133C157.719 229.297 157.719 229.484 157.719 229.695C157.73 229.906 157.754 230.123 157.789 230.346C157.824 230.557 157.877 230.762 157.947 230.961C158.018 231.16 158.111 231.324 158.229 231.453C158.404 231.23 158.562 230.891 158.703 230.434C158.844 229.965 158.961 229.438 159.055 228.852C159.16 228.254 159.248 227.627 159.318 226.971C159.389 226.314 159.441 225.682 159.477 225.072C159.523 224.451 159.553 223.889 159.564 223.385C159.588 222.869 159.6 222.465 159.6 222.172ZM167.176 218.217C167.176 218.416 167.129 218.562 167.035 218.656C166.953 218.738 166.795 218.779 166.561 218.779C166.455 218.779 166.291 218.768 166.068 218.744C165.846 218.709 165.617 218.662 165.383 218.604C165.16 218.545 164.961 218.463 164.785 218.357C164.621 218.252 164.539 218.123 164.539 217.971C164.539 217.924 164.557 217.795 164.592 217.584C164.627 217.361 164.668 217.127 164.715 216.881C164.773 216.635 164.82 216.412 164.855 216.213C164.902 216.014 164.938 215.902 164.961 215.879V215.896C165.02 215.803 165.09 215.744 165.172 215.721C165.254 215.697 165.336 215.686 165.418 215.686C165.523 215.686 165.658 215.703 165.822 215.738C165.998 215.762 166.168 215.803 166.332 215.861C166.508 215.908 166.666 215.973 166.807 216.055C166.947 216.137 167.035 216.225 167.07 216.318C167.105 216.412 167.123 216.541 167.123 216.705C167.135 216.857 167.135 216.998 167.123 217.127C167.123 217.174 167.117 217.232 167.105 217.303C167.105 217.361 167.105 217.408 167.105 217.443C167.105 217.502 167.105 217.561 167.105 217.619C167.117 217.678 167.129 217.736 167.141 217.795C167.152 217.854 167.158 217.918 167.158 217.988C167.17 218.059 167.176 218.135 167.176 218.217ZM167.826 232.227C167.826 232.496 167.762 232.689 167.633 232.807C167.516 232.912 167.322 232.965 167.053 232.965C166.912 232.965 166.754 232.947 166.578 232.912C166.414 232.877 166.25 232.83 166.086 232.771C165.922 232.701 165.77 232.619 165.629 232.525C165.488 232.432 165.383 232.326 165.312 232.209C165.266 232.139 165.225 231.922 165.189 231.559C165.154 231.195 165.125 230.744 165.102 230.205C165.09 229.666 165.072 229.062 165.049 228.395C165.037 227.727 165.025 227.053 165.014 226.373C165.014 225.693 165.014 225.031 165.014 224.387C165.014 223.742 165.014 223.18 165.014 222.699V221.346C165.014 221.229 165.014 221.111 165.014 220.994C165.025 220.877 165.049 220.777 165.084 220.695C165.131 220.602 165.195 220.525 165.277 220.467C165.371 220.408 165.5 220.379 165.664 220.379C166.18 220.379 166.555 220.525 166.789 220.818C167.035 221.1 167.188 221.48 167.246 221.961C167.305 222.676 167.346 223.391 167.369 224.105C167.404 224.809 167.434 225.523 167.457 226.25C167.48 226.906 167.498 227.557 167.51 228.201C167.533 228.834 167.574 229.467 167.633 230.1C167.645 230.229 167.656 230.352 167.668 230.469C167.68 230.586 167.697 230.703 167.721 230.82C167.744 231.055 167.768 231.289 167.791 231.523C167.814 231.746 167.826 231.98 167.826 232.227ZM177.055 225.793C177.055 226.812 176.967 227.832 176.791 228.852C176.627 229.859 176.281 230.814 175.754 231.717C175.59 231.986 175.402 232.25 175.191 232.508C174.98 232.754 174.746 232.977 174.488 233.176C174.242 233.387 173.967 233.551 173.662 233.668C173.369 233.797 173.059 233.861 172.73 233.861C172.215 233.861 171.764 233.738 171.377 233.492C171.002 233.258 170.674 232.947 170.393 232.561C170.123 232.162 169.895 231.717 169.707 231.225C169.531 230.721 169.391 230.211 169.285 229.695C169.191 229.168 169.121 228.658 169.074 228.166C169.039 227.674 169.021 227.24 169.021 226.865C169.021 226.443 169.039 225.98 169.074 225.477C169.109 224.973 169.168 224.457 169.25 223.93C169.344 223.402 169.461 222.881 169.602 222.365C169.754 221.85 169.947 221.369 170.182 220.924C170.416 220.467 170.697 220.062 171.025 219.711C171.354 219.348 171.734 219.061 172.168 218.85V218.867C172.543 218.668 172.918 218.568 173.293 218.568C173.527 218.568 173.709 218.621 173.838 218.727C173.967 218.82 174.025 218.984 174.014 219.219C174.658 219.336 175.18 219.646 175.578 220.15C175.977 220.654 176.281 221.24 176.492 221.908C176.715 222.576 176.861 223.262 176.932 223.965C177.014 224.668 177.055 225.277 177.055 225.793ZM173.082 221.398C172.883 221.398 172.695 221.322 172.52 221.17C172.297 221.51 172.109 221.902 171.957 222.348C171.805 222.781 171.682 223.232 171.588 223.701C171.506 224.158 171.447 224.621 171.412 225.09C171.377 225.559 171.359 225.998 171.359 226.408C171.359 226.748 171.377 227.188 171.412 227.727C171.447 228.254 171.512 228.787 171.605 229.326C171.711 229.865 171.852 230.369 172.027 230.838C172.215 231.307 172.455 231.652 172.748 231.875C173.111 231.664 173.41 231.33 173.645 230.873C173.891 230.404 174.084 229.895 174.225 229.344C174.365 228.793 174.459 228.236 174.506 227.674C174.564 227.111 174.594 226.631 174.594 226.232C174.594 225.939 174.576 225.559 174.541 225.09C174.506 224.621 174.447 224.146 174.365 223.666C174.283 223.174 174.166 222.717 174.014 222.295C173.873 221.873 173.691 221.557 173.469 221.346C173.363 221.381 173.234 221.398 173.082 221.398ZM184.279 220.115C184.279 220.256 184.227 220.373 184.121 220.467C184.027 220.561 183.91 220.643 183.77 220.713C183.629 220.771 183.482 220.812 183.33 220.836C183.189 220.859 183.072 220.871 182.979 220.871C182.838 220.871 182.703 220.859 182.574 220.836C182.445 220.801 182.316 220.766 182.188 220.73C182.059 220.695 181.936 220.666 181.818 220.643C181.701 220.607 181.578 220.59 181.449 220.59C181.273 220.59 181.098 220.619 180.922 220.678C180.746 220.736 180.588 220.818 180.447 220.924C180.307 221.029 180.189 221.158 180.096 221.311C180.014 221.463 179.973 221.633 179.973 221.82C179.973 222.102 180.031 222.383 180.148 222.664C180.266 222.934 180.418 223.209 180.605 223.49C180.805 223.771 181.027 224.059 181.273 224.352C181.531 224.633 181.801 224.92 182.082 225.213C182.422 225.588 182.762 225.969 183.102 226.355C183.453 226.742 183.764 227.146 184.033 227.568C184.314 227.99 184.543 228.436 184.719 228.904C184.895 229.373 184.982 229.865 184.982 230.381C184.982 230.826 184.906 231.225 184.754 231.576C184.613 231.928 184.408 232.227 184.139 232.473C183.881 232.719 183.564 232.906 183.189 233.035C182.826 233.176 182.428 233.246 181.994 233.246C181.877 233.246 181.695 233.223 181.449 233.176C181.215 233.129 180.945 233.064 180.641 232.982C180.336 232.889 180.02 232.789 179.691 232.684C179.375 232.578 179.082 232.467 178.812 232.35C178.555 232.221 178.338 232.098 178.162 231.98C177.998 231.852 177.916 231.734 177.916 231.629C177.916 231.488 177.98 231.348 178.109 231.207C178.238 231.055 178.391 230.92 178.566 230.803C178.742 230.674 178.924 230.568 179.111 230.486C179.311 230.404 179.475 230.363 179.604 230.363C179.779 230.363 179.961 230.404 180.148 230.486C180.348 230.568 180.547 230.662 180.746 230.768C180.969 230.885 181.191 230.99 181.414 231.084C181.648 231.178 181.889 231.225 182.135 231.225C182.322 231.225 182.428 231.16 182.451 231.031C182.486 230.902 182.504 230.756 182.504 230.592C182.504 230.182 182.434 229.795 182.293 229.432C182.152 229.057 181.971 228.693 181.748 228.342C181.525 227.99 181.268 227.65 180.975 227.322C180.682 226.982 180.389 226.648 180.096 226.32C179.791 225.992 179.492 225.664 179.199 225.336C178.918 225.008 178.666 224.674 178.443 224.334C178.221 223.982 178.039 223.625 177.898 223.262C177.77 222.898 177.705 222.512 177.705 222.102C177.705 221.598 177.816 221.146 178.039 220.748C178.262 220.338 178.549 219.986 178.9 219.693C179.264 219.4 179.668 219.178 180.113 219.025C180.57 218.861 181.027 218.779 181.484 218.779C181.637 218.779 181.871 218.814 182.188 218.885C182.504 218.943 182.814 219.031 183.119 219.148C183.424 219.266 183.693 219.406 183.928 219.57C184.162 219.734 184.279 219.916 184.279 220.115Z" fill="black"/>
</svg>
