<svg width="162" height="123" viewBox="0 0 162 123" fill="none" xmlns="http://www.w3.org/2000/svg">
<path d="M17.128 83.832C17.704 83.832 18.216 83.64 18.728 83.32C28.008 77.368 38.184 67.384 38.184 35.32L38.12 30.264C38.12 27.512 35.752 27.192 33.192 25.272C31.976 24.376 31.016 23.928 30.184 23.928C27.176 23.928 28.712 27.96 19.752 44.216C18.856 45.944 15.464 51.64 12.456 55.032C12.072 52.984 11.432 50.488 11.432 45.176C11.432 36.024 13.352 28.152 13.352 26.552C13.352 24.248 11.624 23.48 9.384 23.48C6.056 23.48 2.664 25.784 2.088 29.112C1.192 33.72 0.808 39.736 0.808 43.96C0.808 60.856 5.096 62.2 13.096 65.08C13.864 65.4 14.632 65.528 15.336 65.528C18.152 65.528 20.008 64.056 25.96 53.432L26.536 53.688C24.424 63.544 21.352 75.128 15.528 83.448C16.104 83.704 16.68 83.832 17.128 83.832ZM34.531 85.176C35.107 85.176 36.323 84.92 37.027 84.28C48.611 73.848 45.219 66.68 49.571 65.464C49.571 65.464 55.907 63.544 68.259 60.088C70.883 70.52 74.595 81.4 88.931 81.4C89.571 81.4 90.211 81.208 90.851 81.08C90.403 79.16 90.403 79.16 88.867 78.264C82.211 74.168 79.779 67.64 78.179 56.44L83.427 54.584C82.467 51.256 79.587 52.088 77.347 51.384C72.547 13.112 77.795 17.72 66.339 13.432L66.019 13.368C62.307 13.944 59.427 15.288 57.699 18.488C41.763 47.672 45.539 59 36.835 59H36.451C35.235 59 33.827 59.896 33.827 61.496C33.827 63.48 35.747 65.464 37.667 67.96C35.043 74.36 33.187 77.304 33.187 83.256C33.187 84.536 33.507 85.176 34.531 85.176ZM52.515 54.264C55.971 45.176 59.363 36.28 63.843 27.832L66.723 51.448L52.515 54.264ZM119.9 82.872C120.347 82.872 120.796 82.68 121.308 82.168C118.364 77.176 114.716 60.28 114.716 46.136C114.716 37.56 115.612 26.616 115.612 24.632C115.612 23.48 115.42 22.392 114.396 21.688C113.244 20.984 108.188 17.72 106.844 17.72C103.9 17.72 101.468 30.2 94.7475 47.16L94.1715 46.968C96.6035 26.68 95.6435 33.784 97.8835 23.864L98.0755 22.52C98.0755 20.536 95.8995 19.896 94.1715 19.896C91.0995 19.896 87.5795 22.008 86.7475 24.824C85.0195 30.776 84.5075 40.056 84.5075 46.264C84.5075 53.816 85.1475 61.304 85.9155 68.792C86.2355 71.672 87.8995 72.568 93.2755 74.68C93.6595 74.808 94.0435 74.872 94.4275 74.872C96.7955 74.872 96.6035 71.736 96.9235 70.52C104.604 42.168 103.58 46.2 104.348 44.152L104.732 44.216C106.012 56.312 105.948 75.384 118.492 82.424C118.94 82.68 119.388 82.872 119.9 82.872ZM136.859 83.96C142.939 83.96 146.075 74.936 150.555 64.44C150.683 64.12 150.747 63.8 150.747 63.48C150.747 61.944 149.339 60.792 148.443 60.792C147.163 60.792 136.987 71.672 133.211 74.424C131.291 69.24 130.395 64.184 130.075 59C130.331 58.744 130.459 58.616 130.587 58.552C136.347 55.8 141.211 51.64 146.395 47.928C147.227 47.352 147.611 46.712 147.611 46.2C147.611 44.984 145.755 44.088 143.835 44.088C142.171 44.088 133.851 45.88 130.075 46.392C130.331 39.864 130.715 33.528 131.803 27.256C132.251 24.696 132.187 24.888 151.451 18.872C155.163 17.72 157.211 17.72 160.731 16.44C160.475 14.776 159.451 14.136 158.171 13.816C155.675 13.304 155.355 13.304 146.907 13.304H146.331C139.035 13.304 133.659 13.368 123.291 17.848C121.883 18.488 121.051 19.32 121.051 20.408C121.051 21.368 121.691 21.944 121.691 23.608C121.691 23.608 119.195 31.544 119.195 49.144C119.195 64.952 120.539 83.96 136.859 83.96Z" fill="white"/>
<path d="M18.728 83.32L18.887 83.5744L18.89 83.5725L18.728 83.32ZM38.184 35.32H38.484L38.484 35.3162L38.184 35.32ZM38.12 30.264H37.82L37.82 30.2678L38.12 30.264ZM33.192 25.272L33.372 25.032L33.37 25.0305L33.192 25.272ZM19.752 44.216L19.4892 44.0711L19.4857 44.0779L19.752 44.216ZM12.456 55.032L12.1611 55.0873L12.274 55.6894L12.6805 55.231L12.456 55.032ZM2.088 29.112L2.38255 29.1693L2.38361 29.1632L2.088 29.112ZM13.096 65.08L13.2114 64.8031L13.2046 64.8002L13.1976 64.7977L13.096 65.08ZM25.96 53.432L26.0818 53.1579L25.8319 53.0468L25.6983 53.2854L25.96 53.432ZM26.536 53.688L26.8293 53.7509L26.8804 53.5128L26.6578 53.4139L26.536 53.688ZM15.528 83.448L15.2822 83.276L15.0734 83.5743L15.4062 83.7221L15.528 83.448ZM17.128 84.132C17.7766 84.132 18.3434 83.9141 18.887 83.5744L18.569 83.0656C18.0886 83.3659 17.6314 83.532 17.128 83.532V84.132ZM18.89 83.5725C23.5574 80.5789 28.4671 76.5592 32.2031 69.2485C35.9357 61.9447 38.484 51.3815 38.484 35.32H37.884C37.884 51.3225 35.3443 61.7833 31.6689 68.9755C27.9969 76.1608 23.1786 80.1091 18.566 83.0675L18.89 83.5725ZM38.484 35.3162L38.42 30.2602L37.82 30.2678L37.884 35.3238L38.484 35.3162ZM38.42 30.264C38.42 29.5301 38.2613 28.9403 37.9688 28.4413C37.6783 27.9456 37.267 27.5589 36.7926 27.2135C36.3217 26.8706 35.7693 26.5554 35.1943 26.2165C34.6139 25.8745 33.998 25.5015 33.372 25.032L33.012 25.512C33.666 26.0025 34.3061 26.3895 34.8897 26.7335C35.4787 27.0806 35.9983 27.3774 36.4394 27.6985C36.877 28.0171 37.2177 28.3464 37.4512 28.7447C37.6827 29.1397 37.82 29.6219 37.82 30.264H38.42ZM33.37 25.0305C32.1444 24.1274 31.1176 23.628 30.184 23.628V24.228C30.9144 24.228 31.8076 24.6246 33.014 25.5135L33.37 25.0305ZM30.184 23.628C29.7742 23.628 29.4165 23.6968 29.0973 23.8689C28.7782 24.041 28.5228 24.3026 28.295 24.6462C27.8513 25.3154 27.4679 26.3703 26.9183 27.8729C25.8092 30.905 23.9592 35.9615 19.4893 44.0712L20.0147 44.3608C24.5048 36.2145 26.3668 31.127 27.4817 28.0791C28.0441 26.5417 28.4007 25.5726 28.795 24.9778C28.9862 24.6894 29.1743 24.509 29.382 24.3971C29.5895 24.2852 29.8418 24.228 30.184 24.228V23.628ZM19.4857 44.0779C18.5954 45.7948 15.2166 51.4668 12.2315 54.833L12.6805 55.231C15.7114 51.8132 19.1166 46.0932 20.0183 44.3541L19.4857 44.0779ZM12.7509 54.9767C12.3666 52.9271 11.732 50.4566 11.732 45.176H11.132C11.132 50.5194 11.7774 53.0409 12.1611 55.0873L12.7509 54.9767ZM11.732 45.176C11.732 40.62 12.21 36.3796 12.6889 33.075C12.9284 31.4224 13.1678 30.0061 13.3481 28.8982C13.526 27.8051 13.652 26.9826 13.652 26.552H13.052C13.052 26.9214 12.938 27.6829 12.7559 28.8018C12.5762 29.9059 12.3356 31.3296 12.0951 32.989C11.614 36.3083 11.132 40.58 11.132 45.176H11.732ZM13.652 26.552C13.652 25.3129 13.1804 24.4457 12.3757 23.9032C11.5916 23.3747 10.5291 23.18 9.384 23.18V23.78C10.4789 23.78 11.4004 23.9693 12.0403 24.4007C12.6596 24.8183 13.052 25.4871 13.052 26.552H13.652ZM9.384 23.18C5.94309 23.18 2.39852 25.5588 1.79239 29.0608L2.38361 29.1632C2.92948 26.0092 6.16891 23.78 9.384 23.78V23.18ZM1.79352 29.0547C0.892694 33.6875 0.508 39.7239 0.508 43.96H1.108C1.108 39.7481 1.49131 33.7525 2.38248 29.1693L1.79352 29.0547ZM0.508 43.96C0.508 52.416 1.57706 57.0627 3.7106 59.9541C5.847 62.8494 9.0179 63.9307 12.9944 65.3623L13.1976 64.7977C9.1741 63.3493 6.201 62.3186 4.1934 59.5979C2.18294 56.8733 1.108 52.4 1.108 43.96H0.508ZM12.9806 65.3569C13.7882 65.6934 14.5958 65.828 15.336 65.828V65.228C14.6682 65.228 13.9398 65.1066 13.2114 64.8031L12.9806 65.3569ZM15.336 65.828C16.0685 65.828 16.7584 65.7319 17.472 65.4047C18.1824 65.079 18.8956 64.5338 19.6928 63.6671C21.2798 61.9417 23.2472 58.888 26.2217 53.5786L25.6983 53.2854C22.7208 58.6 20.7842 61.5943 19.2512 63.2609C18.4884 64.0902 17.8376 64.577 17.222 64.8593C16.6096 65.1401 16.0115 65.228 15.336 65.228V65.828ZM25.8382 53.7061L26.4142 53.9621L26.6578 53.4139L26.0818 53.1579L25.8382 53.7061ZM26.2427 53.6251C24.1306 63.4816 21.0679 75.0108 15.2822 83.276L15.7738 83.62C21.6361 75.2452 24.7174 63.6064 26.8293 53.7509L26.2427 53.6251ZM15.4062 83.7221C16.0119 83.9914 16.6295 84.132 17.128 84.132V83.532C16.7305 83.532 16.1961 83.4166 15.6498 83.1739L15.4062 83.7221ZM37.027 84.28L36.8262 84.0571L36.8252 84.058L37.027 84.28ZM49.571 65.464L49.6518 65.753L49.658 65.7511L49.571 65.464ZM68.259 60.088L68.5499 60.0148L68.4748 59.7161L68.1782 59.7991L68.259 60.088ZM90.851 81.08L90.9098 81.3742L91.2135 81.3134L91.1432 81.0118L90.851 81.08ZM88.867 78.264L88.7097 78.5196L88.7158 78.5231L88.867 78.264ZM78.179 56.44L78.079 56.1572L77.8473 56.2391L77.882 56.4824L78.179 56.44ZM83.427 54.584L83.527 54.8668L83.7936 54.7725L83.7152 54.5009L83.427 54.584ZM77.347 51.384L77.0493 51.4213L77.0733 51.6124L77.2571 51.6702L77.347 51.384ZM66.339 13.432L66.4442 13.151L66.4215 13.1426L66.3978 13.1378L66.339 13.432ZM66.019 13.368L66.0778 13.0738L66.0256 13.0634L65.973 13.0715L66.019 13.368ZM57.699 18.488L57.9623 18.6318L57.963 18.6305L57.699 18.488ZM37.667 67.96L37.9446 68.0738L38.0101 67.914L37.9048 67.7771L37.667 67.96ZM52.515 54.264L52.2346 54.1574L52.0421 54.6636L52.5733 54.5583L52.515 54.264ZM63.843 27.832L64.1408 27.7957L64.0252 26.848L63.578 27.6914L63.843 27.832ZM66.723 51.448L66.7813 51.7423L67.0545 51.6881L67.0208 51.4117L66.723 51.448ZM34.531 85.476C34.8542 85.476 35.3324 85.4058 35.8199 85.2545C36.3064 85.1035 36.8321 84.8626 37.2288 84.502L36.8252 84.058C36.5179 84.3374 36.0836 84.5445 35.6421 84.6815C35.2016 84.8182 34.7838 84.876 34.531 84.876V85.476ZM37.2278 84.5029C43.0628 79.2482 45.1361 74.8031 46.294 71.5157C46.5814 70.6996 46.8135 69.9517 47.0289 69.2947C47.2461 68.6327 47.4464 68.0628 47.6753 67.5781C48.126 66.6235 48.6729 66.0264 49.6517 65.7529L49.4903 65.1751C48.2931 65.5096 47.632 66.2645 47.1327 67.3219C46.8866 67.8432 46.6764 68.4443 46.4588 69.1078C46.2395 69.7763 46.0126 70.5084 45.728 71.3163C44.5979 74.5249 42.5752 78.8798 36.8262 84.0571L37.2278 84.5029ZM49.571 65.464C49.658 65.7511 49.658 65.7511 49.6581 65.7511C49.6581 65.7511 49.6582 65.7511 49.6583 65.751C49.6585 65.751 49.6587 65.7509 49.6591 65.7508C49.6599 65.7505 49.661 65.7502 49.6625 65.7497C49.6656 65.7488 49.6702 65.7474 49.6764 65.7456C49.6887 65.7418 49.7072 65.7362 49.7318 65.7288C49.7811 65.7139 49.8551 65.6917 49.9536 65.6621C50.1508 65.6029 50.4463 65.5145 50.8395 65.3976C51.626 65.1637 52.8035 64.8159 54.367 64.36C57.4939 63.4483 62.1649 62.1046 68.3398 60.3769L68.1782 59.7991C62.0011 61.5274 57.3281 62.8717 54.199 63.784C52.6345 64.2401 51.456 64.5883 50.6685 64.8224C50.2747 64.9395 49.9787 65.0281 49.7811 65.0874C49.6823 65.1171 49.6081 65.1394 49.5585 65.1544C49.5338 65.1618 49.5152 65.1675 49.5027 65.1712C49.4965 65.1731 49.4919 65.1745 49.4887 65.1755C49.4872 65.1759 49.486 65.1763 49.4852 65.1765C49.4848 65.1766 49.4845 65.1767 49.4843 65.1768C49.4842 65.1768 49.4841 65.1769 49.4841 65.1769C49.484 65.1769 49.484 65.1769 49.571 65.464ZM67.9681 60.1612C69.2796 65.3753 70.8749 70.759 73.9639 74.8371C77.0697 78.9375 81.6709 81.7 88.931 81.7V81.1C81.8551 81.1 77.4323 78.4225 74.4421 74.4749C71.4351 70.505 69.8624 65.2327 68.5499 60.0148L67.9681 60.1612ZM88.931 81.7C89.6106 81.7 90.3087 81.4944 90.9098 81.3742L90.7922 80.7858C90.1133 80.9216 89.5314 81.1 88.931 81.1V81.7ZM91.1432 81.0118C91.0321 80.5358 90.9455 80.1642 90.8548 79.8681C90.7633 79.5692 90.6619 79.3276 90.5122 79.1152C90.2178 78.6973 89.7626 78.4391 89.0182 78.0049L88.7158 78.5231C89.5074 78.9849 89.8202 79.1747 90.0218 79.4608C90.1201 79.6004 90.1987 79.7748 90.2812 80.0439C90.3645 80.3158 90.4459 80.6642 90.5588 81.1482L91.1432 81.0118ZM89.0242 78.0085C82.4907 73.9878 80.074 67.5835 78.476 56.3976L77.882 56.4824C79.484 67.6965 81.9313 74.3482 88.7098 78.5195L89.0242 78.0085ZM78.279 56.7228L83.527 54.8668L83.327 54.3012L78.079 56.1572L78.279 56.7228ZM83.7152 54.5009C83.4628 53.6256 83.0771 53.002 82.5891 52.5573C82.1024 52.1137 81.5334 51.8658 80.9437 51.71C80.3592 51.5555 79.7355 51.4873 79.1432 51.4152C78.5414 51.342 77.9672 51.2644 77.4369 51.0978L77.2571 51.6702C77.8468 51.8555 78.4726 51.938 79.0708 52.0108C79.6785 52.0847 80.2548 52.1485 80.7903 52.29C81.3206 52.4302 81.7916 52.6423 82.1849 53.0007C82.5769 53.3579 82.9112 53.8784 83.1388 54.6671L83.7152 54.5009ZM77.6447 51.3467C76.4455 41.7851 75.8739 34.9025 75.5122 29.8894C75.1514 24.8887 74.998 21.7164 74.6346 19.6129C74.4521 18.5561 74.2128 17.7427 73.8537 17.0889C73.4907 16.4282 73.0134 15.9451 72.3794 15.5368C71.7533 15.1335 70.9736 14.803 70.0091 14.4431C69.5254 14.2625 68.9895 14.0726 68.3986 13.8618C67.8068 13.6508 67.1579 13.4182 66.4442 13.151L66.2338 13.713C66.9521 13.9818 67.6047 14.2157 68.197 14.427C68.7902 14.6385 69.3208 14.8266 69.7994 15.0052C70.7594 15.3635 71.4867 15.6755 72.0546 16.0412C72.6146 16.4019 73.0183 16.8143 73.3278 17.3778C73.6412 17.9483 73.8659 18.6879 74.0434 19.7151C74.4 21.7796 74.5506 24.8993 74.9138 29.9326C75.2761 34.9535 75.8485 41.8469 77.0493 51.4213L77.6447 51.3467ZM66.3978 13.1378L66.0778 13.0738L65.9602 13.6622L66.2802 13.7262L66.3978 13.1378ZM65.973 13.0715C62.2122 13.6551 59.2252 15.0303 57.435 18.3455L57.963 18.6305C59.6288 15.5457 62.4018 14.2329 66.065 13.6644L65.973 13.0715ZM57.4357 18.3442C49.4535 32.9623 46.4064 43.1132 44.2701 49.5941C43.1981 52.8463 42.3695 55.1241 41.2845 56.596C40.7482 57.3235 40.1554 57.8444 39.4466 58.186C38.7364 58.5284 37.8905 58.7 36.835 58.7V59.3C37.9555 59.3 38.8956 59.1176 39.7071 58.7265C40.5201 58.3346 41.1848 57.7425 41.7675 56.952C42.9205 55.3879 43.7759 53.0097 44.8399 49.7819C46.9756 43.3028 50.0085 33.1977 57.9623 18.6318L57.4357 18.3442ZM36.835 58.7H36.451V59.3H36.835V58.7ZM36.451 58.7C35.12 58.7 33.527 59.6838 33.527 61.496H34.127C34.127 60.1082 35.35 59.3 36.451 59.3V58.7ZM33.527 61.496C33.527 62.582 34.0512 63.6373 34.7791 64.705C35.5048 65.7693 36.484 66.9142 37.4292 68.1429L37.9048 67.7771C36.93 66.5098 35.9892 65.4147 35.2749 64.367C34.5628 63.3227 34.127 62.394 34.127 61.496H33.527ZM37.3894 67.8462C34.7798 74.2111 32.887 77.2283 32.887 83.256H33.487C33.487 77.3797 35.3062 74.5089 37.9446 68.0738L37.3894 67.8462ZM32.887 83.256C32.887 83.906 32.9651 84.4621 33.2235 84.8595C33.5022 85.2884 33.9494 85.476 34.531 85.476V84.876C34.0886 84.876 33.8638 84.7436 33.7265 84.5325C33.5689 84.2899 33.487 83.886 33.487 83.256H32.887ZM52.7954 54.3706C56.2524 45.2799 59.6382 36.4014 64.108 27.9725L63.578 27.6914C59.0878 36.1586 55.6896 45.0721 52.2346 54.1574L52.7954 54.3706ZM63.5452 27.8683L66.4252 51.4843L67.0208 51.4117L64.1408 27.7957L63.5452 27.8683ZM66.6647 51.1537L52.4567 53.9697L52.5733 54.5583L66.7813 51.7423L66.6647 51.1537ZM121.308 82.168L121.52 82.3801L121.684 82.2158L121.566 82.0156L121.308 82.168ZM114.396 21.688L114.565 21.4408L114.559 21.4362L114.552 21.432L114.396 21.688ZM94.7475 47.16L94.6526 47.4446L94.9219 47.5343L95.0264 47.2705L94.7475 47.16ZM94.1715 46.968L93.8736 46.9323L93.8445 47.1752L94.0766 47.2526L94.1715 46.968ZM97.8835 23.864L98.1761 23.9301L98.1788 23.9183L98.1805 23.9064L97.8835 23.864ZM98.0755 22.52L98.3725 22.5624L98.3755 22.5413V22.52H98.0755ZM86.7475 24.824L86.4598 24.739L86.4594 24.7404L86.7475 24.824ZM85.9155 68.792L85.6171 68.8226L85.6173 68.8251L85.9155 68.792ZM93.2755 74.68L93.1658 74.9592L93.1731 74.9621L93.1806 74.9646L93.2755 74.68ZM96.9235 70.52L96.6339 70.4416L96.6334 70.4437L96.9235 70.52ZM104.348 44.152L104.397 43.8561L104.153 43.8155L104.067 44.0467L104.348 44.152ZM104.732 44.216L105.03 44.1844L105.006 43.9576L104.781 43.9201L104.732 44.216ZM118.492 82.424L118.64 82.1635L118.638 82.1624L118.492 82.424ZM119.9 83.172C120.45 83.172 120.97 82.9297 121.52 82.3801L121.095 81.9559C120.621 82.4303 120.245 82.572 119.9 82.572V83.172ZM121.566 82.0156C120.123 79.5684 118.482 74.1424 117.202 67.527C115.925 60.9255 115.016 53.1849 115.016 46.136H114.416C114.416 53.231 115.33 61.0105 116.613 67.641C117.893 74.2576 119.548 79.7756 121.049 82.3204L121.566 82.0156ZM115.016 46.136C115.016 41.8567 115.239 36.9835 115.463 32.9285C115.686 28.8861 115.912 25.635 115.912 24.632H115.312C115.312 25.613 115.089 28.8259 114.864 32.8955C114.64 36.9525 114.416 41.8393 114.416 46.136H115.016ZM115.912 24.632C115.912 23.4574 115.718 22.2332 114.565 21.4408L114.226 21.9352C115.121 22.5508 115.312 23.5026 115.312 24.632H115.912ZM114.552 21.432C113.984 21.0846 112.421 20.0864 110.841 19.1798C110.05 18.7261 109.247 18.2913 108.555 17.969C108.209 17.808 107.886 17.6728 107.602 17.5773C107.325 17.4839 107.061 17.42 106.844 17.42V18.02C106.962 18.02 107.15 18.0581 107.411 18.1459C107.666 18.2317 107.967 18.357 108.302 18.513C108.972 18.8247 109.757 19.2499 110.542 19.7002C112.114 20.6016 113.656 21.5874 114.239 21.944L114.552 21.432ZM106.844 17.42C106.361 17.42 105.928 17.6768 105.538 18.081C105.148 18.4857 104.769 19.0687 104.39 19.7965C103.632 21.2535 102.836 23.363 101.928 25.9818C100.108 31.2326 97.8254 38.5775 94.4686 47.0495L95.0264 47.2705C98.3896 38.7825 100.683 31.4074 102.495 26.1782C103.403 23.557 104.187 21.4865 104.923 20.0735C105.291 19.3663 105.638 18.8418 105.97 18.4977C106.303 18.1532 106.59 18.02 106.844 18.02V17.42ZM94.8424 46.8754L94.2664 46.6834L94.0766 47.2526L94.6526 47.4446L94.8424 46.8754ZM94.4694 47.0037C95.6863 36.8516 96.0529 33.5688 96.3952 31.5789C96.5651 30.5908 96.7287 29.924 96.9914 28.8792C97.2546 27.8325 97.6153 26.4137 98.1761 23.9301L97.5909 23.7979C97.0317 26.2743 96.6724 27.6875 96.4096 28.7328C96.1463 29.78 95.9779 30.4652 95.8038 31.4771C95.4581 33.4872 95.0887 36.7964 93.8736 46.9323L94.4694 47.0037ZM98.1805 23.9064L98.3725 22.5624L97.7785 22.4776L97.5865 23.8216L98.1805 23.9064ZM98.3755 22.52C98.3755 21.3913 97.7453 20.6463 96.9134 20.1997C96.0947 19.7602 95.0646 19.596 94.1715 19.596V20.196C95.0064 20.196 95.9283 20.3518 96.6296 20.7283C97.3177 21.0977 97.7755 21.6647 97.7755 22.52H98.3755ZM94.1715 19.596C92.5711 19.596 90.8675 20.1445 89.4572 21.0517C88.0484 21.9579 86.902 23.2424 86.4598 24.739L87.0352 24.909C87.425 23.5896 88.4546 22.4101 89.7818 21.5563C91.1075 20.7035 92.6999 20.196 94.1715 20.196V19.596ZM86.4594 24.7404C84.7187 30.736 84.2075 40.0525 84.2075 46.264H84.8075C84.8075 40.0595 85.3203 30.816 87.0356 24.9076L86.4594 24.7404ZM84.2075 46.264C84.2075 53.8319 84.8488 61.3323 85.6171 68.8226L86.2139 68.7614C85.4462 61.2756 84.8075 53.8001 84.8075 46.264H84.2075ZM85.6173 68.8251C85.7003 69.5719 85.8724 70.2082 86.1812 70.7738C86.4906 71.3404 86.9282 71.8194 87.5192 72.2638C88.6863 73.1412 90.4883 73.9073 93.1658 74.9592L93.3852 74.4008C90.6867 73.3407 88.9687 72.6028 87.8798 71.7842C87.3428 71.3806 86.9684 70.9636 86.7078 70.4862C86.4466 70.0077 86.2907 69.4521 86.2137 68.7589L85.6173 68.8251ZM93.1806 74.9646C93.5936 75.1022 94.0095 75.172 94.4275 75.172V74.572C94.0775 74.572 93.7254 74.5138 93.3704 74.3954L93.1806 74.9646ZM94.4275 75.172C95.0939 75.172 95.6024 74.9481 95.9813 74.5775C96.3516 74.2153 96.5789 73.7319 96.7302 73.2402C96.8819 72.7472 96.9645 72.2205 97.0287 71.7539C97.0949 71.273 97.1397 70.8774 97.2136 70.5963L96.6334 70.4437C96.5473 70.7706 96.4961 71.223 96.4343 71.6721C96.3705 72.1355 96.2931 72.6208 96.1568 73.0638C96.0201 73.5081 95.8314 73.8847 95.5617 74.1485C95.3006 74.4039 94.9451 74.572 94.4275 74.572V75.172ZM97.2131 70.5984C101.053 56.4214 102.717 50.344 103.516 47.5546C103.916 46.1581 104.097 45.5946 104.224 45.2541C104.288 45.0853 104.338 44.9707 104.399 44.8283C104.46 44.6847 104.53 44.5192 104.628 44.2573L104.067 44.0467C103.973 44.2968 103.907 44.4533 103.847 44.5919C103.787 44.7318 103.731 44.8596 103.663 45.0439C103.526 45.4094 103.339 45.9939 102.939 47.3894C102.138 50.184 100.474 56.2666 96.6339 70.4416L97.2131 70.5984ZM104.298 44.4479L104.682 44.5119L104.781 43.9201L104.397 43.8561L104.298 44.4479ZM104.433 44.2476C105.07 50.2674 105.378 58.1006 107.096 65.2858C108.815 72.4761 111.964 79.1046 118.345 82.6856L118.638 82.1624C112.475 78.7034 109.384 72.2759 107.679 65.1462C105.973 58.0114 105.673 50.2606 105.03 44.1844L104.433 44.2476ZM118.343 82.6845C118.806 82.9495 119.309 83.172 119.9 83.172V82.572C119.466 82.572 119.073 82.4105 118.64 82.1635L118.343 82.6845ZM150.555 64.44L150.831 64.5578L150.834 64.5514L150.555 64.44ZM133.211 74.424L132.93 74.5282L133.067 74.8999L133.388 74.6664L133.211 74.424ZM130.075 59L129.863 58.7879L129.767 58.8835L129.776 59.0185L130.075 59ZM130.587 58.552L130.458 58.2813L130.453 58.2837L130.587 58.552ZM146.395 47.928L146.224 47.6813L146.22 47.6841L146.395 47.928ZM130.075 46.392L129.775 46.3802L129.761 46.7373L130.115 46.6893L130.075 46.392ZM131.803 27.256L131.507 27.2043L131.507 27.2047L131.803 27.256ZM151.451 18.872L151.362 18.5855L151.362 18.5856L151.451 18.872ZM160.731 16.44L160.834 16.7219L161.065 16.6378L161.028 16.3944L160.731 16.44ZM158.171 13.816L158.244 13.5247L158.231 13.5221L158.171 13.816ZM123.291 17.848L123.172 17.5726L123.167 17.5749L123.291 17.848ZM121.691 23.608L121.977 23.698L121.991 23.6541V23.608H121.691ZM136.859 84.26C140.072 84.26 142.454 81.8692 144.565 78.2884C146.682 74.6983 148.598 69.7891 150.831 64.5578L150.279 64.3222C148.032 69.5869 146.14 74.4377 144.049 77.9836C141.952 81.5388 139.726 83.66 136.859 83.66V84.26ZM150.834 64.5514C150.975 64.1987 151.047 63.841 151.047 63.48H150.447C150.447 63.759 150.391 64.0413 150.276 64.3286L150.834 64.5514ZM151.047 63.48C151.047 62.6181 150.652 61.8747 150.147 61.3515C149.65 60.8373 149.001 60.492 148.443 60.492V61.092C148.781 61.092 149.284 61.3227 149.715 61.7685C150.138 62.2053 150.447 62.8059 150.447 63.48H151.047ZM148.443 60.492C148.28 60.492 148.106 60.5701 147.958 60.6521C147.795 60.7418 147.606 60.8688 147.397 61.024C146.978 61.3349 146.453 61.7777 145.854 62.311C144.656 63.3786 143.142 64.8288 141.555 66.3601C138.367 69.435 134.901 72.8214 133.034 74.1816L133.388 74.6664C135.297 73.2746 138.807 69.845 141.971 66.7919C143.56 65.2592 145.066 63.8174 146.254 62.759C146.848 62.2293 147.357 61.8006 147.755 61.5058C147.954 61.358 148.118 61.2487 148.247 61.1776C148.39 61.0989 148.446 61.092 148.443 61.092V60.492ZM133.492 74.3198C131.584 69.1683 130.693 64.142 130.374 58.9815L129.776 59.0185C130.097 64.226 130.998 69.3117 132.93 74.5282L133.492 74.3198ZM130.287 59.2121C130.417 59.0819 130.507 58.9925 130.58 58.927C130.652 58.8621 130.692 58.8347 130.721 58.8203L130.453 58.2837C130.354 58.3333 130.266 58.4019 130.178 58.481C130.091 58.5595 129.989 58.6621 129.863 58.7879L130.287 59.2121ZM130.716 58.8227C136.508 56.0555 141.414 51.8637 146.57 48.1719L146.22 47.6841C141.008 51.4163 136.186 55.5445 130.458 58.2813L130.716 58.8227ZM146.566 48.1747C147.433 47.5743 147.911 46.8554 147.911 46.2H147.311C147.311 46.5686 147.021 47.1297 146.224 47.6813L146.566 48.1747ZM147.911 46.2C147.911 45.4257 147.325 44.8187 146.584 44.4234C145.831 44.0209 144.837 43.788 143.835 43.788V44.388C144.753 44.388 145.647 44.6031 146.302 44.9526C146.969 45.3093 147.311 45.7583 147.311 46.2H147.911ZM143.835 43.788C143.39 43.788 142.532 43.905 141.465 44.08C140.389 44.2565 139.072 44.4971 137.692 44.753C134.927 45.266 131.913 45.84 130.035 46.0947L130.115 46.6893C132.013 46.432 135.047 45.854 137.802 45.343C139.182 45.0869 140.493 44.8475 141.563 44.672C142.642 44.495 143.448 44.388 143.835 44.388V43.788ZM130.375 46.4038C130.631 39.8783 131.014 33.5588 132.099 27.3073L131.507 27.2047C130.416 33.4972 130.031 39.8497 129.775 46.3802L130.375 46.4038ZM132.099 27.3077C132.213 26.6546 132.285 26.2677 132.585 25.9024C132.893 25.5273 133.469 25.1464 134.687 24.6368C137.118 23.6199 141.896 22.1703 151.54 19.1584L151.362 18.5856C141.742 21.5897 136.92 23.0521 134.455 24.0832C133.225 24.5976 132.529 25.0247 132.121 25.5216C131.705 26.0283 131.617 26.5774 131.507 27.2043L132.099 27.3077ZM151.54 19.1585C153.381 18.5872 154.807 18.302 156.226 17.9973C157.646 17.6924 159.054 17.369 160.834 16.7219L160.628 16.1581C158.888 16.791 157.512 17.1076 156.1 17.4107C154.687 17.714 153.233 18.0048 151.362 18.5855L151.54 19.1585ZM161.028 16.3944C160.891 15.5041 160.542 14.8625 160.037 14.4022C159.538 13.9473 158.908 13.691 158.244 13.525L158.098 14.107C158.714 14.261 159.236 14.4847 159.633 14.8458C160.024 15.2015 160.315 15.7119 160.434 16.4856L161.028 16.3944ZM158.231 13.5221C155.699 13.0027 155.346 13.004 146.907 13.004V13.604C155.364 13.604 155.651 13.6053 158.111 14.1099L158.231 13.5221ZM146.907 13.004H146.331V13.604H146.907V13.004ZM146.331 13.004C142.684 13.004 139.494 13.0195 135.915 13.5999C132.334 14.1806 128.374 15.325 123.172 17.5726L123.41 18.1234C128.576 15.891 132.488 14.7634 136.011 14.1921C139.536 13.6205 142.682 13.604 146.331 13.604V13.004ZM123.167 17.5749C121.731 18.2274 120.751 19.1346 120.751 20.408H121.351C121.351 19.5053 122.035 18.7486 123.415 18.1211L123.167 17.5749ZM120.751 20.408C120.751 20.9502 120.935 21.3927 121.087 21.8403C121.241 22.2948 121.391 22.8205 121.391 23.608H121.991C121.991 22.7315 121.821 22.1372 121.655 21.6477C121.487 21.1513 121.351 20.8258 121.351 20.408H120.751ZM121.691 23.608C121.405 23.518 121.405 23.5181 121.405 23.5183C121.405 23.5183 121.405 23.5185 121.405 23.5187C121.404 23.5191 121.404 23.5196 121.404 23.5202C121.404 23.5214 121.403 23.5231 121.403 23.5252C121.401 23.5296 121.399 23.5359 121.397 23.5441C121.392 23.5606 121.384 23.5849 121.375 23.6171C121.356 23.6814 121.329 23.7772 121.294 23.9048C121.225 24.16 121.126 24.5425 121.009 25.0559C120.773 26.0825 120.459 27.6322 120.146 29.7317C119.52 33.931 118.895 40.3298 118.895 49.144H119.495C119.495 40.3582 120.118 33.989 120.74 29.8203C121.051 27.7358 121.361 26.2015 121.593 25.1901C121.71 24.6845 121.806 24.3095 121.873 24.062C121.907 23.9382 121.933 23.8463 121.951 23.7857C121.96 23.7555 121.966 23.7331 121.971 23.7185C121.973 23.7112 121.975 23.7058 121.976 23.7024C121.976 23.7007 121.977 23.6995 121.977 23.6988C121.977 23.6984 121.977 23.6981 121.977 23.698C121.977 23.698 121.977 23.698 121.977 23.6979C121.977 23.6979 121.977 23.698 121.691 23.608ZM118.895 49.144C118.895 57.045 119.229 65.7974 121.624 72.5799C122.823 75.9756 124.546 78.8985 127.021 80.9729C129.502 83.0517 132.716 84.26 136.859 84.26V83.66C132.842 83.66 129.768 82.4923 127.407 80.5131C125.04 78.5295 123.367 75.7124 122.19 72.3801C119.833 65.7066 119.495 57.051 119.495 49.144H118.895Z" fill="black"/>
<path d="M81.0234 113.637C81.0234 113.051 80.8008 112.598 80.3555 112.277C79.918 111.949 79.1484 111.668 78.0469 111.434C76.9531 111.199 76.082 110.918 75.4336 110.59C74.793 110.262 74.3164 109.871 74.0039 109.418C73.6992 108.965 73.5469 108.426 73.5469 107.801C73.5469 106.762 73.9844 105.883 74.8594 105.164C75.7422 104.445 76.8672 104.086 78.2344 104.086C79.6719 104.086 80.8359 104.457 81.7266 105.199C82.625 105.941 83.0742 106.891 83.0742 108.047H80.8945C80.8945 107.453 80.6406 106.941 80.1328 106.512C79.6328 106.082 79 105.867 78.2344 105.867C77.4453 105.867 76.8281 106.039 76.3828 106.383C75.9375 106.727 75.7148 107.176 75.7148 107.73C75.7148 108.254 75.9219 108.648 76.3359 108.914C76.75 109.18 77.4961 109.434 78.5742 109.676C79.6602 109.918 80.5391 110.207 81.2109 110.543C81.8828 110.879 82.3789 111.285 82.6992 111.762C83.0273 112.23 83.1914 112.805 83.1914 113.484C83.1914 114.617 82.7383 115.527 81.832 116.215C80.9258 116.895 79.75 117.234 78.3047 117.234C77.2891 117.234 76.3906 117.055 75.6094 116.695C74.8281 116.336 74.2148 115.836 73.7695 115.195C73.332 114.547 73.1133 113.848 73.1133 113.098H75.2812C75.3203 113.824 75.6094 114.402 76.1484 114.832C76.6953 115.254 77.4141 115.465 78.3047 115.465C79.125 115.465 79.7812 115.301 80.2734 114.973C80.7734 114.637 81.0234 114.191 81.0234 113.637ZM88.957 101.25V104.32H91.3242V105.996H88.957V113.859C88.957 114.367 89.0625 114.75 89.2734 115.008C89.4844 115.258 89.8438 115.383 90.3516 115.383C90.6016 115.383 90.9453 115.336 91.3828 115.242V117C90.8125 117.156 90.2578 117.234 89.7188 117.234C88.75 117.234 88.0195 116.941 87.5273 116.355C87.0352 115.77 86.7891 114.938 86.7891 113.859V105.996H84.4805V104.32H86.7891V101.25H88.957ZM101.695 115.746C100.852 116.738 99.6133 117.234 97.9805 117.234C96.6289 117.234 95.5977 116.844 94.8867 116.062C94.1836 115.273 93.8281 114.109 93.8203 112.57V104.32H95.9883V112.512C95.9883 114.434 96.7695 115.395 98.332 115.395C99.9883 115.395 101.09 114.777 101.637 113.543V104.32H103.805V117H101.742L101.695 115.746ZM106.582 110.555C106.582 108.609 107.043 107.047 107.965 105.867C108.887 104.68 110.094 104.086 111.586 104.086C113.07 104.086 114.246 104.594 115.113 105.609V99H117.281V117H115.289L115.184 115.641C114.316 116.703 113.109 117.234 111.562 117.234C110.094 117.234 108.895 116.633 107.965 115.43C107.043 114.227 106.582 112.656 106.582 110.719V110.555ZM108.75 110.801C108.75 112.238 109.047 113.363 109.641 114.176C110.234 114.988 111.055 115.395 112.102 115.395C113.477 115.395 114.48 114.777 115.113 113.543V107.719C114.465 106.523 113.469 105.926 112.125 105.926C111.062 105.926 110.234 106.336 109.641 107.156C109.047 107.977 108.75 109.191 108.75 110.801ZM123.012 117H120.844V104.32H123.012V117ZM120.668 100.957C120.668 100.605 120.773 100.309 120.984 100.066C121.203 99.8242 121.523 99.7031 121.945 99.7031C122.367 99.7031 122.688 99.8242 122.906 100.066C123.125 100.309 123.234 100.605 123.234 100.957C123.234 101.309 123.125 101.602 122.906 101.836C122.688 102.07 122.367 102.188 121.945 102.188C121.523 102.188 121.203 102.07 120.984 101.836C120.773 101.602 120.668 101.309 120.668 100.957ZM125.918 110.543C125.918 109.301 126.16 108.184 126.645 107.191C127.137 106.199 127.816 105.434 128.684 104.895C129.559 104.355 130.555 104.086 131.672 104.086C133.398 104.086 134.793 104.684 135.855 105.879C136.926 107.074 137.461 108.664 137.461 110.648V110.801C137.461 112.035 137.223 113.145 136.746 114.129C136.277 115.105 135.602 115.867 134.719 116.414C133.844 116.961 132.836 117.234 131.695 117.234C129.977 117.234 128.582 116.637 127.512 115.441C126.449 114.246 125.918 112.664 125.918 110.695V110.543ZM128.098 110.801C128.098 112.207 128.422 113.336 129.07 114.188C129.727 115.039 130.602 115.465 131.695 115.465C132.797 115.465 133.672 115.035 134.32 114.176C134.969 113.309 135.293 112.098 135.293 110.543C135.293 109.152 134.961 108.027 134.297 107.168C133.641 106.301 132.766 105.867 131.672 105.867C130.602 105.867 129.738 106.293 129.082 107.145C128.426 107.996 128.098 109.215 128.098 110.801ZM147.562 113.637C147.562 113.051 147.34 112.598 146.895 112.277C146.457 111.949 145.688 111.668 144.586 111.434C143.492 111.199 142.621 110.918 141.973 110.59C141.332 110.262 140.855 109.871 140.543 109.418C140.238 108.965 140.086 108.426 140.086 107.801C140.086 106.762 140.523 105.883 141.398 105.164C142.281 104.445 143.406 104.086 144.773 104.086C146.211 104.086 147.375 104.457 148.266 105.199C149.164 105.941 149.613 106.891 149.613 108.047H147.434C147.434 107.453 147.18 106.941 146.672 106.512C146.172 106.082 145.539 105.867 144.773 105.867C143.984 105.867 143.367 106.039 142.922 106.383C142.477 106.727 142.254 107.176 142.254 107.73C142.254 108.254 142.461 108.648 142.875 108.914C143.289 109.18 144.035 109.434 145.113 109.676C146.199 109.918 147.078 110.207 147.75 110.543C148.422 110.879 148.918 111.285 149.238 111.762C149.566 112.23 149.73 112.805 149.73 113.484C149.73 114.617 149.277 115.527 148.371 116.215C147.465 116.895 146.289 117.234 144.844 117.234C143.828 117.234 142.93 117.055 142.148 116.695C141.367 116.336 140.754 115.836 140.309 115.195C139.871 114.547 139.652 113.848 139.652 113.098H141.82C141.859 113.824 142.148 114.402 142.688 114.832C143.234 115.254 143.953 115.465 144.844 115.465C145.664 115.465 146.32 115.301 146.812 114.973C147.312 114.637 147.562 114.191 147.562 113.637Z" fill="white"/>
<path d="M80.3555 112.277L80.1754 112.517L80.1803 112.521L80.3555 112.277ZM78.0469 111.434L77.984 111.727L77.9844 111.727L78.0469 111.434ZM75.4336 110.59L75.2968 110.857L75.2981 110.858L75.4336 110.59ZM74.0039 109.418L73.7549 109.585L73.7569 109.588L74.0039 109.418ZM74.8594 105.164L74.67 104.931L74.669 104.932L74.8594 105.164ZM81.7266 105.199L81.5345 105.43L81.5355 105.431L81.7266 105.199ZM83.0742 108.047V108.347H83.3742V108.047H83.0742ZM80.8945 108.047H80.5945V108.347H80.8945V108.047ZM80.1328 106.512L79.9373 106.739L79.939 106.741L80.1328 106.512ZM78.5742 109.676L78.5085 109.968L78.5089 109.969L78.5742 109.676ZM82.6992 111.762L82.4502 111.929L82.4534 111.934L82.6992 111.762ZM81.832 116.215L82.012 116.455L82.0133 116.454L81.832 116.215ZM73.7695 115.195L73.5208 115.363L73.5232 115.367L73.7695 115.195ZM73.1133 113.098V112.798H72.8133V113.098H73.1133ZM75.2812 113.098L75.5808 113.082L75.5656 112.798H75.2812V113.098ZM76.1484 114.832L75.9614 115.067L75.9652 115.07L76.1484 114.832ZM80.2734 114.973L80.4398 115.222L80.4407 115.222L80.2734 114.973ZM81.3234 113.637C81.3234 112.962 81.0604 112.415 80.5306 112.034L80.1803 112.521C80.5412 112.78 80.7234 113.14 80.7234 113.637H81.3234ZM80.5355 112.037C80.0425 111.668 79.2177 111.376 78.1093 111.14L77.9844 111.727C79.0792 111.96 79.7934 112.231 80.1755 112.517L80.5355 112.037ZM78.1097 111.14C77.0292 110.909 76.1857 110.634 75.569 110.322L75.2981 110.858C75.9784 111.202 76.877 111.49 77.984 111.727L78.1097 111.14ZM75.5704 110.323C74.9607 110.011 74.5279 109.649 74.2509 109.248L73.7569 109.588C74.105 110.093 74.6252 110.513 75.2968 110.857L75.5704 110.323ZM74.2529 109.251C73.9861 108.854 73.8469 108.375 73.8469 107.801H73.2469C73.2469 108.477 73.4124 109.076 73.755 109.585L74.2529 109.251ZM73.8469 107.801C73.8469 106.86 74.2371 106.063 75.0498 105.396L74.669 104.932C73.7317 105.702 73.2469 106.663 73.2469 107.801H73.8469ZM75.0488 105.397C75.8679 104.73 76.9218 104.386 78.2344 104.386V103.786C76.8126 103.786 75.6165 104.161 74.67 104.931L75.0488 105.397ZM78.2344 104.386C79.6191 104.386 80.7098 104.742 81.5345 105.43L81.9186 104.969C80.9621 104.172 79.7247 103.786 78.2344 103.786V104.386ZM81.5355 105.431C82.3656 106.116 82.7742 106.981 82.7742 108.047H83.3742C83.3742 106.8 82.8844 105.767 81.9176 104.968L81.5355 105.431ZM83.0742 107.747H80.8945V108.347H83.0742V107.747ZM81.1945 108.047C81.1945 107.354 80.8927 106.762 80.3266 106.283L79.939 106.741C80.3886 107.121 80.5945 107.553 80.5945 108.047H81.1945ZM80.3283 106.284C79.7653 105.8 79.0595 105.567 78.2344 105.567V106.167C78.9405 106.167 79.5003 106.364 79.9373 106.739L80.3283 106.284ZM78.2344 105.567C77.4051 105.567 76.7148 105.748 76.1995 106.145L76.5661 106.62C76.9414 106.331 77.4855 106.167 78.2344 106.167V105.567ZM76.1995 106.145C75.6818 106.545 75.4148 107.081 75.4148 107.73H76.0148C76.0148 107.27 76.1932 106.908 76.5661 106.62L76.1995 106.145ZM75.4148 107.73C75.4148 108.348 75.6675 108.842 76.174 109.167L76.4979 108.662C76.1763 108.455 76.0148 108.16 76.0148 107.73H75.4148ZM76.174 109.167C76.6362 109.463 77.4281 109.726 78.5085 109.968L78.64 109.383C77.5641 109.141 76.8638 108.896 76.4979 108.662L76.174 109.167ZM78.5089 109.969C79.5813 110.208 80.4345 110.49 81.0768 110.811L81.3451 110.275C80.6436 109.924 79.7391 109.628 78.6395 109.383L78.5089 109.969ZM81.0768 110.811C81.7162 111.131 82.1664 111.507 82.4502 111.929L82.9482 111.594C82.5914 111.064 82.0494 110.627 81.3451 110.275L81.0768 110.811ZM82.4534 111.934C82.74 112.343 82.8914 112.854 82.8914 113.484H83.4914C83.4914 112.755 83.3146 112.118 82.945 111.59L82.4534 111.934ZM82.8914 113.484C82.8914 114.523 82.4826 115.345 81.6507 115.976L82.0133 116.454C82.994 115.71 83.4914 114.711 83.4914 113.484H82.8914ZM81.652 115.975C80.8105 116.606 79.7031 116.934 78.3047 116.934V117.534C79.7969 117.534 81.0411 117.183 82.012 116.455L81.652 115.975ZM78.3047 116.934C77.3246 116.934 76.4702 116.761 75.7347 116.423L75.484 116.968C76.3111 117.348 77.2535 117.534 78.3047 117.534V116.934ZM75.7347 116.423C74.997 116.083 74.4276 115.616 74.0159 115.024L73.5232 115.367C74.0021 116.056 74.6592 116.588 75.484 116.968L75.7347 116.423ZM74.0182 115.028C73.6126 114.426 73.4133 113.785 73.4133 113.098H72.8133C72.8133 113.91 73.0514 114.667 73.5208 115.363L74.0182 115.028ZM73.1133 113.398H75.2812V112.798H73.1133V113.398ZM74.9817 113.114C75.0251 113.921 75.3513 114.58 75.9614 115.067L76.3354 114.597C75.8675 114.224 75.6156 113.728 75.5808 113.082L74.9817 113.114ZM75.9652 115.07C76.5781 115.542 77.3671 115.765 78.3047 115.765V115.165C77.461 115.165 76.8126 114.965 76.3317 114.594L75.9652 115.07ZM78.3047 115.765C79.1621 115.765 79.8827 115.594 80.4398 115.222L80.107 114.723C79.6798 115.008 79.0879 115.165 78.3047 115.165V115.765ZM80.4407 115.222C81.0153 114.836 81.3234 114.301 81.3234 113.637H80.7234C80.7234 114.082 80.5316 114.438 80.1061 114.724L80.4407 115.222ZM88.957 101.25H89.257V100.95H88.957V101.25ZM88.957 104.32H88.657V104.62H88.957V104.32ZM91.3242 104.32H91.6242V104.02H91.3242V104.32ZM91.3242 105.996V106.296H91.6242V105.996H91.3242ZM88.957 105.996V105.696H88.657V105.996H88.957ZM89.2734 115.008L89.0412 115.198L89.0442 115.201L89.2734 115.008ZM91.3828 115.242H91.6828V114.871L91.32 114.949L91.3828 115.242ZM91.3828 117L91.4621 117.289L91.6828 117.229V117H91.3828ZM86.7891 105.996H87.0891V105.696H86.7891V105.996ZM84.4805 105.996H84.1805V106.296H84.4805V105.996ZM84.4805 104.32V104.02H84.1805V104.32H84.4805ZM86.7891 104.32V104.62H87.0891V104.32H86.7891ZM86.7891 101.25V100.95H86.4891V101.25H86.7891ZM88.657 101.25V104.32H89.257V101.25H88.657ZM88.957 104.62H91.3242V104.02H88.957V104.62ZM91.0242 104.32V105.996H91.6242V104.32H91.0242ZM91.3242 105.696H88.957V106.296H91.3242V105.696ZM88.657 105.996V113.859H89.257V105.996H88.657ZM88.657 113.859C88.657 114.402 88.7686 114.865 89.0413 115.198L89.5056 114.818C89.3564 114.635 89.257 114.333 89.257 113.859H88.657ZM89.0442 115.201C89.3375 115.549 89.8043 115.683 90.3516 115.683V115.083C89.8832 115.083 89.6313 114.967 89.5027 114.814L89.0442 115.201ZM90.3516 115.683C90.633 115.683 91.001 115.631 91.4457 115.536L91.32 114.949C90.8897 115.041 90.5701 115.083 90.3516 115.083V115.683ZM91.0828 115.242V117H91.6828V115.242H91.0828ZM91.3035 116.711C90.7566 116.861 90.2286 116.934 89.7188 116.934V117.534C90.287 117.534 90.8684 117.452 91.4621 117.289L91.3035 116.711ZM89.7188 116.934C88.8131 116.934 88.1776 116.663 87.7571 116.163L87.2976 116.548C87.8614 117.22 88.6869 117.534 89.7188 117.534V116.934ZM87.7571 116.163C87.3257 115.649 87.0891 114.895 87.0891 113.859H86.4891C86.4891 114.98 86.7446 115.89 87.2976 116.548L87.7571 116.163ZM87.0891 113.859V105.996H86.4891V113.859H87.0891ZM86.7891 105.696H84.4805V106.296H86.7891V105.696ZM84.7805 105.996V104.32H84.1805V105.996H84.7805ZM84.4805 104.62H86.7891V104.02H84.4805V104.62ZM87.0891 104.32V101.25H86.4891V104.32H87.0891ZM86.7891 101.55H88.957V100.95H86.7891V101.55ZM101.695 115.746L101.995 115.735L101.966 114.964L101.467 115.552L101.695 115.746ZM94.8867 116.062L94.6627 116.262L94.6648 116.264L94.8867 116.062ZM93.8203 112.57H93.5203L93.5203 112.572L93.8203 112.57ZM93.8203 104.32V104.02H93.5203V104.32H93.8203ZM95.9883 104.32H96.2883V104.02H95.9883V104.32ZM101.637 113.543L101.911 113.664L101.937 113.606V113.543H101.637ZM101.637 104.32V104.02H101.337V104.32H101.637ZM103.805 104.32H104.105V104.02H103.805V104.32ZM103.805 117V117.3H104.105V117H103.805ZM101.742 117L101.442 117.011L101.453 117.3H101.742V117ZM101.467 115.552C100.694 116.46 99.5495 116.934 97.9805 116.934V117.534C99.6771 117.534 101.009 117.016 101.924 115.94L101.467 115.552ZM97.9805 116.934C96.6883 116.934 95.7477 116.563 95.1086 115.861L94.6648 116.264C95.4476 117.125 96.5696 117.534 97.9805 117.534V116.934ZM95.1107 115.863C94.4743 115.149 94.1279 114.068 94.1203 112.569L93.5203 112.572C93.5283 114.151 93.8929 115.398 94.6627 116.262L95.1107 115.863ZM94.1203 112.57V104.32H93.5203V112.57H94.1203ZM93.8203 104.62H95.9883V104.02H93.8203V104.62ZM95.6883 104.32V112.512H96.2883V104.32H95.6883ZM95.6883 112.512C95.6883 113.506 95.889 114.307 96.3414 114.863C96.8035 115.431 97.4862 115.695 98.332 115.695V115.095C97.6153 115.095 97.1262 114.877 96.807 114.485C96.4781 114.08 96.2883 113.44 96.2883 112.512H95.6883ZM98.332 115.695C99.196 115.695 99.9396 115.534 100.547 115.193C101.158 114.851 101.613 114.337 101.911 113.664L101.362 113.421C101.113 113.984 100.744 114.395 100.254 114.67C99.7596 114.947 99.1243 115.095 98.332 115.095V115.695ZM101.937 113.543V104.32H101.337V113.543H101.937ZM101.637 104.62H103.805V104.02H101.637V104.62ZM103.505 104.32V117H104.105V104.32H103.505ZM103.805 116.7H101.742V117.3H103.805V116.7ZM102.042 116.989L101.995 115.735L101.396 115.757L101.442 117.011L102.042 116.989ZM107.965 105.867L108.201 106.052L108.202 106.051L107.965 105.867ZM115.113 105.609L114.885 105.804L115.413 106.423V105.609H115.113ZM115.113 99V98.7H114.813V99H115.113ZM117.281 99H117.581V98.7H117.281V99ZM117.281 117V117.3H117.581V117H117.281ZM115.289 117L114.99 117.023L115.011 117.3H115.289V117ZM115.184 115.641L115.483 115.617L115.425 114.871L114.951 115.451L115.184 115.641ZM107.965 115.43L107.727 115.612L107.727 115.613L107.965 115.43ZM115.113 113.543L115.38 113.68L115.413 113.615V113.543H115.113ZM115.113 107.719H115.413V107.643L115.377 107.576L115.113 107.719ZM106.882 110.555C106.882 108.656 107.331 107.165 108.201 106.052L107.728 105.682C106.754 106.929 106.282 108.563 106.282 110.555H106.882ZM108.202 106.051C109.067 104.936 110.187 104.386 111.586 104.386V103.786C110 103.786 108.706 104.423 107.728 105.683L108.202 106.051ZM111.586 104.386C112.994 104.386 114.082 104.863 114.885 105.804L115.341 105.415C114.41 104.324 113.147 103.786 111.586 103.786V104.386ZM115.413 105.609V99H114.813V105.609H115.413ZM115.113 99.3H117.281V98.7H115.113V99.3ZM116.981 99V117H117.581V99H116.981ZM117.281 116.7H115.289V117.3H117.281V116.7ZM115.588 116.977L115.483 115.617L114.884 115.664L114.99 117.023L115.588 116.977ZM114.951 115.451C114.149 116.434 113.032 116.934 111.562 116.934V117.534C113.186 117.534 114.484 116.972 115.416 115.83L114.951 115.451ZM111.562 116.934C110.19 116.934 109.077 116.379 108.202 115.246L107.727 115.613C108.712 116.887 109.997 117.534 111.562 117.534V116.934ZM108.203 115.247C107.331 114.109 106.882 112.609 106.882 110.719H106.282C106.282 112.704 106.755 114.344 107.727 115.612L108.203 115.247ZM106.882 110.719V110.555H106.282V110.719H106.882ZM108.45 110.801C108.45 112.276 108.754 113.471 109.398 114.353L109.883 113.999C109.34 113.255 109.05 112.201 109.05 110.801H108.45ZM109.398 114.353C110.051 115.246 110.963 115.695 112.102 115.695V115.095C111.146 115.095 110.417 114.73 109.883 113.999L109.398 114.353ZM112.102 115.695C112.835 115.695 113.486 115.529 114.043 115.187C114.599 114.845 115.043 114.337 115.38 113.68L114.846 113.406C114.55 113.983 114.176 114.401 113.729 114.676C113.281 114.951 112.743 115.095 112.102 115.095V115.695ZM115.413 113.543V107.719H114.813V113.543H115.413ZM115.377 107.576C115.032 106.939 114.586 106.448 114.034 106.117C113.483 105.786 112.843 105.626 112.125 105.626V106.226C112.751 106.226 113.281 106.365 113.726 106.631C114.17 106.898 114.547 107.303 114.85 107.862L115.377 107.576ZM112.125 105.626C110.972 105.626 110.051 106.078 109.398 106.98L109.884 107.332C110.418 106.594 111.153 106.226 112.125 106.226V105.626ZM109.398 106.98C108.751 107.874 108.45 109.163 108.45 110.801H109.05C109.05 109.22 109.343 108.079 109.884 107.332L109.398 106.98ZM123.012 117V117.3H123.312V117H123.012ZM120.844 117H120.544V117.3H120.844V117ZM120.844 104.32V104.02H120.544V104.32H120.844ZM123.012 104.32H123.312V104.02H123.012V104.32ZM120.984 100.066L120.762 99.8653L120.758 99.8694L120.984 100.066ZM120.984 101.836L120.761 102.037L120.765 102.041L120.984 101.836ZM123.012 116.7H120.844V117.3H123.012V116.7ZM121.144 117V104.32H120.544V117H121.144ZM120.844 104.62H123.012V104.02H120.844V104.62ZM122.712 104.32V117H123.312V104.32H122.712ZM120.968 100.957C120.968 100.671 121.052 100.446 121.211 100.263L120.758 99.8694C120.495 100.172 120.368 100.54 120.368 100.957H120.968ZM121.207 100.267C121.353 100.106 121.582 100.003 121.945 100.003V99.4031C121.465 99.4031 121.053 99.5429 120.762 99.8653L121.207 100.267ZM121.945 100.003C122.309 100.003 122.537 100.106 122.684 100.267L123.129 99.8653C122.838 99.5429 122.426 99.4031 121.945 99.4031V100.003ZM122.684 100.267C122.849 100.45 122.934 100.674 122.934 100.957H123.534C123.534 100.537 123.401 100.167 123.129 99.8653L122.684 100.267ZM122.934 100.957C122.934 101.241 122.849 101.458 122.687 101.631L123.126 102.041C123.401 101.745 123.534 101.377 123.534 100.957H122.934ZM122.687 101.631C122.541 101.787 122.312 101.887 121.945 101.887V102.488C122.423 102.488 122.834 102.353 123.126 102.041L122.687 101.631ZM121.945 101.887C121.579 101.887 121.349 101.787 121.204 101.631L120.765 102.041C121.057 102.353 121.468 102.488 121.945 102.488V101.887ZM121.207 101.635C121.052 101.462 120.968 101.244 120.968 100.957H120.368C120.368 101.374 120.495 101.741 120.761 102.037L121.207 101.635ZM126.645 107.191L126.376 107.058L126.375 107.06L126.645 107.191ZM128.684 104.895L128.526 104.639L128.525 104.64L128.684 104.895ZM135.855 105.879L135.631 106.078L135.632 106.079L135.855 105.879ZM136.746 114.129L136.476 113.998L136.476 113.999L136.746 114.129ZM134.719 116.414L134.561 116.159L134.56 116.16L134.719 116.414ZM127.512 115.441L127.287 115.641L127.288 115.642L127.512 115.441ZM129.07 114.188L128.832 114.369L128.833 114.371L129.07 114.188ZM134.32 114.176L134.56 114.356L134.561 114.355L134.32 114.176ZM134.297 107.168L134.058 107.349L134.059 107.351L134.297 107.168ZM126.218 110.543C126.218 109.341 126.452 108.269 126.914 107.323L126.375 107.06C125.868 108.098 125.618 109.261 125.618 110.543H126.218ZM126.913 107.325C127.383 106.378 128.026 105.656 128.842 105.149L128.525 104.64C127.607 105.211 126.891 106.02 126.376 107.058L126.913 107.325ZM128.841 105.15C129.665 104.643 130.605 104.386 131.672 104.386V103.786C130.504 103.786 129.453 104.068 128.526 104.639L128.841 105.15ZM131.672 104.386C133.32 104.386 134.631 104.952 135.631 106.078L136.08 105.68C134.955 104.415 133.476 103.786 131.672 103.786V104.386ZM135.632 106.079C136.642 107.207 137.161 108.72 137.161 110.648H137.761C137.761 108.608 137.209 106.941 136.079 105.679L135.632 106.079ZM137.161 110.648V110.801H137.761V110.648H137.161ZM137.161 110.801C137.161 111.996 136.931 113.06 136.476 113.998L137.016 114.26C137.515 113.23 137.761 112.075 137.761 110.801H137.161ZM136.476 113.999C136.031 114.926 135.393 115.644 134.561 116.159L134.877 116.669C135.81 116.091 136.524 115.285 137.017 114.259L136.476 113.999ZM134.56 116.16C133.737 116.674 132.786 116.934 131.695 116.934V117.534C132.886 117.534 133.95 117.248 134.878 116.668L134.56 116.16ZM131.695 116.934C130.055 116.934 128.744 116.368 127.735 115.241L127.288 115.642C128.42 116.905 129.898 117.534 131.695 117.534V116.934ZM127.736 115.242C126.733 114.114 126.218 112.608 126.218 110.695H125.618C125.618 112.72 126.166 114.379 127.287 115.641L127.736 115.242ZM126.218 110.695V110.543H125.618V110.695H126.218ZM127.798 110.801C127.798 112.252 128.133 113.451 128.832 114.369L129.309 114.006C128.711 113.221 128.398 112.162 128.398 110.801H127.798ZM128.833 114.371C129.547 115.297 130.51 115.765 131.695 115.765V115.165C130.693 115.165 129.906 114.781 129.308 114.004L128.833 114.371ZM131.695 115.765C132.888 115.765 133.853 115.293 134.56 114.356L134.081 113.995C133.491 114.777 132.705 115.165 131.695 115.165V115.765ZM134.561 114.355C135.261 113.418 135.593 112.135 135.593 110.543H134.993C134.993 112.06 134.676 113.199 134.08 113.996L134.561 114.355ZM135.593 110.543C135.593 109.105 135.249 107.91 134.534 106.985L134.059 107.351C134.673 108.145 134.993 109.2 134.993 110.543H135.593ZM134.536 106.987C133.823 106.044 132.859 105.567 131.672 105.567V106.167C132.672 106.167 133.458 106.557 134.058 107.349L134.536 106.987ZM131.672 105.567C130.508 105.567 129.557 106.037 128.844 106.961L129.32 107.328C129.919 106.549 130.695 106.167 131.672 106.167V105.567ZM128.844 106.961C128.132 107.885 127.798 109.179 127.798 110.801H128.398C128.398 109.251 128.719 108.107 129.32 107.328L128.844 106.961ZM146.895 112.277L146.714 112.517L146.719 112.521L146.895 112.277ZM144.586 111.434L144.523 111.727L144.524 111.727L144.586 111.434ZM141.973 110.59L141.836 110.857L141.837 110.858L141.973 110.59ZM140.543 109.418L140.294 109.585L140.296 109.588L140.543 109.418ZM141.398 105.164L141.209 104.931L141.208 104.932L141.398 105.164ZM148.266 105.199L148.074 105.43L148.075 105.431L148.266 105.199ZM149.613 108.047V108.347H149.913V108.047H149.613ZM147.434 108.047H147.134V108.347H147.434V108.047ZM146.672 106.512L146.476 106.739L146.478 106.741L146.672 106.512ZM145.113 109.676L145.048 109.968L145.048 109.969L145.113 109.676ZM149.238 111.762L148.989 111.929L148.993 111.934L149.238 111.762ZM148.371 116.215L148.551 116.455L148.552 116.454L148.371 116.215ZM140.309 115.195L140.06 115.363L140.062 115.367L140.309 115.195ZM139.652 113.098V112.798H139.352V113.098H139.652ZM141.82 113.098L142.12 113.082L142.105 112.798H141.82V113.098ZM142.688 114.832L142.5 115.067L142.504 115.07L142.688 114.832ZM146.812 114.973L146.979 115.222L146.98 115.222L146.812 114.973ZM147.863 113.637C147.863 112.962 147.599 112.415 147.07 112.034L146.719 112.521C147.08 112.78 147.262 113.14 147.262 113.637H147.863ZM147.075 112.037C146.582 111.668 145.757 111.376 144.648 111.14L144.524 111.727C145.618 111.96 146.333 112.231 146.715 112.517L147.075 112.037ZM144.649 111.14C143.568 110.909 142.725 110.634 142.108 110.322L141.837 110.858C142.517 111.202 143.416 111.49 144.523 111.727L144.649 111.14ZM142.109 110.323C141.5 110.011 141.067 109.649 140.79 109.248L140.296 109.588C140.644 110.093 141.164 110.513 141.836 110.857L142.109 110.323ZM140.792 109.251C140.525 108.854 140.386 108.375 140.386 107.801H139.786C139.786 108.477 139.951 109.076 140.294 109.585L140.792 109.251ZM140.386 107.801C140.386 106.86 140.776 106.063 141.589 105.396L141.208 104.932C140.271 105.702 139.786 106.663 139.786 107.801H140.386ZM141.588 105.397C142.407 104.73 143.461 104.386 144.773 104.386V103.786C143.352 103.786 142.156 104.161 141.209 104.931L141.588 105.397ZM144.773 104.386C146.158 104.386 147.249 104.742 148.074 105.43L148.458 104.969C147.501 104.172 146.264 103.786 144.773 103.786V104.386ZM148.075 105.431C148.905 106.116 149.313 106.981 149.313 108.047H149.913C149.913 106.8 149.423 105.767 148.457 104.968L148.075 105.431ZM149.613 107.747H147.434V108.347H149.613V107.747ZM147.734 108.047C147.734 107.354 147.432 106.762 146.866 106.283L146.478 106.741C146.928 107.121 147.134 107.553 147.134 108.047H147.734ZM146.867 106.284C146.304 105.8 145.599 105.567 144.773 105.567V106.167C145.48 106.167 146.039 106.364 146.476 106.739L146.867 106.284ZM144.773 105.567C143.944 105.567 143.254 105.748 142.739 106.145L143.105 106.62C143.48 106.331 144.025 106.167 144.773 106.167V105.567ZM142.739 106.145C142.221 106.545 141.954 107.081 141.954 107.73H142.554C142.554 107.27 142.732 106.908 143.105 106.62L142.739 106.145ZM141.954 107.73C141.954 108.348 142.207 108.842 142.713 109.167L143.037 108.662C142.715 108.455 142.554 108.16 142.554 107.73H141.954ZM142.713 109.167C143.175 109.463 143.967 109.726 145.048 109.968L145.179 109.383C144.103 109.141 143.403 108.896 143.037 108.662L142.713 109.167ZM145.048 109.969C146.12 110.208 146.974 110.49 147.616 110.811L147.884 110.275C147.183 109.924 146.278 109.628 145.179 109.383L145.048 109.969ZM147.616 110.811C148.255 111.131 148.705 111.507 148.989 111.929L149.487 111.594C149.13 111.064 148.589 110.627 147.884 110.275L147.616 110.811ZM148.993 111.934C149.279 112.343 149.43 112.854 149.43 113.484H150.03C150.03 112.755 149.854 112.118 149.484 111.59L148.993 111.934ZM149.43 113.484C149.43 114.523 149.022 115.345 148.19 115.976L148.552 116.454C149.533 115.71 150.03 114.711 150.03 113.484H149.43ZM148.191 115.975C147.35 116.606 146.242 116.934 144.844 116.934V117.534C146.336 117.534 147.58 117.183 148.551 116.455L148.191 115.975ZM144.844 116.934C143.864 116.934 143.009 116.761 142.274 116.423L142.023 116.968C142.85 117.348 143.793 117.534 144.844 117.534V116.934ZM142.274 116.423C141.536 116.083 140.967 115.616 140.555 115.024L140.062 115.367C140.541 116.056 141.198 116.588 142.023 116.968L142.274 116.423ZM140.557 115.028C140.152 114.426 139.952 113.785 139.952 113.098H139.352C139.352 113.91 139.59 114.667 140.06 115.363L140.557 115.028ZM139.652 113.398H141.82V112.798H139.652V113.398ZM141.521 113.114C141.564 113.921 141.89 114.58 142.501 115.067L142.874 114.597C142.407 114.224 142.155 113.728 142.12 113.082L141.521 113.114ZM142.504 115.07C143.117 115.542 143.906 115.765 144.844 115.765V115.165C144 115.165 143.352 114.965 142.871 114.594L142.504 115.07ZM144.844 115.765C145.701 115.765 146.422 115.594 146.979 115.222L146.646 114.723C146.219 115.008 145.627 115.165 144.844 115.165V115.765ZM146.98 115.222C147.554 114.836 147.863 114.301 147.863 113.637H147.262C147.262 114.082 147.071 114.438 146.645 114.724L146.98 115.222Z" fill="black"/>
</svg>
