<svg width="505" height="248" viewBox="0 0 505 248" fill="none" xmlns="http://www.w3.org/2000/svg">
<path d="M29 12H261V234H29V12Z" fill="white"/>
<ellipse cx="147" cy="125.5" rx="68" ry="68.5" fill="#FF0707"/>
<path d="M147 110L188.569 201.5H105.431L147 110Z" fill="white"/>
<path d="M110.5 148L151.636 212.5H69.3638L110.5 148Z" fill="white"/>
<path d="M179.5 135L220.636 212.25H138.364L179.5 135Z" fill="white"/>
<path d="M150.022 104.274L235.125 51.9423L240.356 61.6026L150.022 104.274Z" fill="white"/>
<path d="M0 0H505V248H0V0Z" fill="white"/>
<ellipse cx="147" cy="125.5" rx="68" ry="68.5" fill="#FF0707"/>
<path d="M147 110L188.569 201.5H105.431L147 110Z" fill="white"/>
<path d="M110.5 148L151.636 212.5H69.3638L110.5 148Z" fill="white"/>
<path d="M179.5 135L220.636 212.25H138.364L179.5 135Z" fill="white"/>
<path d="M266.128 140.832C266.704 140.832 267.216 140.64 267.728 140.32C277.008 134.368 287.184 124.384 287.184 92.32L287.12 87.264C287.12 84.512 284.752 84.192 282.192 82.272C280.976 81.376 280.016 80.928 279.184 80.928C276.176 80.928 277.712 84.96 268.752 101.216C267.856 102.944 264.464 108.64 261.456 112.032C261.072 109.984 260.432 107.488 260.432 102.176C260.432 93.024 262.352 85.152 262.352 83.552C262.352 81.248 260.624 80.48 258.384 80.48C255.056 80.48 251.664 82.784 251.088 86.112C250.192 90.72 249.808 96.736 249.808 100.96C249.808 117.856 254.096 119.2 262.096 122.08C262.864 122.4 263.632 122.528 264.336 122.528C267.152 122.528 269.008 121.056 274.96 110.432L275.536 110.688C273.424 120.544 270.352 132.128 264.528 140.448C265.104 140.704 265.68 140.832 266.128 140.832ZM283.531 142.176C284.107 142.176 285.323 141.92 286.027 141.28C297.611 130.848 294.219 123.68 298.571 122.464C298.571 122.464 304.907 120.544 317.259 117.088C319.883 127.52 323.595 138.4 337.931 138.4C338.571 138.4 339.211 138.208 339.851 138.08C339.403 136.16 339.403 136.16 337.867 135.264C331.211 131.168 328.779 124.64 327.179 113.44L332.427 111.584C331.467 108.256 328.587 109.088 326.347 108.384C321.547 70.112 326.795 74.72 315.339 70.432L315.019 70.368C311.307 70.944 308.427 72.288 306.699 75.488C290.763 104.672 294.539 116 285.835 116H285.451C284.235 116 282.827 116.896 282.827 118.496C282.827 120.48 284.747 122.464 286.667 124.96C284.043 131.36 282.187 134.304 282.187 140.256C282.187 141.536 282.507 142.176 283.531 142.176ZM301.515 111.264C304.971 102.176 308.363 93.28 312.843 84.832L315.723 108.448L301.515 111.264ZM368.9 139.872C369.347 139.872 369.796 139.68 370.308 139.168C367.364 134.176 363.716 117.28 363.716 103.136C363.716 94.56 364.612 83.616 364.612 81.632C364.612 80.48 364.42 79.392 363.396 78.688C362.244 77.984 357.188 74.72 355.844 74.72C352.9 74.72 350.468 87.2 343.748 104.16L343.172 103.968C345.604 83.68 344.644 90.784 346.884 80.864L347.076 79.52C347.076 77.536 344.9 76.896 343.172 76.896C340.1 76.896 336.58 79.008 335.748 81.824C334.02 87.776 333.508 97.056 333.508 103.264C333.508 110.816 334.148 118.304 334.916 125.792C335.236 128.672 336.9 129.568 342.276 131.68C342.66 131.808 343.044 131.872 343.428 131.872C345.796 131.872 345.604 128.736 345.924 127.52C353.604 99.168 352.58 103.2 353.348 101.152L353.732 101.216C355.012 113.312 354.948 132.384 367.492 139.424C367.94 139.68 368.388 139.872 368.9 139.872ZM385.859 140.96C391.939 140.96 395.075 131.936 399.555 121.44C399.683 121.12 399.747 120.8 399.747 120.48C399.747 118.944 398.339 117.792 397.443 117.792C396.163 117.792 385.987 128.672 382.211 131.424C380.291 126.24 379.395 121.184 379.075 116C379.331 115.744 379.459 115.616 379.587 115.552C385.347 112.8 390.211 108.64 395.395 104.928C396.227 104.352 396.611 103.712 396.611 103.2C396.611 101.984 394.755 101.088 392.835 101.088C391.171 101.088 382.851 102.88 379.075 103.392C379.331 96.864 379.715 90.528 380.803 84.256C381.251 81.696 381.187 81.888 400.451 75.872C404.163 74.72 406.211 74.72 409.731 73.44C409.475 71.776 408.451 71.136 407.171 70.816C404.675 70.304 404.355 70.304 395.907 70.304H395.331C388.035 70.304 382.659 70.368 372.291 74.848C370.883 75.488 370.051 76.32 370.051 77.408C370.051 78.368 370.691 78.944 370.691 80.608C370.691 80.608 368.195 88.544 368.195 106.144C368.195 121.952 369.539 140.96 385.859 140.96Z" fill="black"/>
<path d="M337.023 167.637C337.023 167.051 336.801 166.598 336.355 166.277C335.918 165.949 335.148 165.668 334.047 165.434C332.953 165.199 332.082 164.918 331.434 164.59C330.793 164.262 330.316 163.871 330.004 163.418C329.699 162.965 329.547 162.426 329.547 161.801C329.547 160.762 329.984 159.883 330.859 159.164C331.742 158.445 332.867 158.086 334.234 158.086C335.672 158.086 336.836 158.457 337.727 159.199C338.625 159.941 339.074 160.891 339.074 162.047H336.895C336.895 161.453 336.641 160.941 336.133 160.512C335.633 160.082 335 159.867 334.234 159.867C333.445 159.867 332.828 160.039 332.383 160.383C331.938 160.727 331.715 161.176 331.715 161.73C331.715 162.254 331.922 162.648 332.336 162.914C332.75 163.18 333.496 163.434 334.574 163.676C335.66 163.918 336.539 164.207 337.211 164.543C337.883 164.879 338.379 165.285 338.699 165.762C339.027 166.23 339.191 166.805 339.191 167.484C339.191 168.617 338.738 169.527 337.832 170.215C336.926 170.895 335.75 171.234 334.305 171.234C333.289 171.234 332.391 171.055 331.609 170.695C330.828 170.336 330.215 169.836 329.77 169.195C329.332 168.547 329.113 167.848 329.113 167.098H331.281C331.32 167.824 331.609 168.402 332.148 168.832C332.695 169.254 333.414 169.465 334.305 169.465C335.125 169.465 335.781 169.301 336.273 168.973C336.773 168.637 337.023 168.191 337.023 167.637ZM344.957 155.25V158.32H347.324V159.996H344.957V167.859C344.957 168.367 345.062 168.75 345.273 169.008C345.484 169.258 345.844 169.383 346.352 169.383C346.602 169.383 346.945 169.336 347.383 169.242V171C346.812 171.156 346.258 171.234 345.719 171.234C344.75 171.234 344.02 170.941 343.527 170.355C343.035 169.77 342.789 168.938 342.789 167.859V159.996H340.48V158.32H342.789V155.25H344.957ZM357.695 169.746C356.852 170.738 355.613 171.234 353.98 171.234C352.629 171.234 351.598 170.844 350.887 170.062C350.184 169.273 349.828 168.109 349.82 166.57V158.32H351.988V166.512C351.988 168.434 352.77 169.395 354.332 169.395C355.988 169.395 357.09 168.777 357.637 167.543V158.32H359.805V171H357.742L357.695 169.746ZM362.582 164.555C362.582 162.609 363.043 161.047 363.965 159.867C364.887 158.68 366.094 158.086 367.586 158.086C369.07 158.086 370.246 158.594 371.113 159.609V153H373.281V171H371.289L371.184 169.641C370.316 170.703 369.109 171.234 367.562 171.234C366.094 171.234 364.895 170.633 363.965 169.43C363.043 168.227 362.582 166.656 362.582 164.719V164.555ZM364.75 164.801C364.75 166.238 365.047 167.363 365.641 168.176C366.234 168.988 367.055 169.395 368.102 169.395C369.477 169.395 370.48 168.777 371.113 167.543V161.719C370.465 160.523 369.469 159.926 368.125 159.926C367.062 159.926 366.234 160.336 365.641 161.156C365.047 161.977 364.75 163.191 364.75 164.801ZM379.012 171H376.844V158.32H379.012V171ZM376.668 154.957C376.668 154.605 376.773 154.309 376.984 154.066C377.203 153.824 377.523 153.703 377.945 153.703C378.367 153.703 378.688 153.824 378.906 154.066C379.125 154.309 379.234 154.605 379.234 154.957C379.234 155.309 379.125 155.602 378.906 155.836C378.688 156.07 378.367 156.188 377.945 156.188C377.523 156.188 377.203 156.07 376.984 155.836C376.773 155.602 376.668 155.309 376.668 154.957ZM381.918 164.543C381.918 163.301 382.16 162.184 382.645 161.191C383.137 160.199 383.816 159.434 384.684 158.895C385.559 158.355 386.555 158.086 387.672 158.086C389.398 158.086 390.793 158.684 391.855 159.879C392.926 161.074 393.461 162.664 393.461 164.648V164.801C393.461 166.035 393.223 167.145 392.746 168.129C392.277 169.105 391.602 169.867 390.719 170.414C389.844 170.961 388.836 171.234 387.695 171.234C385.977 171.234 384.582 170.637 383.512 169.441C382.449 168.246 381.918 166.664 381.918 164.695V164.543ZM384.098 164.801C384.098 166.207 384.422 167.336 385.07 168.188C385.727 169.039 386.602 169.465 387.695 169.465C388.797 169.465 389.672 169.035 390.32 168.176C390.969 167.309 391.293 166.098 391.293 164.543C391.293 163.152 390.961 162.027 390.297 161.168C389.641 160.301 388.766 159.867 387.672 159.867C386.602 159.867 385.738 160.293 385.082 161.145C384.426 161.996 384.098 163.215 384.098 164.801ZM403.562 167.637C403.562 167.051 403.34 166.598 402.895 166.277C402.457 165.949 401.688 165.668 400.586 165.434C399.492 165.199 398.621 164.918 397.973 164.59C397.332 164.262 396.855 163.871 396.543 163.418C396.238 162.965 396.086 162.426 396.086 161.801C396.086 160.762 396.523 159.883 397.398 159.164C398.281 158.445 399.406 158.086 400.773 158.086C402.211 158.086 403.375 158.457 404.266 159.199C405.164 159.941 405.613 160.891 405.613 162.047H403.434C403.434 161.453 403.18 160.941 402.672 160.512C402.172 160.082 401.539 159.867 400.773 159.867C399.984 159.867 399.367 160.039 398.922 160.383C398.477 160.727 398.254 161.176 398.254 161.73C398.254 162.254 398.461 162.648 398.875 162.914C399.289 163.18 400.035 163.434 401.113 163.676C402.199 163.918 403.078 164.207 403.75 164.543C404.422 164.879 404.918 165.285 405.238 165.762C405.566 166.23 405.73 166.805 405.73 167.484C405.73 168.617 405.277 169.527 404.371 170.215C403.465 170.895 402.289 171.234 400.844 171.234C399.828 171.234 398.93 171.055 398.148 170.695C397.367 170.336 396.754 169.836 396.309 169.195C395.871 168.547 395.652 167.848 395.652 167.098H397.82C397.859 167.824 398.148 168.402 398.688 168.832C399.234 169.254 399.953 169.465 400.844 169.465C401.664 169.465 402.32 169.301 402.812 168.973C403.312 168.637 403.562 168.191 403.562 167.637Z" fill="black"/>
<path d="M150.022 104.274L235.125 51.9423L240.356 61.6026L150.022 104.274Z" fill="white"/>
</svg>
