<svg width="505" height="248" viewBox="0 0 505 248" fill="none" xmlns="http://www.w3.org/2000/svg">
<path d="M29 12H261V234H29V12Z" fill="white"/>
<ellipse cx="147" cy="125.5" rx="68" ry="68.5" fill="#FF0707"/>
<path d="M147 110L188.569 201.5H105.431L147 110Z" fill="white"/>
<path d="M110.5 148L151.636 212.5H69.3638L110.5 148Z" fill="white"/>
<path d="M179.5 135L220.636 212.25H138.364L179.5 135Z" fill="white"/>
<path d="M150.022 104.274L235.125 51.9423L240.356 61.6026L150.022 104.274Z" fill="white"/>
<path d="M0 0H505V248H0V0Z" fill="white"/>
<ellipse cx="147" cy="125.5" rx="68" ry="68.5" fill="#FF0707"/>
<path d="M147 110L188.569 201.5H105.431L147 110Z" fill="white"/>
<path d="M110.5 148L151.636 212.5H69.3638L110.5 148Z" fill="white"/>
<path d="M179.5 135L220.636 212.25H138.364L179.5 135Z" fill="white"/>
<path d="M268.128 140.832C268.704 140.832 269.216 140.64 269.728 140.32C279.008 134.368 289.184 124.384 289.184 92.32L289.12 87.264C289.12 84.512 286.752 84.192 284.192 82.272C282.976 81.376 282.016 80.928 281.184 80.928C278.176 80.928 279.712 84.96 270.752 101.216C269.856 102.944 266.464 108.64 263.456 112.032C263.072 109.984 262.432 107.488 262.432 102.176C262.432 93.024 264.352 85.152 264.352 83.552C264.352 81.248 262.624 80.48 260.384 80.48C257.056 80.48 253.664 82.784 253.088 86.112C252.192 90.72 251.808 96.736 251.808 100.96C251.808 117.856 256.096 119.2 264.096 122.08C264.864 122.4 265.632 122.528 266.336 122.528C269.152 122.528 271.008 121.056 276.96 110.432L277.536 110.688C275.424 120.544 272.352 132.128 266.528 140.448C267.104 140.704 267.68 140.832 268.128 140.832ZM285.531 142.176C286.107 142.176 287.323 141.92 288.027 141.28C299.611 130.848 296.219 123.68 300.571 122.464C300.571 122.464 306.907 120.544 319.259 117.088C321.883 127.52 325.595 138.4 339.931 138.4C340.571 138.4 341.211 138.208 341.851 138.08C341.403 136.16 341.403 136.16 339.867 135.264C333.211 131.168 330.779 124.64 329.179 113.44L334.427 111.584C333.467 108.256 330.587 109.088 328.347 108.384C323.547 70.112 328.795 74.72 317.339 70.432L317.019 70.368C313.307 70.944 310.427 72.288 308.699 75.488C292.763 104.672 296.539 116 287.835 116H287.451C286.235 116 284.827 116.896 284.827 118.496C284.827 120.48 286.747 122.464 288.667 124.96C286.043 131.36 284.187 134.304 284.187 140.256C284.187 141.536 284.507 142.176 285.531 142.176ZM303.515 111.264C306.971 102.176 310.363 93.28 314.843 84.832L317.723 108.448L303.515 111.264ZM370.9 139.872C371.347 139.872 371.796 139.68 372.308 139.168C369.364 134.176 365.716 117.28 365.716 103.136C365.716 94.56 366.612 83.616 366.612 81.632C366.612 80.48 366.42 79.392 365.396 78.688C364.244 77.984 359.188 74.72 357.844 74.72C354.9 74.72 352.468 87.2 345.748 104.16L345.172 103.968C347.604 83.68 346.644 90.784 348.884 80.864L349.076 79.52C349.076 77.536 346.9 76.896 345.172 76.896C342.1 76.896 338.58 79.008 337.748 81.824C336.02 87.776 335.508 97.056 335.508 103.264C335.508 110.816 336.148 118.304 336.916 125.792C337.236 128.672 338.9 129.568 344.276 131.68C344.66 131.808 345.044 131.872 345.428 131.872C347.796 131.872 347.604 128.736 347.924 127.52C355.604 99.168 354.58 103.2 355.348 101.152L355.732 101.216C357.012 113.312 356.948 132.384 369.492 139.424C369.94 139.68 370.388 139.872 370.9 139.872ZM387.859 140.96C393.939 140.96 397.075 131.936 401.555 121.44C401.683 121.12 401.747 120.8 401.747 120.48C401.747 118.944 400.339 117.792 399.443 117.792C398.163 117.792 387.987 128.672 384.211 131.424C382.291 126.24 381.395 121.184 381.075 116C381.331 115.744 381.459 115.616 381.587 115.552C387.347 112.8 392.211 108.64 397.395 104.928C398.227 104.352 398.611 103.712 398.611 103.2C398.611 101.984 396.755 101.088 394.835 101.088C393.171 101.088 384.851 102.88 381.075 103.392C381.331 96.864 381.715 90.528 382.803 84.256C383.251 81.696 383.187 81.888 402.451 75.872C406.163 74.72 408.211 74.72 411.731 73.44C411.475 71.776 410.451 71.136 409.171 70.816C406.675 70.304 406.355 70.304 397.907 70.304H397.331C390.035 70.304 384.659 70.368 374.291 74.848C372.883 75.488 372.051 76.32 372.051 77.408C372.051 78.368 372.691 78.944 372.691 80.608C372.691 80.608 370.195 88.544 370.195 106.144C370.195 121.952 371.539 140.96 387.859 140.96Z" fill="#FF0707"/>
<path d="M339.023 167.637C339.023 167.051 338.801 166.598 338.355 166.277C337.918 165.949 337.148 165.668 336.047 165.434C334.953 165.199 334.082 164.918 333.434 164.59C332.793 164.262 332.316 163.871 332.004 163.418C331.699 162.965 331.547 162.426 331.547 161.801C331.547 160.762 331.984 159.883 332.859 159.164C333.742 158.445 334.867 158.086 336.234 158.086C337.672 158.086 338.836 158.457 339.727 159.199C340.625 159.941 341.074 160.891 341.074 162.047H338.895C338.895 161.453 338.641 160.941 338.133 160.512C337.633 160.082 337 159.867 336.234 159.867C335.445 159.867 334.828 160.039 334.383 160.383C333.938 160.727 333.715 161.176 333.715 161.73C333.715 162.254 333.922 162.648 334.336 162.914C334.75 163.18 335.496 163.434 336.574 163.676C337.66 163.918 338.539 164.207 339.211 164.543C339.883 164.879 340.379 165.285 340.699 165.762C341.027 166.23 341.191 166.805 341.191 167.484C341.191 168.617 340.738 169.527 339.832 170.215C338.926 170.895 337.75 171.234 336.305 171.234C335.289 171.234 334.391 171.055 333.609 170.695C332.828 170.336 332.215 169.836 331.77 169.195C331.332 168.547 331.113 167.848 331.113 167.098H333.281C333.32 167.824 333.609 168.402 334.148 168.832C334.695 169.254 335.414 169.465 336.305 169.465C337.125 169.465 337.781 169.301 338.273 168.973C338.773 168.637 339.023 168.191 339.023 167.637ZM346.957 155.25V158.32H349.324V159.996H346.957V167.859C346.957 168.367 347.062 168.75 347.273 169.008C347.484 169.258 347.844 169.383 348.352 169.383C348.602 169.383 348.945 169.336 349.383 169.242V171C348.812 171.156 348.258 171.234 347.719 171.234C346.75 171.234 346.02 170.941 345.527 170.355C345.035 169.77 344.789 168.938 344.789 167.859V159.996H342.48V158.32H344.789V155.25H346.957ZM359.695 169.746C358.852 170.738 357.613 171.234 355.98 171.234C354.629 171.234 353.598 170.844 352.887 170.062C352.184 169.273 351.828 168.109 351.82 166.57V158.32H353.988V166.512C353.988 168.434 354.77 169.395 356.332 169.395C357.988 169.395 359.09 168.777 359.637 167.543V158.32H361.805V171H359.742L359.695 169.746ZM364.582 164.555C364.582 162.609 365.043 161.047 365.965 159.867C366.887 158.68 368.094 158.086 369.586 158.086C371.07 158.086 372.246 158.594 373.113 159.609V153H375.281V171H373.289L373.184 169.641C372.316 170.703 371.109 171.234 369.562 171.234C368.094 171.234 366.895 170.633 365.965 169.43C365.043 168.227 364.582 166.656 364.582 164.719V164.555ZM366.75 164.801C366.75 166.238 367.047 167.363 367.641 168.176C368.234 168.988 369.055 169.395 370.102 169.395C371.477 169.395 372.48 168.777 373.113 167.543V161.719C372.465 160.523 371.469 159.926 370.125 159.926C369.062 159.926 368.234 160.336 367.641 161.156C367.047 161.977 366.75 163.191 366.75 164.801ZM381.012 171H378.844V158.32H381.012V171ZM378.668 154.957C378.668 154.605 378.773 154.309 378.984 154.066C379.203 153.824 379.523 153.703 379.945 153.703C380.367 153.703 380.688 153.824 380.906 154.066C381.125 154.309 381.234 154.605 381.234 154.957C381.234 155.309 381.125 155.602 380.906 155.836C380.688 156.07 380.367 156.188 379.945 156.188C379.523 156.188 379.203 156.07 378.984 155.836C378.773 155.602 378.668 155.309 378.668 154.957ZM383.918 164.543C383.918 163.301 384.16 162.184 384.645 161.191C385.137 160.199 385.816 159.434 386.684 158.895C387.559 158.355 388.555 158.086 389.672 158.086C391.398 158.086 392.793 158.684 393.855 159.879C394.926 161.074 395.461 162.664 395.461 164.648V164.801C395.461 166.035 395.223 167.145 394.746 168.129C394.277 169.105 393.602 169.867 392.719 170.414C391.844 170.961 390.836 171.234 389.695 171.234C387.977 171.234 386.582 170.637 385.512 169.441C384.449 168.246 383.918 166.664 383.918 164.695V164.543ZM386.098 164.801C386.098 166.207 386.422 167.336 387.07 168.188C387.727 169.039 388.602 169.465 389.695 169.465C390.797 169.465 391.672 169.035 392.32 168.176C392.969 167.309 393.293 166.098 393.293 164.543C393.293 163.152 392.961 162.027 392.297 161.168C391.641 160.301 390.766 159.867 389.672 159.867C388.602 159.867 387.738 160.293 387.082 161.145C386.426 161.996 386.098 163.215 386.098 164.801ZM405.562 167.637C405.562 167.051 405.34 166.598 404.895 166.277C404.457 165.949 403.688 165.668 402.586 165.434C401.492 165.199 400.621 164.918 399.973 164.59C399.332 164.262 398.855 163.871 398.543 163.418C398.238 162.965 398.086 162.426 398.086 161.801C398.086 160.762 398.523 159.883 399.398 159.164C400.281 158.445 401.406 158.086 402.773 158.086C404.211 158.086 405.375 158.457 406.266 159.199C407.164 159.941 407.613 160.891 407.613 162.047H405.434C405.434 161.453 405.18 160.941 404.672 160.512C404.172 160.082 403.539 159.867 402.773 159.867C401.984 159.867 401.367 160.039 400.922 160.383C400.477 160.727 400.254 161.176 400.254 161.73C400.254 162.254 400.461 162.648 400.875 162.914C401.289 163.18 402.035 163.434 403.113 163.676C404.199 163.918 405.078 164.207 405.75 164.543C406.422 164.879 406.918 165.285 407.238 165.762C407.566 166.23 407.73 166.805 407.73 167.484C407.73 168.617 407.277 169.527 406.371 170.215C405.465 170.895 404.289 171.234 402.844 171.234C401.828 171.234 400.93 171.055 400.148 170.695C399.367 170.336 398.754 169.836 398.309 169.195C397.871 168.547 397.652 167.848 397.652 167.098H399.82C399.859 167.824 400.148 168.402 400.688 168.832C401.234 169.254 401.953 169.465 402.844 169.465C403.664 169.465 404.32 169.301 404.812 168.973C405.312 168.637 405.562 168.191 405.562 167.637Z" fill="#FF0707"/>
<path d="M150.022 104.274L235.125 51.9423L240.356 61.6026L150.022 104.274Z" fill="white"/>
</svg>
