<svg width="347" height="403" viewBox="0 0 347 403" fill="none" xmlns="http://www.w3.org/2000/svg">
<path d="M0 0H346V403H0V0Z" fill="white"/>
<circle cx="163" cy="168" r="102" fill="#FF0707"/>
<path d="M163 145L224.488 281.5H101.512L163 145Z" fill="white"/>
<path d="M109 202L170.488 298H47.5122L109 202Z" fill="white"/>
<path d="M211 183L272.488 297.75H149.512L211 183Z" fill="white"/>
<path d="M109.128 326.832C109.704 326.832 110.216 326.64 110.728 326.32C120.008 320.368 130.184 310.384 130.184 278.32L130.12 273.264C130.12 270.512 127.752 270.192 125.192 268.272C123.976 267.376 123.016 266.928 122.184 266.928C119.176 266.928 120.712 270.96 111.752 287.216C110.856 288.944 107.464 294.64 104.456 298.032C104.072 295.984 103.432 293.488 103.432 288.176C103.432 279.024 105.352 271.152 105.352 269.552C105.352 267.248 103.624 266.48 101.384 266.48C98.056 266.48 94.664 268.784 94.088 272.112C93.192 276.72 92.808 282.736 92.808 286.96C92.808 303.856 97.096 305.2 105.096 308.08C105.864 308.4 106.632 308.528 107.336 308.528C110.152 308.528 112.008 307.056 117.96 296.432L118.536 296.688C116.424 306.544 113.352 318.128 107.528 326.448C108.104 326.704 108.68 326.832 109.128 326.832ZM126.531 328.176C127.107 328.176 128.323 327.92 129.027 327.28C140.611 316.848 137.219 309.68 141.571 308.464C141.571 308.464 147.907 306.544 160.259 303.088C162.883 313.52 166.595 324.4 180.931 324.4C181.571 324.4 182.211 324.208 182.851 324.08C182.403 322.16 182.403 322.16 180.867 321.264C174.211 317.168 171.779 310.64 170.179 299.44L175.427 297.584C174.467 294.256 171.587 295.088 169.347 294.384C164.547 256.112 169.795 260.72 158.339 256.432L158.019 256.368C154.307 256.944 151.427 258.288 149.699 261.488C133.763 290.672 137.539 302 128.835 302H128.451C127.235 302 125.827 302.896 125.827 304.496C125.827 306.48 127.747 308.464 129.667 310.96C127.043 317.36 125.187 320.304 125.187 326.256C125.187 327.536 125.507 328.176 126.531 328.176ZM144.515 297.264C147.971 288.176 151.363 279.28 155.843 270.832L158.723 294.448L144.515 297.264ZM211.9 325.872C212.347 325.872 212.796 325.68 213.308 325.168C210.364 320.176 206.716 303.28 206.716 289.136C206.716 280.56 207.612 269.616 207.612 267.632C207.612 266.48 207.42 265.392 206.396 264.688C205.244 263.984 200.188 260.72 198.844 260.72C195.9 260.72 193.468 273.2 186.748 290.16L186.172 289.968C188.604 269.68 187.644 276.784 189.884 266.864L190.076 265.52C190.076 263.536 187.9 262.896 186.172 262.896C183.1 262.896 179.58 265.008 178.748 267.824C177.02 273.776 176.508 283.056 176.508 289.264C176.508 296.816 177.148 304.304 177.916 311.792C178.236 314.672 179.9 315.568 185.276 317.68C185.66 317.808 186.044 317.872 186.428 317.872C188.796 317.872 188.604 314.736 188.924 313.52C196.604 285.168 195.58 289.2 196.348 287.152L196.732 287.216C198.012 299.312 197.948 318.384 210.492 325.424C210.94 325.68 211.388 325.872 211.9 325.872ZM228.859 326.96C234.939 326.96 238.075 317.936 242.555 307.44C242.683 307.12 242.747 306.8 242.747 306.48C242.747 304.944 241.339 303.792 240.443 303.792C239.163 303.792 228.987 314.672 225.211 317.424C223.291 312.24 222.395 307.184 222.075 302C222.331 301.744 222.459 301.616 222.587 301.552C228.347 298.8 233.211 294.64 238.395 290.928C239.227 290.352 239.611 289.712 239.611 289.2C239.611 287.984 237.755 287.088 235.835 287.088C234.171 287.088 225.851 288.88 222.075 289.392C222.331 282.864 222.715 276.528 223.803 270.256C224.251 267.696 224.187 267.888 243.451 261.872C247.163 260.72 249.211 260.72 252.731 259.44C252.475 257.776 251.451 257.136 250.171 256.816C247.675 256.304 247.355 256.304 238.907 256.304H238.331C231.035 256.304 225.659 256.368 215.291 260.848C213.883 261.488 213.051 262.32 213.051 263.408C213.051 264.368 213.691 264.944 213.691 266.608C213.691 266.608 211.195 274.544 211.195 292.144C211.195 307.952 212.539 326.96 228.859 326.96Z" fill="#FF0707"/>
<path d="M141.023 354.637C141.023 354.051 140.801 353.598 140.355 353.277C139.918 352.949 139.148 352.668 138.047 352.434C136.953 352.199 136.082 351.918 135.434 351.59C134.793 351.262 134.316 350.871 134.004 350.418C133.699 349.965 133.547 349.426 133.547 348.801C133.547 347.762 133.984 346.883 134.859 346.164C135.742 345.445 136.867 345.086 138.234 345.086C139.672 345.086 140.836 345.457 141.727 346.199C142.625 346.941 143.074 347.891 143.074 349.047H140.895C140.895 348.453 140.641 347.941 140.133 347.512C139.633 347.082 139 346.867 138.234 346.867C137.445 346.867 136.828 347.039 136.383 347.383C135.938 347.727 135.715 348.176 135.715 348.73C135.715 349.254 135.922 349.648 136.336 349.914C136.75 350.18 137.496 350.434 138.574 350.676C139.66 350.918 140.539 351.207 141.211 351.543C141.883 351.879 142.379 352.285 142.699 352.762C143.027 353.23 143.191 353.805 143.191 354.484C143.191 355.617 142.738 356.527 141.832 357.215C140.926 357.895 139.75 358.234 138.305 358.234C137.289 358.234 136.391 358.055 135.609 357.695C134.828 357.336 134.215 356.836 133.77 356.195C133.332 355.547 133.113 354.848 133.113 354.098H135.281C135.32 354.824 135.609 355.402 136.148 355.832C136.695 356.254 137.414 356.465 138.305 356.465C139.125 356.465 139.781 356.301 140.273 355.973C140.773 355.637 141.023 355.191 141.023 354.637ZM148.957 342.25V345.32H151.324V346.996H148.957V354.859C148.957 355.367 149.062 355.75 149.273 356.008C149.484 356.258 149.844 356.383 150.352 356.383C150.602 356.383 150.945 356.336 151.383 356.242V358C150.812 358.156 150.258 358.234 149.719 358.234C148.75 358.234 148.02 357.941 147.527 357.355C147.035 356.77 146.789 355.938 146.789 354.859V346.996H144.48V345.32H146.789V342.25H148.957ZM161.695 356.746C160.852 357.738 159.613 358.234 157.98 358.234C156.629 358.234 155.598 357.844 154.887 357.062C154.184 356.273 153.828 355.109 153.82 353.57V345.32H155.988V353.512C155.988 355.434 156.77 356.395 158.332 356.395C159.988 356.395 161.09 355.777 161.637 354.543V345.32H163.805V358H161.742L161.695 356.746ZM166.582 351.555C166.582 349.609 167.043 348.047 167.965 346.867C168.887 345.68 170.094 345.086 171.586 345.086C173.07 345.086 174.246 345.594 175.113 346.609V340H177.281V358H175.289L175.184 356.641C174.316 357.703 173.109 358.234 171.562 358.234C170.094 358.234 168.895 357.633 167.965 356.43C167.043 355.227 166.582 353.656 166.582 351.719V351.555ZM168.75 351.801C168.75 353.238 169.047 354.363 169.641 355.176C170.234 355.988 171.055 356.395 172.102 356.395C173.477 356.395 174.48 355.777 175.113 354.543V348.719C174.465 347.523 173.469 346.926 172.125 346.926C171.062 346.926 170.234 347.336 169.641 348.156C169.047 348.977 168.75 350.191 168.75 351.801ZM183.012 358H180.844V345.32H183.012V358ZM180.668 341.957C180.668 341.605 180.773 341.309 180.984 341.066C181.203 340.824 181.523 340.703 181.945 340.703C182.367 340.703 182.688 340.824 182.906 341.066C183.125 341.309 183.234 341.605 183.234 341.957C183.234 342.309 183.125 342.602 182.906 342.836C182.688 343.07 182.367 343.188 181.945 343.188C181.523 343.188 181.203 343.07 180.984 342.836C180.773 342.602 180.668 342.309 180.668 341.957ZM185.918 351.543C185.918 350.301 186.16 349.184 186.645 348.191C187.137 347.199 187.816 346.434 188.684 345.895C189.559 345.355 190.555 345.086 191.672 345.086C193.398 345.086 194.793 345.684 195.855 346.879C196.926 348.074 197.461 349.664 197.461 351.648V351.801C197.461 353.035 197.223 354.145 196.746 355.129C196.277 356.105 195.602 356.867 194.719 357.414C193.844 357.961 192.836 358.234 191.695 358.234C189.977 358.234 188.582 357.637 187.512 356.441C186.449 355.246 185.918 353.664 185.918 351.695V351.543ZM188.098 351.801C188.098 353.207 188.422 354.336 189.07 355.188C189.727 356.039 190.602 356.465 191.695 356.465C192.797 356.465 193.672 356.035 194.32 355.176C194.969 354.309 195.293 353.098 195.293 351.543C195.293 350.152 194.961 349.027 194.297 348.168C193.641 347.301 192.766 346.867 191.672 346.867C190.602 346.867 189.738 347.293 189.082 348.145C188.426 348.996 188.098 350.215 188.098 351.801ZM207.562 354.637C207.562 354.051 207.34 353.598 206.895 353.277C206.457 352.949 205.688 352.668 204.586 352.434C203.492 352.199 202.621 351.918 201.973 351.59C201.332 351.262 200.855 350.871 200.543 350.418C200.238 349.965 200.086 349.426 200.086 348.801C200.086 347.762 200.523 346.883 201.398 346.164C202.281 345.445 203.406 345.086 204.773 345.086C206.211 345.086 207.375 345.457 208.266 346.199C209.164 346.941 209.613 347.891 209.613 349.047H207.434C207.434 348.453 207.18 347.941 206.672 347.512C206.172 347.082 205.539 346.867 204.773 346.867C203.984 346.867 203.367 347.039 202.922 347.383C202.477 347.727 202.254 348.176 202.254 348.73C202.254 349.254 202.461 349.648 202.875 349.914C203.289 350.18 204.035 350.434 205.113 350.676C206.199 350.918 207.078 351.207 207.75 351.543C208.422 351.879 208.918 352.285 209.238 352.762C209.566 353.23 209.73 353.805 209.73 354.484C209.73 355.617 209.277 356.527 208.371 357.215C207.465 357.895 206.289 358.234 204.844 358.234C203.828 358.234 202.93 358.055 202.148 357.695C201.367 357.336 200.754 356.836 200.309 356.195C199.871 355.547 199.652 354.848 199.652 354.098H201.82C201.859 354.824 202.148 355.402 202.688 355.832C203.234 356.254 203.953 356.465 204.844 356.465C205.664 356.465 206.32 356.301 206.812 355.973C207.312 355.637 207.562 355.191 207.562 354.637Z" fill="#FF0707"/>
<path d="M167.505 136.627L294.436 58.5735L302.238 72.9818L167.505 136.627Z" fill="white"/>
</svg>
